<!DOCTYPE svg PUBLIC "-//W3C//DTD SVG 1.1//EN" "http://www.w3.org/Graphics/SVG/1.1/DTD/svg11.dtd">
<!-- Uploaded to: SVG Repo, www.svgrepo.com, Transformed by: SVG Repo Mixer Tools -->
<svg fill="#404040" version="1.1" id="Capa_1" xmlns="http://www.w3.org/2000/svg" xmlns:xlink="http://www.w3.org/1999/xlink" width="157px" height="157px" viewBox="0 0 490 490" xml:space="preserve" stroke="#404040">
<g id="SVGRepo_bgCarrier" stroke-width="0"/>
<g id="SVGRepo_tracerCarrier" stroke-linecap="round" stroke-linejoin="round"/>
<g id="SVGRepo_iconCarrier"> <g> <path d="M418.242,71.759C371.969,25.484,310.443,0,245,0C179.559,0,118.034,25.484,71.758,71.759C25.484,118.032,0,179.558,0,245 c0,65.441,25.484,126.967,71.758,173.241C118.034,464.516,179.559,490,245,490c65.443,0,126.969-25.484,173.242-71.759 S490,310.441,490,245C490,179.558,464.516,118.032,418.242,71.759z M245,42.15c102.528,0,187.52,76.464,200.979,175.358 L306.29,179.714c-16.024-15.049-37.573-24.285-61.29-24.285s-45.266,9.235-61.29,24.285L44.021,217.509 C57.48,118.614,142.473,42.15,245,42.15z M44.021,272.491l134.108,37.267l25.059,133.748 C120.11,426.027,55.6,357.562,44.021,272.491z M245,292.068c-25.994,0-47.068-21.073-47.068-47.068s21.074-47.068,47.068-47.068 s47.066,21.073,47.066,47.068S270.994,292.068,245,292.068z M286.814,443.506l25.058-133.748l134.106-37.267 C434.401,357.562,369.89,426.027,286.814,443.506z"/> </g> </g>
</svg>