<svg xmlns="http://www.w3.org/2000/svg"  viewBox="0 0 32 32" width="32px" height="32px" baseProfile="basic"><path fill="#e83815" d="M25.9,6.1l-3.54,3.54C20.74,8.01,18.49,7,16,7c-3.28,0-6.15,1.76-7.72,4.38L4.23,8.42	C6.73,4.56,11.07,2,16,2C19.87,2,23.37,3.57,25.9,6.1z"/><path fill="#e6a728" d="M9.63,22.34l-0.01,0.01l-3.65,3.42C3.52,23.24,2,19.8,2,16c0-2.79,0.82-5.39,2.23-7.58l4.05,2.96	C7.47,12.73,7,14.32,7,16C7,18.47,8,20.72,9.63,22.34z"/><path fill="#87a648" d="M24.33,27.24C22,28.98,19.12,30,16,30c-3.93,0-7.48-1.62-10.03-4.23l3.65-3.42l0.01-0.01	C11.25,23.98,13.5,25,16,25c1.7,0,3.28-0.47,4.64-1.29L24.33,27.24z"/><path fill="#449bb3" d="M30,16c0,4.61-2.23,8.7-5.67,11.24l-3.69-3.53c1.77-1.06,3.15-2.73,3.85-4.71H16v-5h13.86	C29.95,14.65,30,15.32,30,16z"/><rect width="1" height="5.012" x="5.753" y="7.394" fill="#fff" transform="rotate(-53.856 6.253 9.9)"/><rect width="5.001" height="1" x="5.296" y="23.559" fill="#fff" transform="rotate(-43.181 7.797 24.059)"/><rect width="1" height="5.115" x="21.989" y="22.922" fill="#fff" transform="rotate(-46.338 22.487 25.48)"/><path fill="#302529" d="M16,31C7.729,31,1,24.271,1,16S7.729,1,16,1c4.007,0,7.774,1.561,10.606,4.394l0.707,0.707	l-4.95,4.95l-0.707-0.708C20.146,8.832,18.137,8,16,8c-4.411,0-8,3.589-8,8s3.589,8,8,8c2.889,0,5.52-1.561,6.931-4H15v-7h15.725	l0.123,0.858C30.949,14.562,31,15.283,31,16C31,24.271,24.271,31,16,31z M16,3C8.832,3,3,8.832,3,16s5.832,13,13,13s13-5.832,13-13	c0-0.333-0.013-0.667-0.038-1H17v3h8.902l-0.471,1.333C24.021,23.321,20.231,26,16,26c-5.514,0-10-4.486-10-10S10.486,6,16,6	c2.335,0,4.548,0.795,6.329,2.257l2.129-2.13C22.104,4.104,19.137,3,16,3z"/></svg>