<svg width="40" height="40" viewBox="0 0 40 40" fill="none" xmlns="http://www.w3.org/2000/svg">
<path d="M21.4 26.6L26.6 21.4C26.9667 21.0333 27.15 20.5667 27.15 20C27.15 19.4333 26.9667 18.9667 26.6 18.6L21.35 13.35C20.9833 12.9833 20.5247 12.808 19.974 12.824C19.4233 12.84 18.9653 13.032 18.6 13.4C18.2333 13.7667 18.05 14.2333 18.05 14.8C18.05 15.3667 18.2333 15.8333 18.6 16.2L20.4 18H13.95C13.3833 18 12.9167 18.192 12.55 18.576C12.1833 18.96 12 19.4347 12 20C12 20.5667 12.192 21.042 12.576 21.426C12.96 21.81 13.4347 22.0013 14 22H20.4L18.55 23.85C18.1833 24.2167 18.008 24.6753 18.024 25.226C18.04 25.7767 18.232 26.2347 18.6 26.6C18.9667 26.9667 19.4333 27.15 20 27.15C20.5667 27.15 21.0333 26.9667 21.4 26.6ZM20 40C17.2333 40 14.6333 39.4747 12.2 38.424C9.76667 37.3733 7.65 35.9487 5.85 34.15C4.05 32.35 2.62533 30.2333 1.576 27.8C0.526667 25.3667 0.00133333 22.7667 0 20C0 17.2333 0.525333 14.6333 1.576 12.2C2.62667 9.76667 4.05133 7.65 5.85 5.85C7.65 4.05 9.76667 2.62533 12.2 1.576C14.6333 0.526667 17.2333 0.00133333 20 0C22.7667 0 25.3667 0.525333 27.8 1.576C30.2333 2.62667 32.35 4.05133 34.15 5.85C35.95 7.65 37.3753 9.76667 38.426 12.2C39.4767 14.6333 40.0013 17.2333 40 20C40 22.7667 39.4747 25.3667 38.424 27.8C37.3733 30.2333 35.9487 32.35 34.15 34.15C32.35 35.95 30.2333 37.3753 27.8 38.426C25.3667 39.4767 22.7667 40.0013 20 40Z" fill="#BBBBBB"/>
</svg>
