<?xml version="1.0" encoding="iso-8859-1"?>
<!-- Generator: Adobe Illustrator 18.1.1, SVG Export Plug-In . SVG Version: 6.00 Build 0)  -->
<svg version="1.1" id="Capa_1" xmlns="http://www.w3.org/2000/svg" xmlns:xlink="http://www.w3.org/1999/xlink" x="0px" y="0px"
	 viewBox="0 0 19.314 19.314" style="enable-background:new 0 0 19.314 19.314;" xml:space="preserve">
<g>
	<g>
		<path style="fill:#030104;" d="M10.072,17.643c-0.801,0-1.555-0.312-2.121-0.879s-0.88-1.321-0.879-2.123
			c0-0.746,0.271-0.998,0.764-1.998H3c-1.654,0-3-1.347-3-3c0-1.654,1.346-3,3-3h4.836c-0.494-1-0.764-1.255-0.764-2.001
			c0.001-0.802,0.312-1.554,0.88-2.121c1.132-1.132,3.108-1.133,4.241,0.001l7.121,7.121l-7.121,7.121
			C11.627,17.331,10.873,17.643,10.072,17.643z M3,8.643c-0.552,0-1,0.449-1,1s0.448,1,1,1h9.658l-3.293,3.293
			c-0.189,0.189-0.293,0.439-0.293,0.706c0,0.269,0.104,0.519,0.293,0.708c0.379,0.378,1.035,0.378,1.414,0l5.707-5.707
			l-5.707-5.707c-0.379-0.378-1.035-0.378-1.414,0C9.176,4.125,9.072,4.375,9.072,4.642c0,0.268,0.104,0.519,0.293,0.708
			l3.293,3.293H3z"/>
	</g>
</g>
</svg>
