<?xml version="1.0" standalone="no"?>
<!DOCTYPE svg PUBLIC "-//W3C//DTD SVG 20010904//EN"
 "http://www.w3.org/TR/2001/REC-SVG-20010904/DTD/svg10.dtd">
<svg version="1.0" xmlns="http://www.w3.org/2000/svg"
 width="447.000000pt" height="268.000000pt" viewBox="0 0 447.000000 268.000000"
 preserveAspectRatio="xMidYMid meet">

<g transform="translate(0.000000,268.000000) scale(0.100000,-0.100000)"
fill="#000000" stroke="none">
<path d="M237 2524 c-4 -4 -7 -128 -7 -276 l0 -268 123 0 c150 0 196 17 234
90 21 39 23 56 23 179 0 122 -2 142 -22 181 -36 71 -82 91 -226 97 -65 2 -121
1 -125 -3z m237 -84 c47 -17 56 -46 59 -186 2 -111 -1 -133 -16 -156 -24 -34
-64 -48 -143 -48 l-64 0 0 200 0 200 69 0 c38 0 81 -4 95 -10z"/>
<path d="M863 2513 c-3 -10 -15 -40 -25 -68 -41 -106 -168 -453 -168 -459 0
-3 18 -6 39 -6 39 0 40 1 58 58 l20 57 94 3 c129 4 132 3 153 -63 17 -55 17
-55 57 -55 48 0 52 -23 -38 220 -36 96 -76 207 -90 245 -14 39 -31 73 -37 77
-20 14 -57 8 -63 -9z m82 -223 c19 -57 35 -108 35 -112 0 -4 -36 -8 -80 -8
-53 0 -80 4 -80 11 0 26 76 227 82 220 5 -4 24 -54 43 -111z"/>
<path d="M1228 2524 c-5 -4 -8 -128 -8 -276 l0 -268 40 0 40 0 0 115 0 116 57
-3 58 -3 56 -110 56 -110 47 -3 47 -3 -62 116 c-34 64 -60 117 -58 119 2 1 18
12 36 24 62 43 81 160 36 221 -44 58 -63 64 -205 69 -73 2 -136 1 -140 -4z
m265 -92 c36 -40 30 -107 -12 -139 -10 -7 -49 -12 -98 -13 l-83 0 0 85 0 85
88 0 c73 0 92 -3 105 -18z"/>
<path d="M1736 2523 c-3 -4 -6 -127 -6 -275 l0 -268 35 0 35 0 0 78 0 77 48
54 48 54 78 -131 78 -132 44 0 c24 0 44 3 44 6 0 3 -43 78 -96 166 l-95 160
42 52 c24 28 62 74 86 102 23 28 40 54 36 57 -13 14 -74 6 -90 -11 -10 -10
-61 -73 -113 -139 -52 -67 -98 -119 -102 -117 -4 3 -8 65 -8 138 l0 133 -29 1
c-16 0 -32 -2 -35 -5z"/>
<path d="M2237 2523 c-4 -3 -7 -127 -7 -275 l0 -268 40 0 40 0 2 173 3 172 47
-100 c80 -169 81 -170 108 -170 22 0 31 14 85 137 33 76 63 138 68 138 4 0 7
-79 7 -175 l0 -175 35 0 35 0 -2 273 -3 272 -30 0 c-34 0 -38 -7 -135 -223
-30 -67 -58 -121 -64 -119 -5 2 -41 75 -80 163 -39 87 -75 165 -79 172 -9 13
-59 17 -70 5z"/>
<path d="M2955 2523 c-36 -9 -87 -55 -106 -97 -15 -33 -19 -66 -19 -175 0
-117 3 -140 21 -179 76 -156 321 -123 358 48 16 72 14 218 -4 276 -16 54 -62
106 -108 123 -28 11 -105 13 -142 4z m133 -89 c38 -25 52 -73 52 -184 0 -152
-29 -200 -120 -200 -48 0 -79 19 -99 57 -18 35 -14 258 5 294 28 56 104 71
162 33z"/>
<path d="M3343 2524 c-10 -4 -13 -69 -13 -276 l0 -270 138 4 c134 3 140 4 175
31 60 46 71 76 75 212 2 71 -1 138 -7 162 -14 53 -55 101 -101 121 -35 15
-243 27 -267 16z m259 -103 l33 -29 3 -125 c5 -183 -19 -217 -158 -217 l-70 0
0 200 0 200 80 0 c74 0 82 -2 112 -29z"/>
<path d="M3840 2255 l0 -275 175 0 175 0 0 35 0 34 -137 3 -138 3 -3 77 -3 77
118 3 118 3 0 35 0 35 -117 3 -118 3 0 79 0 80 141 0 140 0 -3 38 -3 37 -172
2 -173 2 0 -274z"/>
<path d="M1300 1380 c-196 -35 -372 -167 -457 -340 -54 -111 -68 -174 -67
-295 1 -79 7 -117 27 -180 61 -187 215 -341 406 -407 l66 -23 935 0 935 0 66
23 c190 66 345 221 406 407 20 63 26 101 27 180 1 121 -13 184 -67 295 -72
148 -203 260 -377 322 l-65 23 -895 1 c-492 1 -915 -2 -940 -6z m255 -74 c267
-74 438 -308 422 -581 -24 -414 -468 -661 -836 -465 -80 43 -150 107 -200 183
-152 234 -123 517 73 713 73 73 139 114 236 145 68 22 233 25 305 5z m1080
-415 c97 -56 91 -228 -11 -276 -53 -25 -145 -17 -180 16 -73 67 -71 198 3 253
52 38 129 41 188 7z m350 -16 l0 -30 -67 -3 c-64 -3 -68 -4 -68 -27 0 -23 4
-24 63 -27 62 -3 62 -3 65 -35 l3 -33 -65 0 -66 0 0 -47 c0 -64 -9 -75 -56
-71 l-39 3 -3 140 c-1 76 0 145 3 152 3 11 31 13 117 11 l113 -3 0 -30z m280
0 l0 -30 -70 -5 c-63 -4 -70 -7 -73 -27 -3 -21 1 -22 65 -25 l68 -3 3 -32 3
-32 -68 -3 -68 -3 -3 -58 -3 -58 -42 3 -42 3 -3 153 -3 153 118 -3 118 -3 0
-30z"/>
<path d="M2507 832 c-12 -13 -17 -36 -17 -73 0 -59 12 -83 46 -93 63 -19 102
115 48 168 -21 21 -57 20 -77 -2z"/>
</g>
</svg>
