<?xml version="1.0" ?>
<!-- Uploaded to: SVG Repo, www.svgrepo.com, Generator: SVG Repo Mixer Tools -->
<svg width="800px" height="800px" viewBox="0 0 24 24" version="1.1" xml:space="preserve" xmlns="http://www.w3.org/2000/svg" xmlns:xlink="http://www.w3.org/1999/xlink">
<style type="text/css">
	.st0{opacity:0.2;fill:none;stroke:#000000;stroke-width:5.000000e-02;stroke-miterlimit:10;}
</style>
<g id="grid_system"/>
<g id="_icons">
<path d="M8.3,15.7C8.5,15.9,8.7,16,9,16s0.5-0.1,0.7-0.3l2.3-2.3l2.3,2.3c0.2,0.2,0.5,0.3,0.7,0.3s0.5-0.1,0.7-0.3   c0.4-0.4,0.4-1,0-1.4L13.4,12l2.3-2.3c0.4-0.4,0.4-1,0-1.4s-1-0.4-1.4,0L12,10.6L9.7,8.3c-0.4-0.4-1-0.4-1.4,0s-0.4,1,0,1.4   l2.3,2.3l-2.3,2.3C7.9,14.7,7.9,15.3,8.3,15.7z"/>
<path d="M12,21c5,0,9-4,9-9s-4-9-9-9s-9,4-9,9S7,21,12,21z M12,5c3.9,0,7,3.1,7,7s-3.1,7-7,7s-7-3.1-7-7S8.1,5,12,5z"/>
</g>
</svg>