<svg width="60" height="60" viewBox="0 0 60 60" fill="none" xmlns="http://www.w3.org/2000/svg">
<circle cx="30" cy="30" r="30" fill="#F8AA37"/>
<path d="M18 43.5V45.75C18 46.3875 17.808 46.9222 17.424 47.3542C17.04 47.7862 16.5653 48.0015 16 48H14C13.4333 48 12.958 47.784 12.574 47.352C12.19 46.92 11.9987 46.386 12 45.75V27.75L16.2 14.25C16.4 13.575 16.758 13.0312 17.274 12.6188C17.79 12.2063 18.3653 12 19 12H41C41.6333 12 42.2087 12.2063 42.726 12.6188C43.2433 13.0312 43.6013 13.575 43.8 14.25L48 27.75V45.75C48 46.3875 47.8087 46.9222 47.426 47.3542C47.0433 47.7862 46.568 48.0015 46 48H44C43.4333 48 42.958 47.784 42.574 47.352C42.19 46.92 41.9987 46.386 42 45.75V43.5H18ZM17.6 23.25H42.4L40.3 16.5H19.7L17.6 23.25ZM21 36.75C21.8333 36.75 22.542 36.4215 23.126 35.7645C23.71 35.1075 24.0013 34.311 24 33.375C24 32.4375 23.708 31.6402 23.124 30.9832C22.54 30.3262 21.832 29.9985 21 30C20.1667 30 19.458 30.3285 18.874 30.9855C18.29 31.6425 17.9987 32.439 18 33.375C18 34.3125 18.292 35.1097 18.876 35.7667C19.46 36.4237 20.168 36.7515 21 36.75ZM39 36.75C39.8333 36.75 40.542 36.4215 41.126 35.7645C41.71 35.1075 42.0013 34.311 42 33.375C42 32.4375 41.708 31.6402 41.124 30.9832C40.54 30.3262 39.832 29.9985 39 30C38.1667 30 37.458 30.3285 36.874 30.9855C36.29 31.6425 35.9987 32.439 36 33.375C36 34.3125 36.292 35.1097 36.876 35.7667C37.46 36.4237 38.168 36.7515 39 36.75Z" fill="white"/>
</svg>
