<svg id="svg" version="1.1" xmlns="http://www.w3.org/2000/svg" xmlns:xlink="http://www.w3.org/1999/xlink" width="400" height="400" viewBox="0, 0, 400,400">
    <g id="svgg">
    <path id="path0" d="M28.400 42.711 C 26.970 43.065,25.740 43.500,25.667 43.678 C 25.593 43.855,25.109 44.000,24.590 44.000 C 24.072 44.000,23.536 44.180,23.400 44.400 C 23.264 44.620,22.803 44.800,22.376 44.800 C 21.949 44.800,21.600 44.980,21.600 45.200 C 21.600 45.420,21.240 45.600,20.800 45.600 C 20.360 45.600,20.000 45.780,20.000 46.000 C 20.000 46.220,19.764 46.400,19.475 46.400 C 19.187 46.400,18.564 46.760,18.092 47.200 C 17.620 47.640,17.022 48.000,16.764 48.000 C 16.505 48.000,16.003 48.324,15.647 48.719 C 15.291 49.114,14.370 49.872,13.600 50.404 C 11.559 51.811,7.615 56.158,7.605 57.012 C 7.602 57.238,7.240 57.683,6.800 58.000 C 6.360 58.317,6.000 58.807,6.000 59.088 C 6.000 59.370,5.820 59.600,5.600 59.600 C 5.380 59.600,5.200 59.870,5.200 60.200 C 5.200 60.530,5.020 60.800,4.800 60.800 C 4.580 60.800,4.400 61.070,4.400 61.400 C 4.400 61.730,4.220 62.000,4.000 62.000 C 3.780 62.000,3.600 62.360,3.600 62.800 C 3.600 63.240,3.420 63.600,3.200 63.600 C 2.980 63.600,2.800 63.960,2.800 64.400 C 2.800 64.840,2.620 65.200,2.400 65.200 C 2.180 65.200,2.000 65.740,2.000 66.400 C 2.000 67.060,1.820 67.600,1.600 67.600 C 1.380 67.600,1.200 68.125,1.200 68.767 C 1.200 69.408,0.975 70.008,0.700 70.100 C -0.036 70.345,-0.036 329.655,0.700 329.900 C 0.975 329.992,1.200 330.592,1.200 331.233 C 1.200 331.875,1.380 332.400,1.600 332.400 C 1.820 332.400,2.000 332.940,2.000 333.600 C 2.000 334.260,2.180 334.800,2.400 334.800 C 2.620 334.800,2.800 335.160,2.800 335.600 C 2.800 336.040,2.980 336.400,3.200 336.400 C 3.420 336.400,3.600 336.760,3.600 337.200 C 3.600 337.640,3.780 338.000,4.000 338.000 C 4.220 338.000,4.400 338.270,4.400 338.600 C 4.400 338.930,4.580 339.200,4.800 339.200 C 5.020 339.200,5.200 339.470,5.200 339.800 C 5.200 340.130,5.380 340.400,5.600 340.400 C 5.820 340.400,6.000 340.630,6.000 340.912 C 6.000 341.193,6.360 341.683,6.800 342.000 C 7.240 342.317,7.600 342.762,7.600 342.988 C 7.601 343.215,8.006 343.871,8.500 344.448 C 8.995 345.024,9.850 346.024,10.400 346.671 C 10.950 347.317,12.210 348.466,13.200 349.223 C 14.189 349.980,15.291 350.915,15.647 351.300 C 16.003 351.685,16.505 352.000,16.764 352.000 C 17.022 352.000,17.620 352.360,18.092 352.800 C 18.564 353.240,19.187 353.600,19.475 353.600 C 19.764 353.600,20.000 353.780,20.000 354.000 C 20.000 354.220,20.265 354.400,20.588 354.400 C 20.911 354.400,21.817 354.760,22.600 355.200 C 23.383 355.640,24.291 356.000,24.618 356.000 C 24.944 356.000,25.523 356.162,25.905 356.361 C 28.745 357.837,24.299 357.800,200.200 357.800 C 377.169 357.800,372.444 357.840,374.180 356.330 C 374.389 356.149,374.963 356.000,375.456 356.000 C 375.949 356.000,376.464 355.820,376.600 355.600 C 376.736 355.380,377.197 355.200,377.624 355.200 C 378.051 355.200,378.400 355.020,378.400 354.800 C 378.400 354.580,378.760 354.400,379.200 354.400 C 379.640 354.400,380.000 354.220,380.000 354.000 C 380.000 353.780,380.236 353.600,380.525 353.600 C 380.813 353.600,381.436 353.240,381.908 352.800 C 382.380 352.360,382.978 352.000,383.236 352.000 C 383.495 352.000,383.997 351.676,384.353 351.281 C 384.709 350.886,385.630 350.128,386.400 349.596 C 388.441 348.189,392.385 343.842,392.395 342.988 C 392.398 342.762,392.760 342.317,393.200 342.000 C 393.640 341.683,394.000 341.193,394.000 340.912 C 394.000 340.630,394.180 340.400,394.400 340.400 C 394.620 340.400,394.800 340.130,394.800 339.800 C 394.800 339.470,394.980 339.200,395.200 339.200 C 395.420 339.200,395.600 338.930,395.600 338.600 C 395.600 338.270,395.780 338.000,396.000 338.000 C 396.220 338.000,396.400 337.640,396.400 337.200 C 396.400 336.760,396.580 336.400,396.800 336.400 C 397.020 336.400,397.200 336.040,397.200 335.600 C 397.200 335.160,397.380 334.800,397.600 334.800 C 397.820 334.800,398.000 334.260,398.000 333.600 C 398.000 332.940,398.180 332.400,398.400 332.400 C 398.620 332.400,398.800 331.875,398.800 331.233 C 398.800 330.592,399.025 329.992,399.300 329.900 C 400.036 329.655,400.036 70.345,399.300 70.100 C 399.025 70.008,398.800 69.408,398.800 68.767 C 398.800 68.125,398.620 67.600,398.400 67.600 C 398.180 67.600,398.000 67.060,398.000 66.400 C 398.000 65.740,397.820 65.200,397.600 65.200 C 397.380 65.200,397.200 64.840,397.200 64.400 C 397.200 63.960,397.020 63.600,396.800 63.600 C 396.580 63.600,396.400 63.240,396.400 62.800 C 396.400 62.360,396.220 62.000,396.000 62.000 C 395.780 62.000,395.600 61.730,395.600 61.400 C 395.600 61.070,395.420 60.800,395.200 60.800 C 394.980 60.800,394.800 60.530,394.800 60.200 C 394.800 59.870,394.620 59.600,394.400 59.600 C 394.180 59.600,394.000 59.370,394.000 59.088 C 394.000 58.807,393.640 58.317,393.200 58.000 C 392.760 57.683,392.398 57.238,392.395 57.012 C 392.385 56.158,388.441 51.811,386.400 50.404 C 385.630 49.872,384.709 49.114,384.353 48.719 C 383.997 48.324,383.495 48.000,383.236 48.000 C 382.978 48.000,382.380 47.640,381.908 47.200 C 381.436 46.760,380.813 46.400,380.525 46.400 C 380.236 46.400,380.000 46.220,380.000 46.000 C 380.000 45.780,379.640 45.600,379.200 45.600 C 378.760 45.600,378.400 45.420,378.400 45.200 C 378.400 44.980,378.051 44.800,377.624 44.800 C 377.197 44.800,376.736 44.620,376.600 44.400 C 376.464 44.180,375.913 44.000,375.376 44.000 C 374.839 44.000,374.400 43.859,374.400 43.686 C 374.400 42.249,368.737 41.986,337.959 41.993 L 307.718 42.000 306.359 42.910 C 305.612 43.410,304.822 44.220,304.605 44.710 C 304.388 45.199,304.073 45.600,303.905 45.600 C 303.737 45.600,303.600 45.960,303.600 46.400 C 303.600 46.840,303.420 47.200,303.200 47.200 C 302.708 47.200,302.665 49.469,303.151 49.770 C 303.344 49.889,303.705 50.795,303.954 51.783 C 304.486 53.895,306.456 56.297,308.281 57.060 C 309.322 57.494,314.633 57.601,335.487 57.603 C 351.021 57.605,362.441 57.769,364.000 58.012 C 376.058 59.894,383.849 68.828,384.310 81.300 L 384.484 86.000 200.042 86.000 L 15.600 86.000 15.614 82.100 C 15.661 69.430,23.699 59.932,36.000 58.012 C 37.710 57.745,74.940 57.605,144.716 57.603 C 248.052 57.600,250.871 57.580,252.316 56.843 C 254.472 55.742,256.400 53.150,256.400 51.351 C 256.400 50.973,256.699 50.333,257.063 49.930 C 258.243 48.626,256.312 44.266,253.904 42.798 C 252.064 41.676,32.917 41.592,28.400 42.711 M275.159 42.910 C 274.412 43.410,273.622 44.220,273.405 44.710 C 273.188 45.199,272.873 45.600,272.705 45.600 C 272.537 45.600,272.400 45.960,272.400 46.400 C 272.400 46.840,272.220 47.200,272.000 47.200 C 271.404 47.200,271.517 48.949,272.198 50.254 C 272.526 50.884,272.796 51.718,272.798 52.106 C 272.801 53.176,274.393 55.380,275.916 56.423 C 280.160 59.331,287.600 56.167,287.600 51.454 C 287.600 50.928,287.870 50.274,288.200 50.000 C 288.878 49.437,289.006 47.775,288.400 47.400 C 288.180 47.264,288.000 46.865,288.000 46.514 C 288.000 42.771,279.098 40.273,275.159 42.910 M384.400 199.997 L 384.400 298.394 308.300 298.497 C 234.184 298.597,232.160 298.620,230.654 299.368 C 224.956 302.196,225.159 310.412,230.993 313.155 L 232.791 314.000 308.638 314.000 L 384.484 314.000 384.310 318.700 C 383.849 331.172,376.058 340.106,364.000 341.988 C 360.173 342.585,39.745 342.553,35.877 341.955 C 32.100 341.371,29.137 340.242,26.238 338.283 C 19.038 333.416,15.647 326.910,15.614 317.900 L 15.600 314.000 94.351 314.000 C 182.047 314.000,174.694 314.253,177.353 311.147 C 180.597 307.357,179.468 301.783,174.979 299.428 L 173.400 298.600 94.500 298.497 L 15.600 298.394 15.600 199.997 L 15.600 101.600 200.000 101.600 L 384.400 101.600 384.400 199.997 M50.400 117.634 C 39.893 120.348,33.724 126.623,31.754 136.600 C 31.049 140.170,30.929 221.535,31.623 225.427 C 33.386 235.312,39.893 242.264,49.600 244.634 C 53.774 245.653,137.965 245.428,141.849 244.387 C 148.793 242.526,154.189 238.053,157.063 231.774 C 159.226 227.050,159.170 228.383,159.186 181.145 L 159.200 137.291 158.270 134.081 C 155.823 125.632,149.264 119.639,140.400 117.753 C 137.343 117.103,52.889 116.991,50.400 117.634 M179.800 124.199 C 174.032 126.766,173.733 135.257,179.315 137.959 C 181.080 138.813,181.128 138.815,211.673 138.707 L 242.263 138.600 243.735 137.477 C 248.289 134.003,247.695 126.837,242.657 124.469 C 240.345 123.382,182.196 123.133,179.800 124.199 M268.012 124.045 C 262.208 126.361,261.219 133.383,266.137 137.358 L 267.674 138.600 298.766 138.600 L 329.859 138.600 331.250 137.646 C 336.223 134.239,335.555 126.463,330.093 124.181 C 328.404 123.475,269.762 123.347,268.012 124.045 M138.681 133.280 C 140.755 134.171,142.013 135.259,142.909 136.934 L 143.800 138.600 143.915 175.200 C 143.978 195.330,143.887 212.489,143.712 213.331 L 143.393 214.862 141.296 210.731 C 136.615 201.509,126.350 191.293,118.495 188.040 C 116.915 187.385,116.904 187.182,118.329 185.072 C 119.404 183.482,120.515 180.924,121.661 177.400 C 125.070 166.917,118.199 152.000,107.599 146.875 C 82.611 134.793,56.931 163.714,72.826 186.036 C 73.704 187.270,73.727 187.245,69.879 189.216 C 61.946 193.279,53.124 202.761,48.602 212.084 C 47.886 213.560,47.188 214.655,47.050 214.517 C 46.302 213.769,46.798 138.772,47.561 137.284 C 48.422 135.606,49.643 134.391,51.400 133.465 C 52.979 132.632,136.760 132.455,138.681 133.280 M98.040 159.640 C 110.042 163.519,109.787 179.430,97.677 182.245 C 90.852 183.831,83.600 178.036,83.600 170.996 C 83.600 163.731,91.493 157.523,98.040 159.640 M179.267 160.458 C 173.667 163.231,174.014 171.808,179.825 174.236 C 181.792 175.058,203.300 175.054,205.251 174.231 C 211.485 171.603,211.370 162.398,205.074 160.025 C 202.673 159.119,181.245 159.479,179.267 160.458 M264.200 161.441 C 263.760 161.533,262.410 161.808,261.200 162.052 C 255.529 163.198,249.168 168.221,246.512 173.650 C 245.428 175.867,243.594 182.518,240.605 195.078 L 240.396 195.955 238.157 194.778 C 229.717 190.338,222.231 200.475,229.150 206.975 C 230.759 208.487,230.757 208.498,228.420 211.054 C 226.189 213.495,224.290 217.077,223.400 220.520 C 222.474 224.101,222.514 258.275,223.447 260.120 C 225.496 264.176,226.580 264.561,236.600 264.800 L 245.000 265.000 245.212 268.247 C 245.787 277.080,254.168 279.440,259.575 272.293 C 259.870 271.903,260.221 270.103,260.355 268.293 L 260.600 265.000 291.400 265.000 L 322.200 265.000 322.445 268.293 C 322.579 270.103,322.930 271.903,323.225 272.293 C 328.632 279.440,337.013 277.080,337.588 268.247 L 337.800 265.000 346.200 264.800 C 356.220 264.561,357.304 264.176,359.353 260.120 C 360.270 258.305,360.319 223.836,359.410 220.418 C 358.517 217.064,356.568 213.448,354.336 211.006 L 352.311 208.791 353.769 207.011 C 359.990 199.420,353.177 190.288,344.643 194.778 L 342.404 195.955 342.200 195.078 C 336.444 170.328,333.571 165.584,322.200 162.061 C 320.302 161.473,266.795 160.901,264.200 161.441 M320.263 178.226 C 321.108 178.900,322.126 180.106,322.524 180.906 C 323.592 183.054,328.525 203.342,328.086 203.781 C 327.965 203.901,311.427 204.000,291.333 204.000 L 254.800 204.000 254.800 203.045 C 254.800 199.142,260.149 180.303,261.648 178.927 C 264.076 176.698,262.746 176.787,291.863 176.898 L 318.726 177.000 320.263 178.226 M181.600 195.574 C 174.065 197.095,172.919 207.267,179.949 210.231 C 182.059 211.121,203.535 211.055,205.320 210.153 C 212.293 206.630,211.195 197.359,203.600 195.629 C 201.601 195.174,183.804 195.130,181.600 195.574 M102.400 198.863 C 116.835 201.731,130.825 216.427,131.186 229.100 C 131.197 229.496,123.772 229.600,95.355 229.600 L 59.509 229.600 59.790 227.728 C 62.653 208.633,82.820 194.972,102.400 198.863 M341.504 220.398 C 344.364 222.142,344.397 222.325,344.399 236.500 L 344.400 249.200 291.400 249.200 L 238.400 249.200 238.401 236.500 C 238.403 222.325,238.436 222.142,241.296 220.398 C 243.345 219.149,339.455 219.149,341.504 220.398 M253.197 226.756 C 249.290 228.013,247.420 230.502,247.408 234.463 C 247.381 243.265,260.114 244.890,262.406 236.378 C 263.896 230.843,258.387 225.087,253.197 226.756 M325.997 226.756 C 317.166 229.597,318.634 241.800,327.808 241.800 C 337.640 241.800,338.314 227.861,328.542 226.628 C 327.694 226.521,326.549 226.579,325.997 226.756 M38.200 261.387 C 37.980 261.466,37.300 261.640,36.690 261.775 C 31.783 262.859,29.814 270.242,33.404 274.096 C 35.822 276.692,34.943 276.600,57.400 276.600 L 77.800 276.600 79.400 275.681 C 84.683 272.648,84.496 265.064,79.064 262.092 C 77.903 261.456,39.847 260.801,38.200 261.387 M113.800 261.388 C 113.580 261.466,112.919 261.636,112.331 261.765 C 109.682 262.347,107.200 265.846,107.200 269.000 C 107.200 272.126,109.594 275.532,112.331 276.300 C 113.726 276.692,152.674 276.692,154.069 276.300 C 160.256 274.565,160.862 265.296,155.000 262.062 C 153.897 261.454,115.385 260.823,113.800 261.388 M200.600 298.862 C 193.707 301.388,193.386 310.579,200.093 313.381 C 205.583 315.675,211.093 311.060,210.245 304.877 C 209.663 300.633,204.521 297.426,200.600 298.862 " stroke="none" fill="#040404" fill-rule="evenodd"></path><path id="path1" d="M16.000 200.000 L 16.000 298.000 94.300 298.002 C 148.654 298.004,173.071 298.135,174.141 298.432 C 176.414 299.064,178.879 301.725,179.576 304.300 L 180.145 306.400 187.261 306.400 L 194.378 306.400 195.009 304.227 C 196.669 298.518,203.130 296.216,207.643 299.725 C 209.527 301.190,211.200 303.950,211.200 305.595 C 211.200 306.372,211.451 306.400,218.336 306.400 L 225.472 306.400 225.936 305.381 C 226.191 304.821,226.400 304.084,226.400 303.743 C 226.400 303.147,227.640 301.150,228.671 300.088 C 230.813 297.879,225.483 298.018,308.300 298.009 L 384.000 298.000 384.000 200.000 L 384.000 102.000 200.000 102.000 L 16.000 102.000 16.000 200.000 M143.000 117.720 C 151.259 120.694,156.362 126.102,159.145 134.828 C 159.793 136.861,159.793 225.539,159.145 227.572 C 157.553 232.565,155.711 235.840,152.961 238.568 C 151.301 240.215,149.600 241.600,149.237 241.600 C 149.033 241.600,148.807 241.735,148.733 241.900 C 148.488 242.451,144.210 244.359,141.400 245.171 C 139.557 245.703,50.676 245.588,48.600 245.050 C 47.472 244.758,46.850 244.523,44.400 243.459 C 38.330 240.823,32.815 233.794,31.383 226.869 C 30.379 222.016,30.705 136.717,31.739 133.600 C 33.297 128.906,39.448 120.800,41.453 120.800 C 41.754 120.800,42.000 120.645,42.000 120.455 C 42.000 120.020,46.279 118.084,48.742 117.405 C 52.080 116.484,140.389 116.780,143.000 117.720 M243.037 124.021 C 248.907 127.318,248.993 134.898,243.200 138.360 C 241.019 139.664,181.281 139.681,178.963 138.379 C 173.289 135.192,173.229 127.344,178.854 124.046 C 181.007 122.784,240.793 122.760,243.037 124.021 M330.479 123.700 C 336.792 127.338,336.806 135.178,330.505 138.700 C 329.020 139.530,268.556 139.416,266.880 138.580 C 261.377 135.835,260.981 128.007,266.168 124.500 L 268.090 123.200 298.851 123.200 C 322.729 123.200,329.805 123.312,330.479 123.700 M206.237 160.021 C 211.968 163.240,211.968 171.160,206.237 174.379 C 203.982 175.646,181.218 175.646,178.963 174.379 C 173.289 171.192,173.229 163.344,178.854 160.046 C 180.973 158.803,204.032 158.782,206.237 160.021 M93.400 160.000 C 93.264 160.220,92.623 160.400,91.976 160.400 C 91.329 160.400,90.800 160.580,90.800 160.800 C 90.800 161.020,90.555 161.200,90.256 161.200 C 89.156 161.200,86.110 164.374,85.215 166.453 C 81.995 173.940,87.956 182.485,96.006 181.918 C 105.722 181.234,109.827 169.331,102.635 162.697 C 100.196 160.447,94.205 158.697,93.400 160.000 M321.923 161.472 C 327.648 162.898,334.153 168.033,336.546 173.015 C 337.176 174.327,337.851 175.713,338.046 176.095 C 338.241 176.477,338.400 177.231,338.400 177.771 C 338.400 178.311,338.580 178.864,338.800 179.000 C 339.020 179.136,339.200 179.856,339.200 180.600 C 339.200 181.344,339.361 182.052,339.558 182.174 C 339.755 182.295,340.010 183.071,340.125 183.897 C 340.240 184.724,340.530 186.165,340.767 187.100 C 341.889 191.507,342.072 192.287,342.273 193.504 C 342.539 195.115,343.012 195.445,343.851 194.606 C 344.206 194.251,345.018 193.856,345.657 193.729 C 346.295 193.601,346.914 193.340,347.032 193.148 C 347.556 192.301,350.921 193.041,353.446 194.559 C 357.637 197.080,357.900 204.146,353.933 207.647 C 352.957 208.509,352.988 208.661,354.500 210.389 C 355.215 211.206,356.070 212.219,356.400 212.641 C 357.502 214.049,359.600 218.501,359.600 219.433 C 359.600 219.939,359.780 220.464,360.000 220.600 C 360.634 220.992,360.538 259.364,359.900 260.505 C 357.569 264.676,356.063 265.200,346.416 265.200 L 338.400 265.200 338.400 267.254 C 338.400 270.088,337.710 272.127,336.125 273.979 C 330.784 280.219,321.600 275.937,321.600 267.206 L 321.600 265.200 291.400 265.200 L 261.200 265.200 261.200 267.206 C 261.200 272.760,257.691 276.800,252.867 276.800 C 247.860 276.800,244.422 272.941,244.406 267.300 L 244.400 265.200 236.384 265.200 C 226.737 265.200,225.231 264.676,222.900 260.505 C 222.262 259.364,222.166 220.992,222.800 220.600 C 223.020 220.464,223.200 219.939,223.200 219.433 C 223.200 218.501,225.298 214.049,226.400 212.641 C 226.730 212.219,227.585 211.206,228.300 210.389 C 229.880 208.583,229.877 208.683,228.400 207.137 C 227.740 206.446,227.200 205.638,227.200 205.341 C 227.200 205.043,227.061 204.800,226.891 204.800 C 225.490 204.800,225.811 199.125,227.359 196.554 C 228.806 194.149,234.869 191.694,235.768 193.148 C 235.886 193.340,236.505 193.601,237.143 193.729 C 237.782 193.856,238.594 194.251,238.949 194.606 C 239.788 195.445,240.261 195.115,240.527 193.504 C 240.726 192.301,240.918 191.480,241.982 187.300 C 243.056 183.078,243.282 182.079,243.475 180.697 C 243.590 179.871,243.845 179.095,244.042 178.974 C 244.239 178.852,244.400 178.311,244.400 177.771 C 244.400 177.231,244.559 176.477,244.753 176.095 C 244.948 175.713,245.348 174.860,245.643 174.200 C 246.678 171.882,249.167 168.504,251.161 166.711 C 252.882 165.164,254.220 164.378,259.295 161.934 C 259.677 161.750,260.397 161.597,260.895 161.594 C 261.393 161.591,262.070 161.412,262.400 161.197 C 263.251 160.643,319.640 160.903,321.923 161.472 M206.358 196.031 C 212.055 199.504,211.767 207.663,205.842 210.619 C 203.756 211.660,180.879 211.455,178.963 210.379 C 173.287 207.191,173.222 199.457,178.842 196.031 C 180.943 194.750,204.257 194.750,206.358 196.031 M79.088 261.639 C 84.483 264.632,85.567 270.499,81.501 274.700 C 80.809 275.415,80.023 276.000,79.755 276.000 C 79.486 276.000,79.192 276.225,79.100 276.500 C 78.969 276.892,74.304 277.000,57.567 277.000 L 36.200 277.000 34.727 276.004 C 29.305 272.336,29.754 264.958,35.600 261.649 C 37.849 260.376,76.796 260.367,79.088 261.639 M155.200 261.734 C 160.190 264.260,161.150 270.951,157.092 274.926 C 154.931 277.044,155.432 277.000,133.200 277.000 C 110.490 277.000,111.529 277.106,108.903 274.513 C 108.186 273.806,107.600 272.961,107.600 272.637 C 107.600 272.313,107.420 271.936,107.200 271.800 C 105.045 270.468,107.839 263.435,111.200 261.734 L 113.000 260.823 133.200 260.823 L 153.400 260.823 155.200 261.734 " stroke="none" fill="#f9fbfb" fill-rule="evenodd"></path><path id="path2" d="M271.600 49.717 C 271.600 50.045,272.478 52.626,272.921 53.600 C 273.452 54.769,275.900 57.200,276.545 57.200 C 276.789 57.200,276.436 56.808,275.761 56.328 C 274.174 55.200,272.997 53.381,272.647 51.514 C 272.430 50.355,271.600 48.930,271.600 49.717 M303.305 51.303 C 303.771 53.195,304.850 54.948,306.381 56.300 C 308.122 57.836,307.983 57.288,306.173 55.478 C 304.974 54.279,304.307 53.183,303.976 51.871 C 303.715 50.835,303.363 49.901,303.194 49.796 C 303.025 49.692,303.075 50.370,303.305 51.303 M256.692 50.242 C 256.531 50.402,256.405 50.908,256.412 51.367 C 256.423 52.136,256.456 52.145,256.840 51.485 C 257.288 50.716,257.173 49.760,256.692 50.242 M287.900 50.231 C 287.735 50.397,287.605 50.998,287.612 51.567 C 287.623 52.473,287.675 52.513,288.039 51.887 C 288.495 51.105,288.381 49.746,287.900 50.231 M255.810 53.167 C 255.420 54.396,254.030 55.961,252.665 56.708 C 251.477 57.358,244.857 57.412,144.400 57.601 L 37.400 57.803 144.239 57.901 C 240.358 57.990,251.203 57.937,252.328 57.376 C 253.716 56.683,256.400 53.752,256.400 52.928 C 256.400 52.158,256.091 52.283,255.810 53.167 M285.762 55.243 C 284.277 56.884,282.053 57.700,279.555 57.519 C 278.286 57.427,277.337 57.498,277.447 57.676 C 277.787 58.226,282.210 58.033,283.449 57.415 C 284.525 56.878,287.228 54.400,286.737 54.400 C 286.620 54.400,286.181 54.779,285.762 55.243 M308.662 57.700 C 308.764 57.865,320.942 57.959,335.724 57.909 C 350.506 57.860,359.270 57.770,355.200 57.711 C 336.387 57.436,308.494 57.430,308.662 57.700 M33.800 58.400 L 32.600 58.705 33.800 58.725 C 34.460 58.735,35.360 58.589,35.800 58.400 L 36.600 58.056 35.800 58.075 C 35.360 58.086,34.460 58.232,33.800 58.400 M364.200 58.400 C 364.640 58.589,365.540 58.735,366.200 58.725 L 367.400 58.705 366.200 58.400 C 365.540 58.232,364.640 58.086,364.200 58.075 L 363.400 58.056 364.200 58.400 M30.200 59.481 C 26.233 61.067,18.798 67.548,18.821 69.400 C 18.823 69.620,19.087 69.440,19.406 69.000 C 22.579 64.630,25.413 62.228,30.095 59.939 C 30.477 59.753,31.051 59.600,31.371 59.600 C 31.691 59.600,32.064 59.420,32.200 59.200 C 32.533 58.661,32.097 58.722,30.200 59.481 M367.774 59.157 C 367.924 59.401,368.291 59.600,368.589 59.600 C 370.810 59.600,377.794 64.975,380.542 68.800 C 381.246 69.779,381.246 69.774,380.569 68.600 C 379.255 66.319,377.478 64.335,375.327 62.746 C 372.225 60.455,367.058 58.000,367.774 59.157 M17.167 72.645 C 16.150 75.224,15.628 78.404,15.614 82.100 L 15.600 86.000 200.042 86.000 L 384.484 86.000 384.293 81.300 C 384.189 78.715,383.886 75.908,383.622 75.062 C 382.906 72.772,382.811 73.450,383.434 76.400 C 383.736 77.830,383.987 80.485,383.992 82.300 L 384.000 85.600 199.944 85.600 L 15.888 85.600 16.096 81.100 C 16.235 78.083,16.573 75.811,17.122 74.204 C 17.958 71.758,17.992 70.551,17.167 72.645 M139.600 117.600 C 140.968 118.038,142.019 118.038,141.000 117.600 C 140.560 117.411,139.840 117.262,139.400 117.268 C 138.757 117.277,138.796 117.343,139.600 117.600 M196.070 123.500 C 204.139 123.560,217.459 123.560,225.670 123.500 C 233.882 123.439,227.280 123.390,211.000 123.390 C 194.720 123.390,188.002 123.439,196.070 123.500 M284.100 123.500 C 292.185 123.560,305.415 123.560,313.500 123.500 C 321.585 123.439,314.970 123.390,298.800 123.390 C 282.630 123.390,276.015 123.439,284.100 123.500 M246.909 131.200 C 246.909 132.190,246.987 132.595,247.082 132.100 C 247.178 131.605,247.178 130.795,247.082 130.300 C 246.987 129.805,246.909 130.210,246.909 131.200 M174.901 131.400 C 174.905 132.280,174.987 132.593,175.083 132.095 C 175.179 131.598,175.175 130.878,175.075 130.495 C 174.975 130.113,174.896 130.520,174.901 131.400 M51.400 133.465 C 49.643 134.391,48.422 135.606,47.561 137.284 C 46.766 138.834,46.317 214.054,47.100 214.538 C 47.265 214.640,47.352 197.735,47.294 176.970 L 47.188 139.217 48.054 137.374 C 48.601 136.212,49.515 135.138,50.531 134.466 L 52.142 133.400 95.433 133.400 C 119.243 133.400,138.516 133.268,138.262 133.106 C 137.211 132.438,52.686 132.786,51.400 133.465 M140.849 135.201 C 141.775 136.081,142.620 136.714,142.727 136.606 C 142.978 136.355,140.070 133.600,139.555 133.600 C 139.341 133.600,139.924 134.320,140.849 135.201 M31.456 136.084 C 31.321 136.588,31.227 137.360,31.246 137.800 C 31.265 138.240,31.445 137.898,31.646 137.040 C 32.036 135.378,31.870 134.540,31.456 136.084 M142.812 137.600 C 142.812 137.930,142.987 138.470,143.200 138.800 C 143.545 139.333,143.588 139.333,143.588 138.800 C 143.588 138.470,143.413 137.930,143.200 137.600 C 142.855 137.067,142.812 137.067,142.812 137.600 M159.393 181.200 C 159.393 205.070,159.441 214.835,159.500 202.900 C 159.559 190.965,159.559 171.435,159.500 159.500 C 159.441 147.565,159.393 157.330,159.393 181.200 M180.538 138.894 C 180.792 139.056,194.590 139.149,211.200 139.102 C 227.810 139.055,237.620 138.969,233.000 138.910 C 211.748 138.638,180.121 138.629,180.538 138.894 M283.700 139.100 C 292.005 139.160,305.595 139.160,313.900 139.100 C 322.205 139.039,315.410 138.990,298.800 138.990 C 282.190 138.990,275.395 139.039,283.700 139.100 M143.792 177.000 C 143.792 196.800,143.840 204.841,143.900 194.870 C 143.959 184.898,143.959 168.698,143.900 158.870 C 143.840 149.041,143.792 157.200,143.792 177.000 M89.738 143.906 C 89.484 144.068,91.941 144.200,95.199 144.200 C 98.457 144.200,100.915 144.068,100.661 143.906 C 100.060 143.523,90.340 143.523,89.738 143.906 M86.800 144.800 C 86.005 145.314,87.004 145.314,88.200 144.800 L 89.000 144.456 88.200 144.434 C 87.760 144.422,87.130 144.587,86.800 144.800 M101.633 144.544 C 102.105 144.950,104.043 145.193,103.810 144.816 C 103.668 144.587,103.083 144.400,102.510 144.400 C 101.936 144.400,101.542 144.465,101.633 144.544 M107.600 146.866 C 110.375 148.219,111.648 149.179,114.527 152.087 C 118.033 155.628,118.827 155.860,115.527 152.379 C 112.332 149.009,106.598 145.191,104.751 145.204 C 104.448 145.206,105.730 145.954,107.600 146.866 M79.600 148.370 C 77.625 149.743,75.177 152.143,73.038 154.805 C 66.602 162.814,66.157 176.690,72.056 185.446 L 73.164 187.092 71.282 188.033 C 64.954 191.196,58.000 197.138,53.338 203.369 C 51.390 205.973,47.579 212.687,47.618 213.448 C 47.627 213.642,48.005 213.080,48.456 212.200 C 53.489 202.392,62.016 193.243,69.879 189.216 C 73.727 187.245,73.704 187.270,72.826 186.036 C 64.464 174.293,67.950 156.681,80.254 148.512 C 81.434 147.728,82.400 147.022,82.400 146.943 C 82.400 146.568,81.620 146.966,79.600 148.370 M119.047 158.016 C 119.626 159.125,120.190 159.943,120.299 159.834 C 120.507 159.626,118.503 156.000,118.179 156.000 C 118.076 156.000,118.467 156.907,119.047 158.016 M94.100 159.487 C 94.705 159.578,95.695 159.578,96.300 159.487 C 96.905 159.395,96.410 159.320,95.200 159.320 C 93.990 159.320,93.495 159.395,94.100 159.487 M186.924 159.499 C 190.183 159.567,195.403 159.566,198.524 159.499 C 201.646 159.431,198.980 159.376,192.600 159.377 C 186.220 159.377,183.666 159.432,186.924 159.499 M120.406 160.433 C 120.431 161.151,121.960 165.219,121.972 164.600 C 121.989 163.724,121.111 160.978,120.674 160.541 C 120.523 160.390,120.403 160.342,120.406 160.433 M206.400 160.525 C 206.400 160.594,206.985 161.179,207.700 161.825 L 209.000 163.000 207.825 161.700 C 206.730 160.488,206.400 160.216,206.400 160.525 M86.975 162.900 L 85.800 164.200 87.100 163.025 C 88.312 161.930,88.584 161.600,88.275 161.600 C 88.206 161.600,87.621 162.185,86.975 162.900 M122.199 170.774 C 122.200 173.606,122.332 175.715,122.494 175.461 C 122.861 174.885,122.842 167.247,122.471 166.313 C 122.321 165.935,122.199 167.943,122.199 170.774 M174.909 167.200 C 174.909 168.190,174.987 168.595,175.082 168.100 C 175.178 167.605,175.178 166.795,175.082 166.300 C 174.987 165.805,174.909 166.210,174.909 167.200 M250.378 167.900 L 249.000 169.400 250.500 168.022 C 251.896 166.738,252.184 166.400,251.878 166.400 C 251.812 166.400,251.137 167.075,250.378 167.900 M332.000 167.800 C 332.746 168.570,333.447 169.200,333.557 169.200 C 333.667 169.200,333.146 168.570,332.400 167.800 C 331.654 167.030,330.953 166.400,330.843 166.400 C 330.733 166.400,331.254 167.030,332.000 167.800 M83.852 168.500 C 83.517 169.751,83.551 172.905,83.906 173.460 C 84.068 173.713,84.200 172.498,84.200 170.760 C 84.200 167.259,84.194 167.223,83.852 168.500 M187.124 175.099 C 190.273 175.167,195.313 175.167,198.324 175.099 C 201.336 175.031,198.760 174.976,192.600 174.976 C 186.440 174.976,183.976 175.032,187.124 175.099 M121.429 177.829 C 121.281 178.415,121.251 178.984,121.361 179.094 C 121.471 179.204,121.681 178.815,121.829 178.229 C 121.976 177.642,122.006 177.073,121.896 176.963 C 121.786 176.853,121.576 177.242,121.429 177.829 M264.100 177.208 C 262.848 177.717,262.965 178.070,264.226 177.590 C 265.692 177.033,317.193 177.066,318.674 177.625 C 319.603 177.976,319.709 177.958,319.280 177.525 C 318.652 176.891,265.630 176.586,264.100 177.208 M103.178 179.100 L 101.800 180.600 103.300 179.222 C 104.125 178.463,104.800 177.788,104.800 177.722 C 104.800 177.416,104.462 177.704,103.178 179.100 M261.375 179.300 L 260.200 180.600 261.500 179.425 C 262.215 178.779,262.800 178.194,262.800 178.125 C 262.800 177.816,262.470 178.088,261.375 179.300 M320.000 178.125 C 320.000 178.194,320.585 178.779,321.300 179.425 L 322.600 180.600 321.425 179.300 C 320.330 178.088,320.000 177.816,320.000 178.125 M120.286 181.217 C 119.914 182.166,119.686 183.019,119.781 183.114 C 120.024 183.358,121.246 180.338,121.091 179.874 C 121.021 179.664,120.659 180.268,120.286 181.217 M259.457 182.700 C 259.348 183.085,259.155 184.030,259.028 184.800 C 258.738 186.549,259.360 185.221,259.730 183.300 C 259.993 181.934,259.795 181.499,259.457 182.700 M322.922 182.600 C 323.044 183.040,323.452 184.710,323.828 186.310 C 324.205 187.911,324.588 189.145,324.679 189.054 C 324.899 188.834,323.330 182.392,322.976 182.059 C 322.824 181.916,322.800 182.160,322.922 182.600 M118.259 185.183 C 116.914 187.216,116.928 187.390,118.495 188.040 C 122.959 189.889,131.357 196.722,136.141 202.400 C 137.322 203.800,137.456 203.889,136.747 202.800 C 135.571 200.994,128.671 193.933,127.273 193.105 C 126.683 192.755,125.660 192.004,125.000 191.435 C 124.340 190.866,123.575 190.401,123.300 190.400 C 123.025 190.400,122.800 190.241,122.800 190.047 C 122.800 189.852,122.485 189.590,122.100 189.464 C 121.543 189.282,118.089 187.369,117.711 187.034 C 117.661 186.990,118.082 186.276,118.646 185.446 C 119.210 184.617,119.591 183.858,119.494 183.761 C 119.397 183.663,118.841 184.304,118.259 185.183 M258.250 187.650 C 257.917 189.317,258.240 189.640,258.600 188.000 C 258.752 187.309,258.793 186.659,258.691 186.558 C 258.589 186.456,258.391 186.947,258.250 187.650 M257.649 190.000 C 257.616 190.330,257.489 191.050,257.367 191.600 C 257.175 192.464,257.207 192.503,257.599 191.888 C 257.848 191.497,257.975 190.777,257.881 190.288 C 257.786 189.800,257.682 189.670,257.649 190.000 M324.868 190.200 C 324.862 190.640,325.011 191.360,325.200 191.800 C 325.638 192.819,325.638 191.768,325.200 190.400 C 324.943 189.596,324.877 189.557,324.868 190.200 M256.854 193.467 C 256.825 193.944,256.696 194.664,256.570 195.067 C 256.352 195.761,256.364 195.762,256.796 195.088 C 257.047 194.697,257.175 193.977,257.081 193.488 C 256.909 192.601,256.909 192.601,256.854 193.467 M325.646 193.600 C 325.627 194.150,325.787 194.870,326.000 195.200 C 326.494 195.964,326.494 195.142,326.000 193.600 L 325.680 192.600 325.646 193.600 M228.406 195.794 C 227.663 196.561,227.132 197.250,227.227 197.325 C 227.322 197.400,228.006 196.773,228.746 195.931 C 230.429 194.018,230.212 193.931,228.406 195.794 M354.025 195.831 C 354.781 196.728,355.481 197.397,355.580 197.317 C 355.679 197.238,355.060 196.504,354.205 195.687 L 352.650 194.200 354.025 195.831 M202.433 195.343 C 202.525 195.421,203.230 195.601,204.000 195.742 C 204.985 195.923,205.222 195.882,204.800 195.606 C 204.258 195.250,202.037 195.003,202.433 195.343 M326.446 196.800 C 326.427 197.350,326.587 198.070,326.800 198.400 C 327.294 199.164,327.294 198.342,326.800 196.800 L 326.480 195.800 326.446 196.800 M256.046 196.867 C 256.021 197.234,255.896 197.864,255.770 198.267 C 255.552 198.962,255.563 198.963,255.997 198.287 C 256.248 197.896,256.373 197.266,256.273 196.887 C 256.111 196.268,256.088 196.266,256.046 196.867 M255.246 200.067 C 255.221 200.434,255.096 201.064,254.970 201.467 C 254.752 202.162,254.763 202.163,255.197 201.487 C 255.448 201.096,255.573 200.466,255.473 200.087 C 255.311 199.468,255.288 199.466,255.246 200.067 M327.206 200.233 C 327.209 200.655,327.395 201.270,327.618 201.600 C 327.915 202.038,327.952 201.876,327.756 201.000 C 327.427 199.529,327.198 199.210,327.206 200.233 M174.901 203.000 C 174.905 203.880,174.987 204.193,175.083 203.695 C 175.179 203.198,175.175 202.478,175.075 202.095 C 174.975 201.713,174.896 202.120,174.901 203.000 M291.400 203.600 L 254.600 203.806 291.276 203.903 C 315.401 203.967,328.037 203.863,328.200 203.600 C 328.336 203.380,328.392 203.244,328.324 203.297 C 328.256 203.350,311.640 203.487,291.400 203.600 M138.245 205.412 C 138.610 205.969,138.986 206.347,139.082 206.251 C 139.319 206.014,138.284 204.400,137.895 204.400 C 137.722 204.400,137.880 204.856,138.245 205.412 M227.200 205.064 C 227.200 205.200,227.920 206.092,228.800 207.046 C 229.680 208.001,230.400 208.671,230.400 208.536 C 230.400 208.400,229.680 207.508,228.800 206.554 C 227.920 205.599,227.200 204.929,227.200 205.064 M354.434 206.153 L 353.469 207.400 354.613 206.312 C 355.243 205.714,355.677 205.153,355.579 205.065 C 355.480 204.977,354.965 205.467,354.434 206.153 M141.330 210.789 C 142.445 212.982,143.433 214.701,143.526 214.607 C 143.620 214.513,143.024 213.123,142.202 211.518 C 141.380 209.913,140.503 208.196,140.253 207.703 C 140.004 207.210,139.689 206.805,139.552 206.803 C 139.416 206.801,140.216 208.595,141.330 210.789 M187.276 211.099 C 190.068 211.167,194.748 211.168,197.676 211.099 C 200.604 211.031,198.320 210.975,192.600 210.974 C 186.880 210.974,184.484 211.030,187.276 211.099 M241.296 220.398 C 238.436 222.142,238.403 222.325,238.401 236.500 L 238.400 249.200 291.400 249.200 L 344.400 249.200 344.399 236.500 C 344.397 222.325,344.364 222.142,341.504 220.398 C 339.455 219.149,243.345 219.149,241.296 220.398 M222.583 241.000 C 222.583 250.460,222.636 254.273,222.700 249.473 C 222.764 244.673,222.763 236.933,222.699 232.273 C 222.636 227.613,222.583 231.540,222.583 241.000 M360.183 241.000 C 360.183 250.460,360.236 254.273,360.300 249.473 C 360.364 244.673,360.363 236.933,360.299 232.273 C 360.236 227.613,360.183 231.540,360.183 241.000 M258.765 227.582 C 261.664 229.061,263.307 233.030,262.406 236.378 C 260.114 244.890,247.381 243.265,247.408 234.463 C 247.427 228.248,253.206 224.746,258.765 227.582 M331.342 227.449 C 336.688 230.112,336.951 237.163,331.848 240.974 C 329.950 242.391,325.325 242.164,323.337 240.558 C 315.913 234.557,322.839 223.214,331.342 227.449 M37.800 238.400 C 38.659 239.280,39.452 240.000,39.562 240.000 C 39.672 240.000,39.059 239.280,38.200 238.400 C 37.341 237.520,36.548 236.800,36.438 236.800 C 36.328 236.800,36.941 237.520,37.800 238.400 M33.375 263.700 L 32.200 265.000 33.500 263.825 C 34.712 262.730,34.984 262.400,34.675 262.400 C 34.606 262.400,34.021 262.985,33.375 263.700 M244.794 267.318 L 244.989 269.800 245.117 267.643 C 245.188 266.456,245.100 265.340,244.923 265.161 C 244.745 264.983,244.687 265.954,244.794 267.318 M260.564 265.351 C 260.447 265.654,260.411 266.779,260.484 267.851 L 260.615 269.800 260.808 267.299 C 261.002 264.773,260.949 264.347,260.564 265.351 M321.994 267.318 L 322.189 269.800 322.317 267.643 C 322.388 266.456,322.300 265.340,322.123 265.161 C 321.945 264.983,321.887 265.954,321.994 267.318 M337.764 265.351 C 337.647 265.654,337.611 266.779,337.684 267.851 L 337.815 269.800 338.008 267.299 C 338.202 264.773,338.149 264.347,337.764 265.351 M258.426 273.707 C 257.287 275.111,257.242 275.229,258.163 274.400 C 259.120 273.538,260.256 271.986,259.914 272.007 C 259.851 272.011,259.182 272.776,258.426 273.707 M323.114 272.600 C 323.341 273.040,324.038 273.849,324.663 274.399 L 325.800 275.397 324.603 273.999 C 322.707 271.782,322.680 271.758,323.114 272.600 M208.394 301.003 C 209.987 302.921,210.121 303.045,209.686 302.196 C 209.459 301.753,208.852 301.034,208.337 300.598 C 207.433 299.834,207.435 299.848,208.394 301.003 M179.264 306.274 C 179.179 308.486,178.717 309.611,177.169 311.374 C 174.675 314.215,181.442 314.000,94.351 314.000 L 15.600 314.000 15.614 317.900 C 15.628 321.596,16.150 324.776,17.167 327.355 C 17.992 329.449,17.958 328.242,17.122 325.796 C 16.573 324.189,16.235 321.917,16.096 318.900 L 15.888 314.400 94.495 314.400 C 181.651 314.400,174.688 314.620,177.445 311.781 C 178.957 310.224,179.741 308.017,179.497 306.000 C 179.333 304.641,179.326 304.649,179.264 306.274 M210.434 306.274 C 210.264 314.570,199.776 316.820,195.865 309.400 C 195.517 308.740,195.225 308.442,195.216 308.738 C 195.176 310.085,197.837 312.951,199.949 313.835 C 205.101 315.992,212.282 310.673,210.822 305.782 C 210.482 304.645,210.467 304.664,210.434 306.274 M226.409 308.538 C 226.399 309.355,227.713 311.397,228.981 312.535 C 231.159 314.491,227.303 314.400,308.249 314.400 L 384.000 314.400 383.992 317.700 C 383.987 319.515,383.736 322.170,383.434 323.600 C 382.811 326.550,382.906 327.228,383.622 324.938 C 383.886 324.092,384.189 321.285,384.293 318.700 L 384.484 314.000 308.691 314.000 C 226.954 314.000,231.790 314.123,229.050 311.968 C 228.417 311.470,227.566 310.329,227.159 309.431 C 226.749 308.529,226.414 308.130,226.409 308.538 M18.821 330.530 C 18.794 330.958,22.092 335.206,23.101 336.043 C 26.046 338.486,31.757 341.577,32.307 341.026 C 32.421 340.912,32.174 340.709,31.757 340.576 C 27.693 339.271,21.839 334.795,19.494 331.200 C 19.135 330.650,18.833 330.349,18.821 330.530 M380.198 331.500 C 378.040 334.919,372.308 339.270,368.243 340.576 C 367.826 340.709,367.579 340.912,367.693 341.026 C 368.492 341.825,376.121 337.165,378.319 334.535 C 379.856 332.696,381.392 330.400,381.085 330.400 C 380.979 330.400,380.580 330.895,380.198 331.500 M33.800 341.600 C 34.460 341.768,35.360 341.914,35.800 341.925 L 36.600 341.944 35.800 341.600 C 35.360 341.411,34.460 341.265,33.800 341.275 L 32.600 341.295 33.800 341.600 M364.200 341.600 L 363.400 341.944 364.200 341.925 C 364.640 341.914,365.540 341.768,366.200 341.600 L 367.400 341.295 366.200 341.275 C 365.540 341.265,364.640 341.411,364.200 341.600 M118.700 342.300 C 163.415 342.356,236.585 342.356,281.300 342.300 C 326.015 342.244,289.430 342.198,200.000 342.198 C 110.570 342.198,73.985 342.244,118.700 342.300 " stroke="none" fill="#4bbbf3" fill-rule="evenodd"></path><path id="path3" d="M91.800 198.426 C 76.192 199.637,62.063 212.570,59.790 227.728 L 59.509 229.600 95.355 229.600 C 123.772 229.600,131.197 229.496,131.186 229.100 C 131.120 226.809,129.083 220.856,127.112 217.200 C 120.130 204.244,106.975 197.250,91.800 198.426 " stroke="none" fill="#fbbb53" fill-rule="evenodd"></path><path id="path4" d="M256.795 51.618 C 256.168 53.921,254.146 56.503,252.275 57.391 C 251.149 57.925,238.402 58.011,143.400 58.126 C 84.220 58.198,35.170 58.391,34.400 58.555 C 33.021 58.850,32.578 59.002,30.200 59.993 C 21.269 63.718,16.029 71.954,16.007 82.300 L 16.000 85.600 200.000 85.600 L 384.000 85.600 383.993 82.300 C 383.970 71.274,378.488 63.444,367.800 59.174 C 365.786 58.370,362.540 58.260,336.800 58.129 C 307.773 57.981,308.279 58.014,306.168 56.123 C 304.828 54.921,303.732 53.090,303.341 51.400 L 302.971 49.800 295.685 49.691 C 288.756 49.587,288.400 49.619,288.400 50.342 C 288.400 54.087,284.185 58.000,280.151 58.000 C 276.087 58.000,273.416 55.740,271.997 51.100 L 271.538 49.600 264.441 49.600 L 257.345 49.600 256.795 51.618 M15.785 102.100 C 15.681 102.375,15.641 146.610,15.698 200.400 L 15.800 298.200 94.400 298.201 L 173.000 298.203 94.500 298.100 L 16.000 297.998 16.000 199.999 L 16.000 102.000 200.000 102.000 L 384.000 102.000 384.000 199.999 L 384.000 297.998 308.100 298.101 L 232.200 298.203 308.200 298.202 L 384.200 298.200 384.200 200.000 L 384.200 101.800 200.088 101.700 C 53.007 101.619,15.937 101.700,15.785 102.100 M48.742 117.408 C 46.494 118.024,42.000 120.004,42.000 120.379 C 42.000 120.527,43.192 120.070,44.648 119.363 C 48.678 117.405,46.950 117.479,95.000 117.228 L 140.200 116.992 95.400 116.945 C 60.264 116.909,50.199 117.009,48.742 117.408 M141.000 117.600 C 141.440 117.789,142.160 117.938,142.600 117.932 C 143.243 117.923,143.204 117.857,142.400 117.600 C 141.032 117.162,139.981 117.162,141.000 117.600 M144.800 118.697 C 145.130 118.825,146.210 119.373,147.200 119.915 C 148.190 120.456,148.820 120.714,148.600 120.487 C 147.969 119.838,145.226 118.397,144.688 118.432 C 144.407 118.450,144.454 118.562,144.800 118.697 M39.854 121.833 C 39.223 122.387,38.774 122.907,38.854 122.987 C 38.935 123.068,39.588 122.609,40.307 121.967 C 41.025 121.325,41.475 120.806,41.306 120.813 C 41.138 120.820,40.484 121.279,39.854 121.833 M149.400 121.062 C 152.011 123.619,154.796 125.960,153.200 124.256 C 152.210 123.200,150.860 121.960,150.200 121.503 C 149.540 121.045,149.180 120.847,149.400 121.062 M179.800 123.600 C 179.508 124.073,179.899 124.073,181.000 123.600 C 181.771 123.269,181.769 123.255,180.924 123.228 C 180.442 123.213,179.936 123.380,179.800 123.600 M267.100 123.829 C 266.495 124.157,266.000 124.516,266.000 124.627 C 266.000 124.738,266.394 124.617,266.877 124.359 C 267.359 124.101,268.214 123.750,268.777 123.579 C 269.577 123.336,269.626 123.265,269.000 123.250 C 268.560 123.240,267.705 123.501,267.100 123.829 M328.033 123.344 C 328.505 123.750,330.443 123.993,330.210 123.616 C 330.068 123.387,329.483 123.200,328.910 123.200 C 328.336 123.200,327.942 123.265,328.033 123.344 M177.040 125.440 C 176.248 126.232,175.601 127.087,175.602 127.340 C 175.603 127.593,176.009 127.294,176.503 126.676 C 176.998 126.058,177.852 125.207,178.401 124.785 C 178.951 124.363,179.193 124.014,178.940 124.009 C 178.687 124.004,177.832 124.648,177.040 125.440 M243.656 124.766 C 244.175 125.187,244.677 125.455,244.771 125.361 C 244.976 125.157,243.544 124.031,243.056 124.013 C 242.866 124.006,243.136 124.345,243.656 124.766 M35.800 125.889 C 34.405 127.743,34.258 128.252,35.535 126.800 C 36.213 126.030,36.775 125.265,36.784 125.100 C 36.809 124.628,36.656 124.751,35.800 125.889 M332.794 125.803 C 334.387 127.721,334.521 127.845,334.086 126.996 C 333.859 126.553,333.252 125.834,332.737 125.398 C 331.833 124.634,331.835 124.648,332.794 125.803 M245.202 125.607 C 245.203 125.713,245.653 126.686,246.202 127.768 C 246.751 128.850,247.200 129.426,247.200 129.047 C 247.200 128.668,246.750 127.695,246.200 126.886 C 245.650 126.077,245.201 125.501,245.202 125.607 M175.067 128.267 C 174.920 128.413,174.811 128.908,174.825 129.367 C 174.849 130.133,174.882 130.123,175.234 129.242 C 175.626 128.263,175.544 127.789,175.067 128.267 M334.434 128.400 C 334.446 128.730,334.611 129.360,334.800 129.800 L 335.144 130.600 335.166 129.800 C 335.178 129.360,335.013 128.730,334.800 128.400 C 334.455 127.867,334.415 127.867,334.434 128.400 M32.937 130.626 C 32.376 131.850,31.988 132.921,32.073 133.006 C 32.158 133.092,32.702 132.090,33.280 130.781 C 33.859 129.471,34.248 128.400,34.144 128.400 C 34.041 128.400,33.497 129.402,32.937 130.626 M262.643 129.033 C 262.306 129.909,262.349 132.901,262.706 133.462 C 262.868 133.716,263.000 132.681,263.000 131.162 C 263.000 128.141,262.995 128.114,262.643 129.033 M334.846 132.467 C 334.821 132.834,334.696 133.464,334.570 133.867 C 334.352 134.562,334.363 134.563,334.797 133.887 C 335.048 133.496,335.173 132.866,335.073 132.487 C 334.911 131.868,334.888 131.866,334.846 132.467 M52.058 133.628 C 46.901 135.694,47.200 133.045,47.200 176.615 L 47.200 214.038 49.203 210.119 C 53.882 200.965,62.345 192.499,71.282 188.033 L 73.164 187.092 72.056 185.446 C 66.745 177.563,66.409 166.907,71.185 157.828 C 74.238 152.024,80.252 146.976,86.600 144.888 C 90.315 143.666,91.213 143.552,95.800 143.731 C 100.971 143.932,103.478 144.279,103.827 144.844 C 103.948 145.040,104.329 145.200,104.674 145.200 C 107.655 145.200,115.166 151.130,118.249 155.917 C 120.333 159.154,121.155 161.133,122.374 165.846 C 122.902 167.886,122.932 174.115,122.422 175.772 C 122.214 176.447,121.760 177.995,121.413 179.210 C 120.780 181.428,119.548 184.111,118.282 186.027 C 117.557 187.124,117.801 187.349,121.897 189.360 C 122.390 189.602,122.795 189.935,122.797 190.100 C 122.799 190.265,123.036 190.400,123.325 190.400 C 123.613 190.400,124.198 190.720,124.625 191.111 C 125.051 191.502,126.030 192.256,126.800 192.787 C 128.891 194.230,134.225 199.497,136.128 201.998 C 137.047 203.208,138.115 204.547,138.500 204.974 C 138.885 205.401,139.200 205.987,139.200 206.275 C 139.200 206.564,139.335 206.801,139.500 206.803 C 139.665 206.805,140.003 207.210,140.251 207.703 C 140.500 208.196,141.354 209.860,142.150 211.400 L 143.598 214.200 143.599 177.028 C 143.600 149.034,143.481 139.504,143.117 138.428 C 142.482 136.551,139.631 133.786,137.991 133.458 C 135.898 133.040,53.119 133.203,52.058 133.628 M31.450 134.850 C 31.117 136.517,31.440 136.840,31.800 135.200 C 31.952 134.509,31.993 133.859,31.891 133.758 C 31.789 133.656,31.591 134.147,31.450 134.850 M159.038 136.200 C 159.370 138.184,159.602 138.504,159.594 136.967 C 159.591 136.325,159.404 135.530,159.179 135.200 C 158.886 134.770,158.846 135.054,159.038 136.200 M175.600 135.033 C 175.601 135.481,177.107 137.188,178.200 137.982 C 178.640 138.301,178.280 137.763,177.400 136.787 C 176.520 135.811,175.755 134.935,175.700 134.839 C 175.645 134.744,175.600 134.832,175.600 135.033 M332.509 136.638 C 331.579 137.607,330.974 138.400,331.163 138.400 C 331.511 138.400,334.400 135.365,334.400 134.999 C 334.400 134.685,334.298 134.773,332.509 136.638 M265.087 137.223 C 265.795 137.958,266.462 138.472,266.569 138.365 C 266.675 138.258,266.096 137.657,265.281 137.029 L 263.800 135.887 265.087 137.223 M30.993 181.400 C 30.993 205.380,31.041 215.249,31.100 203.331 C 31.159 191.413,31.159 171.793,31.100 159.731 C 31.041 147.669,30.993 157.420,30.993 181.400 M92.200 160.000 C 91.429 160.331,91.431 160.345,92.276 160.372 C 92.758 160.387,93.264 160.220,93.400 160.000 C 93.692 159.527,93.301 159.527,92.200 160.000 M97.200 160.000 C 97.530 160.213,98.160 160.378,98.600 160.366 L 99.400 160.344 98.600 160.000 C 97.404 159.486,96.405 159.486,97.200 160.000 M177.040 161.440 C 176.248 162.232,175.600 163.066,175.600 163.294 C 175.600 163.522,175.967 163.241,176.416 162.670 C 176.865 162.099,177.699 161.265,178.270 160.816 C 178.841 160.367,179.122 160.000,178.894 160.000 C 178.666 160.000,177.832 160.648,177.040 161.440 M206.476 160.419 C 206.848 160.636,207.703 161.481,208.376 162.298 C 209.049 163.114,209.600 163.579,209.600 163.331 C 209.600 162.733,206.847 159.997,206.260 160.012 C 206.007 160.019,206.104 160.202,206.476 160.419 M88.960 161.541 C 88.102 162.169,87.040 163.108,86.600 163.628 C 86.160 164.148,86.680 163.814,87.756 162.886 C 88.832 161.959,89.957 161.200,90.256 161.200 C 90.555 161.200,90.800 161.020,90.800 160.800 C 90.800 160.230,90.695 160.272,88.960 161.541 M262.538 161.106 C 262.284 161.268,275.272 161.400,291.400 161.400 C 307.528 161.400,320.516 161.268,320.262 161.106 C 320.008 160.944,307.020 160.812,291.400 160.812 C 275.780 160.812,262.792 160.944,262.538 161.106 M102.253 162.268 C 102.942 162.891,104.067 164.290,104.753 165.378 C 105.439 166.466,106.000 167.172,106.000 166.947 C 106.000 166.121,103.490 162.778,102.263 161.969 L 101.000 161.137 102.253 162.268 M322.400 162.000 C 322.730 162.213,323.270 162.388,323.600 162.388 C 324.133 162.388,324.133 162.345,323.600 162.000 C 323.270 161.787,322.730 161.612,322.400 161.612 C 321.867 161.612,321.867 161.655,322.400 162.000 M254.178 164.439 C 251.941 165.840,249.541 168.023,248.285 169.800 C 247.819 170.460,248.599 169.815,250.018 168.366 C 251.438 166.917,253.455 165.235,254.500 164.628 C 256.143 163.673,256.733 163.200,256.278 163.200 C 256.211 163.200,255.266 163.757,254.178 164.439 M209.840 165.066 C 210.208 166.599,210.400 166.744,210.400 165.490 C 210.400 164.917,210.213 164.332,209.984 164.190 C 209.711 164.021,209.662 164.323,209.840 165.066 M84.986 166.027 C 84.637 166.702,84.407 167.414,84.476 167.609 C 84.544 167.804,84.902 167.251,85.270 166.382 C 86.065 164.506,85.887 164.284,84.986 166.027 M331.435 167.030 C 332.774 168.334,334.364 170.030,334.967 170.800 C 335.571 171.570,335.880 171.826,335.655 171.368 C 335.050 170.140,331.720 166.536,330.265 165.533 C 329.569 165.053,330.096 165.727,331.435 167.030 M106.173 170.692 C 106.185 172.503,106.318 173.673,106.469 173.292 C 106.821 172.404,106.803 169.691,106.436 168.400 C 106.269 167.812,106.160 168.755,106.173 170.692 M210.054 168.467 C 210.025 168.834,209.884 169.464,209.741 169.867 C 209.541 170.433,209.595 170.496,209.975 170.146 C 210.246 169.897,210.387 169.267,210.288 168.746 C 210.190 168.226,210.084 168.100,210.054 168.467 M84.124 171.000 C 84.126 172.320,84.201 172.812,84.290 172.093 C 84.379 171.374,84.377 170.294,84.286 169.693 C 84.195 169.092,84.122 169.680,84.124 171.000 M175.600 171.106 C 175.600 171.334,176.248 172.168,177.040 172.960 C 177.832 173.752,178.666 174.400,178.894 174.400 C 179.122 174.400,178.841 174.033,178.270 173.584 C 177.699 173.135,176.865 172.301,176.416 171.730 C 175.967 171.159,175.600 170.878,175.600 171.106 M207.709 172.638 C 206.779 173.607,206.176 174.400,206.369 174.400 C 206.831 174.400,209.600 171.623,209.600 171.160 C 209.600 170.665,209.609 170.658,207.709 172.638 M179.800 174.800 C 179.936 175.020,180.442 175.187,180.924 175.172 C 181.769 175.145,181.771 175.131,181.000 174.800 C 179.899 174.327,179.508 174.327,179.800 174.800 M204.200 174.800 C 203.429 175.131,203.431 175.145,204.276 175.172 C 204.758 175.187,205.264 175.020,205.400 174.800 C 205.692 174.327,205.301 174.327,204.200 174.800 M105.344 175.443 C 105.193 175.859,104.727 176.695,104.308 177.300 C 103.888 177.905,103.645 178.400,103.767 178.400 C 104.173 178.400,106.121 175.188,105.868 174.935 C 105.731 174.798,105.495 175.026,105.344 175.443 M85.222 176.200 C 85.227 176.729,86.342 178.191,86.569 177.965 C 86.666 177.868,86.402 177.341,85.982 176.794 C 85.561 176.247,85.220 175.980,85.222 176.200 M263.800 177.767 C 261.341 178.864,260.511 180.278,259.196 185.607 C 258.519 188.353,257.778 191.320,257.549 192.200 C 257.321 193.080,256.969 194.475,256.767 195.300 C 255.961 198.596,255.529 200.256,255.173 201.428 C 254.968 202.104,254.800 202.869,254.800 203.128 C 254.800 203.487,263.562 203.600,291.400 203.600 C 319.238 203.600,328.000 203.487,328.000 203.128 C 328.000 202.869,327.832 202.104,327.627 201.428 C 327.422 200.753,327.077 199.480,326.860 198.600 C 326.643 197.720,326.278 196.280,326.049 195.400 C 325.820 194.520,324.901 190.836,324.007 187.213 C 322.257 180.116,321.603 178.902,318.913 177.751 C 317.043 176.951,265.595 176.966,263.800 177.767 M101.441 180.027 C 100.583 180.672,100.050 181.200,100.256 181.200 C 100.462 181.200,101.253 180.667,102.015 180.016 C 103.787 178.502,103.461 178.508,101.441 180.027 M243.867 179.067 C 243.720 179.213,243.611 179.708,243.625 180.167 C 243.649 180.933,243.682 180.923,244.034 180.042 C 244.426 179.063,244.344 178.589,243.867 179.067 M338.428 179.076 C 338.518 180.115,339.144 180.996,339.172 180.124 C 339.187 179.642,339.020 179.136,338.800 179.000 C 338.580 178.864,338.413 178.898,338.428 179.076 M89.600 180.639 C 89.600 180.978,92.112 182.036,92.651 181.924 C 92.979 181.856,92.427 181.507,91.424 181.150 C 90.421 180.792,89.600 180.562,89.600 180.639 M94.500 182.276 C 94.885 182.376,95.515 182.376,95.900 182.276 C 96.285 182.175,95.970 182.093,95.200 182.093 C 94.430 182.093,94.115 182.175,94.500 182.276 M339.228 182.276 C 339.318 183.315,339.944 184.196,339.972 183.324 C 339.987 182.842,339.820 182.336,339.600 182.200 C 339.380 182.064,339.213 182.098,339.228 182.276 M241.449 189.015 C 241.312 189.373,241.215 189.966,241.234 190.333 C 241.253 190.700,241.427 190.469,241.621 189.820 C 241.998 188.558,241.865 187.933,241.449 189.015 M240.649 192.215 C 240.512 192.573,240.415 193.166,240.434 193.533 C 240.453 193.900,240.627 193.669,240.821 193.020 C 241.198 191.758,241.065 191.133,240.649 192.215 M341.844 192.600 C 342.173 194.071,342.402 194.390,342.394 193.367 C 342.391 192.945,342.205 192.330,341.982 192.000 C 341.685 191.562,341.648 191.724,341.844 192.600 M232.501 193.129 C 232.217 193.310,232.852 193.446,233.977 193.446 C 235.063 193.446,235.862 193.301,235.752 193.123 C 235.497 192.709,233.155 192.714,232.501 193.129 M347.048 193.123 C 346.938 193.301,347.737 193.446,348.823 193.446 C 349.948 193.446,350.583 193.310,350.299 193.129 C 349.645 192.714,347.303 192.709,347.048 193.123 M237.200 193.763 C 237.200 193.843,237.650 194.203,238.200 194.563 C 238.750 194.924,239.200 195.063,239.200 194.873 C 239.200 194.684,238.750 194.323,238.200 194.073 C 237.650 193.822,237.200 193.683,237.200 193.763 M344.500 194.088 C 344.005 194.327,343.600 194.679,343.600 194.870 C 343.600 195.062,344.050 194.924,344.600 194.563 C 346.067 193.602,346.016 193.357,344.500 194.088 M228.800 194.913 C 228.470 195.181,227.937 195.760,227.615 196.200 C 227.294 196.640,227.609 196.471,228.315 195.825 C 229.467 194.772,229.800 194.375,229.500 194.413 C 229.445 194.420,229.130 194.645,228.800 194.913 M353.200 194.522 C 353.200 194.592,353.763 195.179,354.450 195.825 C 355.325 196.648,355.547 196.748,355.191 196.159 C 354.751 195.433,353.200 194.157,353.200 194.522 M207.800 197.613 C 208.680 198.589,209.445 199.465,209.500 199.561 C 209.555 199.656,209.600 199.568,209.600 199.367 C 209.599 198.919,208.093 197.212,207.000 196.418 C 206.560 196.099,206.920 196.637,207.800 197.613 M225.874 200.439 C 225.753 200.900,225.811 201.665,226.002 202.139 C 226.282 202.833,226.354 202.670,226.375 201.300 C 226.402 199.446,226.217 199.127,225.874 200.439 M356.451 201.200 C 356.451 202.670,356.517 202.835,356.812 202.100 C 357.028 201.563,357.028 200.837,356.812 200.300 C 356.517 199.565,356.451 199.730,356.451 201.200 M210.054 204.467 C 210.025 204.834,209.884 205.464,209.741 205.867 C 209.541 206.433,209.595 206.496,209.975 206.146 C 210.246 205.897,210.387 205.267,210.288 204.746 C 210.190 204.226,210.084 204.100,210.054 204.467 M174.828 205.076 C 174.813 205.558,174.980 206.064,175.200 206.200 C 175.673 206.492,175.673 206.101,175.200 205.000 C 174.869 204.229,174.855 204.231,174.828 205.076 M227.644 206.200 C 227.949 206.640,228.514 207.291,228.899 207.647 C 229.856 208.530,229.790 208.868,228.404 210.196 C 227.746 210.826,227.272 211.406,227.351 211.484 C 227.429 211.563,228.142 210.978,228.935 210.185 L 230.376 208.744 228.732 207.072 C 227.828 206.152,227.338 205.760,227.644 206.200 M353.866 207.180 L 352.439 208.759 353.873 210.193 C 354.661 210.981,355.371 211.563,355.449 211.484 C 355.528 211.406,355.054 210.826,354.396 210.196 C 353.010 208.868,352.944 208.530,353.901 207.647 C 354.817 206.801,355.753 205.600,355.496 205.600 C 355.384 205.600,354.651 206.311,353.866 207.180 M175.602 207.060 C 175.599 207.662,178.345 210.403,178.940 210.391 C 179.193 210.386,178.951 210.037,178.401 209.615 C 177.852 209.193,176.998 208.342,176.503 207.724 C 176.009 207.106,175.603 206.807,175.602 207.060 M207.709 208.673 C 206.779 209.623,206.158 210.400,206.328 210.400 C 206.729 210.400,209.803 207.257,209.574 207.080 C 209.478 207.007,208.639 207.723,207.709 208.673 M179.804 210.806 C 179.938 211.023,180.607 211.200,181.290 211.200 C 182.801 211.200,182.649 211.000,180.880 210.663 C 180.055 210.506,179.652 210.560,179.804 210.806 M203.800 210.800 L 202.600 211.105 203.876 211.153 C 204.578 211.179,205.264 211.020,205.400 210.800 C 205.674 210.357,205.540 210.357,203.800 210.800 M223.467 217.867 C 223.320 218.013,223.211 218.508,223.225 218.967 C 223.249 219.733,223.282 219.723,223.634 218.842 C 224.026 217.863,223.944 217.389,223.467 217.867 M358.828 217.876 C 358.918 218.915,359.544 219.796,359.572 218.924 C 359.587 218.442,359.420 217.936,359.200 217.800 C 358.980 217.664,358.813 217.698,358.828 217.876 M222.667 220.667 C 222.520 220.813,222.423 221.668,222.450 222.567 L 222.500 224.200 222.799 222.400 C 223.116 220.496,223.096 220.238,222.667 220.667 M359.893 222.100 C 360.181 224.352,360.400 224.521,360.400 222.490 C 360.400 221.587,360.237 220.747,360.038 220.624 C 359.832 220.496,359.769 221.130,359.893 222.100 M159.260 225.267 C 159.227 225.854,159.096 226.664,158.970 227.067 C 158.752 227.760,158.765 227.761,159.195 227.090 C 159.446 226.699,159.577 225.889,159.486 225.290 L 159.320 224.200 159.260 225.267 M31.268 226.400 C 31.288 227.439,31.918 229.146,31.932 228.200 C 31.938 227.760,31.789 227.040,31.600 226.600 C 31.389 226.110,31.261 226.032,31.268 226.400 M32.018 229.313 C 31.956 230.368,35.467 236.800,36.105 236.800 C 36.290 236.800,35.986 236.203,35.429 235.474 C 34.873 234.744,33.882 232.989,33.227 231.574 C 32.572 230.158,32.028 229.141,32.018 229.313 M155.445 234.988 C 155.080 235.544,154.922 236.000,155.095 236.000 C 155.484 236.000,156.519 234.386,156.282 234.149 C 156.186 234.053,155.810 234.431,155.445 234.988 M42.400 242.367 C 43.363 243.152,44.000 243.408,44.000 243.010 C 44.000 242.906,43.415 242.535,42.700 242.186 L 41.400 241.552 42.400 242.367 M46.600 244.400 C 46.736 244.620,47.242 244.787,47.724 244.772 C 48.569 244.745,48.571 244.731,47.800 244.400 C 46.699 243.927,46.308 243.927,46.600 244.400 M49.738 245.294 C 49.992 245.456,70.540 245.588,95.400 245.588 C 120.260 245.588,140.808 245.456,141.062 245.294 C 141.316 245.132,120.768 245.000,95.400 245.000 C 70.032 245.000,49.484 245.132,49.738 245.294 M222.400 258.910 C 222.400 259.483,222.587 260.068,222.816 260.210 C 223.089 260.379,223.138 260.077,222.960 259.334 C 222.592 257.801,222.400 257.656,222.400 258.910 M360.054 258.467 C 360.025 258.834,359.884 259.464,359.741 259.867 C 359.541 260.433,359.595 260.496,359.975 260.146 C 360.246 259.897,360.387 259.267,360.288 258.746 C 360.190 258.226,360.084 258.100,360.054 258.467 M36.662 261.100 C 36.560 261.265,45.892 261.400,57.400 261.400 C 68.908 261.400,78.240 261.265,78.138 261.100 C 78.036 260.935,68.704 260.800,57.400 260.800 C 46.096 260.800,36.764 260.935,36.662 261.100 M112.538 261.106 C 112.284 261.268,121.582 261.400,133.200 261.400 C 144.818 261.400,154.116 261.268,153.862 261.106 C 153.608 260.944,144.310 260.812,133.200 260.812 C 122.090 260.812,112.792 260.944,112.538 261.106 M223.204 261.022 C 223.198 261.628,225.579 263.799,227.080 264.555 C 228.130 265.084,229.800 265.200,236.380 265.200 L 244.400 265.200 244.406 267.500 C 244.409 268.765,244.575 270.058,244.775 270.373 C 245.118 270.915,244.948 266.485,244.580 265.300 C 244.463 264.922,242.470 264.800,236.397 264.800 C 227.419 264.800,226.311 264.537,224.242 261.911 C 223.674 261.190,223.207 260.790,223.204 261.022 M358.462 262.002 C 356.615 264.500,355.321 264.800,346.403 264.800 C 340.329 264.800,338.337 264.922,338.221 265.300 C 337.880 266.409,337.676 271.368,338.003 270.600 C 338.190 270.160,338.356 268.765,338.372 267.500 L 338.400 265.200 346.416 265.200 C 353.519 265.200,354.601 265.113,355.916 264.437 C 357.468 263.638,359.886 261.353,359.542 261.009 C 359.433 260.900,358.947 261.346,358.462 262.002 M33.124 263.500 C 31.959 264.749,31.039 266.373,31.331 266.664 C 31.439 266.772,31.649 266.475,31.799 266.004 C 31.948 265.533,32.613 264.529,33.277 263.774 C 34.712 262.139,34.592 261.925,33.124 263.500 M81.238 263.377 C 81.588 263.830,82.173 264.645,82.538 265.189 C 82.902 265.733,83.200 265.988,83.200 265.756 C 83.200 265.523,82.615 264.708,81.900 263.943 C 81.185 263.179,80.887 262.924,81.238 263.377 M261.020 265.300 C 260.652 266.485,260.482 270.915,260.825 270.373 C 261.025 270.058,261.191 268.765,261.194 267.500 L 261.200 265.200 291.400 265.200 L 321.600 265.200 321.606 267.500 C 321.609 268.765,321.775 270.058,321.975 270.373 C 322.318 270.915,322.148 266.485,321.780 265.300 C 321.658 264.906,315.231 264.800,291.400 264.800 C 267.569 264.800,261.142 264.906,261.020 265.300 M107.049 266.215 C 106.912 266.573,106.815 267.166,106.834 267.533 C 106.853 267.900,107.027 267.669,107.221 267.020 C 107.598 265.758,107.465 265.133,107.049 266.215 M159.044 266.600 C 159.373 268.071,159.602 268.390,159.594 267.367 C 159.591 266.945,159.405 266.330,159.182 266.000 C 158.885 265.562,158.848 265.724,159.044 266.600 M83.496 268.151 C 83.770 270.582,82.772 273.190,80.960 274.781 C 80.197 275.452,79.723 276.000,79.908 276.000 C 82.087 276.000,84.963 268.941,83.637 266.846 C 83.422 266.506,83.367 267.010,83.496 268.151 M30.901 269.000 C 30.905 269.880,30.987 270.193,31.083 269.695 C 31.179 269.198,31.175 268.478,31.075 268.095 C 30.975 267.713,30.896 268.120,30.901 269.000 M32.681 274.162 C 33.077 274.691,33.760 275.342,34.200 275.610 C 34.640 275.878,34.380 275.445,33.622 274.648 C 32.031 272.977,31.648 272.779,32.681 274.162 M247.287 274.605 C 248.104 275.460,248.838 276.079,248.917 275.980 C 248.997 275.881,248.328 275.181,247.431 274.425 L 245.800 273.050 247.287 274.605 M335.106 274.611 C 334.284 275.375,333.754 276.000,333.927 276.000 C 334.101 276.000,334.854 275.370,335.600 274.600 C 337.341 272.803,337.043 272.810,335.106 274.611 M249.800 276.400 C 249.936 276.620,250.442 276.787,250.924 276.772 C 251.769 276.745,251.771 276.731,251.000 276.400 C 249.899 275.927,249.508 275.927,249.800 276.400 M254.400 276.400 L 253.400 276.720 254.476 276.760 C 255.068 276.782,255.664 276.620,255.800 276.400 C 256.081 275.945,255.820 275.945,254.400 276.400 M326.990 276.384 C 327.132 276.613,327.717 276.800,328.290 276.800 C 329.544 276.800,329.399 276.608,327.866 276.240 C 327.123 276.062,326.821 276.111,326.990 276.384 M331.800 276.400 C 331.029 276.731,331.031 276.745,331.876 276.772 C 332.358 276.787,332.864 276.620,333.000 276.400 C 333.292 275.927,332.901 275.927,331.800 276.400 M47.528 277.100 C 53.098 277.163,62.098 277.162,67.528 277.100 C 72.958 277.037,68.400 276.985,57.400 276.986 C 46.400 276.986,41.958 277.037,47.528 277.100 M123.300 277.100 C 128.745 277.163,137.655 277.163,143.100 277.100 C 148.545 277.037,144.090 276.985,133.200 276.985 C 122.310 276.985,117.855 277.037,123.300 277.100 M201.900 298.282 C 202.395 298.378,203.205 298.378,203.700 298.282 C 204.195 298.187,203.790 298.109,202.800 298.109 C 201.810 298.109,201.405 298.187,201.900 298.282 M174.965 299.213 C 176.977 300.217,177.781 300.960,178.555 302.530 C 178.900 303.228,179.186 303.569,179.191 303.286 C 179.216 301.889,175.504 298.379,174.040 298.416 C 173.688 298.425,174.104 298.783,174.965 299.213 M199.000 299.025 C 197.490 299.806,196.434 300.800,197.114 300.800 C 197.381 300.800,197.600 300.640,197.600 300.444 C 197.600 300.249,198.365 299.718,199.300 299.264 C 200.235 298.811,200.820 298.432,200.600 298.422 C 200.380 298.413,199.660 298.684,199.000 299.025 M206.400 299.243 C 207.170 299.706,208.234 300.470,208.765 300.942 C 209.295 301.414,209.592 301.563,209.425 301.274 C 209.022 300.577,206.001 298.400,205.440 298.401 C 205.198 298.402,205.630 298.781,206.400 299.243 M195.755 302.212 C 195.390 302.769,195.164 303.298,195.253 303.387 C 195.342 303.476,195.718 303.020,196.089 302.374 C 196.914 300.936,196.669 300.817,195.755 302.212 M179.490 305.699 C 179.753 308.032,179.039 310.139,177.422 311.805 C 174.692 314.616,181.581 314.400,94.551 314.400 L 16.000 314.400 16.007 317.700 C 16.030 328.735,21.561 336.632,32.200 340.821 C 32.640 340.994,33.720 341.284,34.600 341.465 C 36.692 341.894,363.308 341.894,365.400 341.465 C 366.280 341.284,367.360 340.994,367.800 340.821 C 378.422 336.639,383.970 328.717,383.993 317.700 L 384.000 314.400 308.249 314.400 C 227.303 314.400,231.159 314.491,228.981 312.535 C 227.058 310.809,226.286 309.183,226.285 306.858 C 226.284 305.012,226.210 304.764,225.881 305.500 C 225.485 306.385,225.356 306.400,218.339 306.400 L 211.200 306.400 211.200 305.424 C 211.200 304.887,211.001 304.324,210.757 304.174 C 210.462 303.991,210.396 304.184,210.557 304.750 C 210.691 305.217,210.886 305.915,210.991 306.300 C 211.261 307.288,210.285 309.894,209.079 311.405 C 204.489 317.157,195.067 313.956,195.067 306.645 C 195.067 304.630,195.002 304.393,194.700 305.300 L 194.333 306.400 187.167 306.400 C 180.610 306.400,179.999 306.340,179.994 305.700 C 179.991 305.315,179.830 304.751,179.637 304.446 C 179.421 304.104,179.364 304.584,179.490 305.699 " stroke="none" fill="#abe3fb" fill-rule="evenodd"></path>
</g>
</svg>