<svg width="128" height="128" viewBox="0 0 128 128" fill="none" xmlns="http://www.w3.org/2000/svg">
<circle cx="64" cy="64" r="64" fill="url(#paint0_radial_650_107)"/>
<path d="M64.58 103.76C54.24 103.76 45.5133 101.853 38.4 98.04L43.9 80.99C51.4533 83.7033 58.2 85.06 64.14 85.06C67.3667 85.06 69.7133 84.6933 71.18 83.96C72.72 83.1533 73.49 81.98 73.49 80.44C73.49 79.4133 73.0867 78.5333 72.28 77.8C71.4733 76.9933 69.86 76.1133 67.44 75.16C65.02 74.2067 61.39 73.0333 56.55 71.64C50.61 69.88 45.99 67.02 42.69 63.06C39.39 59.0267 37.74 54.4067 37.74 49.2C37.74 41.1333 40.38 35.0467 45.66 30.94C51.0133 26.76 58.2 24.67 67.22 24.67C71.9133 24.67 76.5333 25.1833 81.08 26.21C85.6267 27.1633 89.66 28.5933 93.18 30.5L87.24 47.11C83.1333 45.7167 79.54 44.7267 76.46 44.14C73.4533 43.48 70.52 43.15 67.66 43.15C62.82 43.15 60.4 44.47 60.4 47.11C60.4 48.43 61.17 49.5667 62.71 50.52C64.3233 51.4 67.5867 52.5367 72.5 53.93C80.2 55.9833 86.03 59.1367 89.99 63.39C93.95 67.57 95.93 72.5933 95.93 78.46C95.93 86.6 93.29 92.87 88.01 97.27C82.73 101.597 74.92 103.76 64.58 103.76Z" fill="white"/>
<defs>
<radialGradient id="paint0_radial_650_107" cx="0" cy="0" r="1" gradientUnits="userSpaceOnUse" gradientTransform="translate(35 25) rotate(56.5674) scale(123.422)">
<stop stop-color="#FF8A00"/>
<stop offset="0.0001" stop-color="#FF9922"/>
<stop offset="0.845277" stop-color="#C96C00"/>
<stop offset="0.943698" stop-color="#FD9D2D"/>
<stop offset="1" stop-color="#BE7C30"/>
</radialGradient>
</defs>
</svg>
