<svg id="svg" version="1.1" xmlns="http://www.w3.org/2000/svg" xmlns:xlink="http://www.w3.org/1999/xlink" width="400" height="400" viewBox="0, 0, 400,400">
    <g id="svgg">
    <path id="path0" d="M0.000 117.200 L 0.000 144.400 200.000 144.400 L 400.000 144.400 400.000 117.200 L 400.000 90.000 200.000 90.000 L 0.000 90.000 0.000 117.200 M228.000 241.400 L 228.000 310.000 241.338 310.000 L 254.676 310.000 254.923 304.845 C 255.396 294.961,257.380 292.651,271.276 285.806 C 282.372 280.340,282.476 280.249,282.316 276.118 L 282.200 273.119 280.400 272.119 C 274.322 268.743,269.687 263.043,267.212 255.899 C 266.213 253.015,265.957 252.640,264.392 251.750 C 258.077 248.164,257.330 237.161,263.042 231.876 C 264.238 230.769,264.800 229.921,264.800 229.224 C 264.800 226.533,266.850 219.344,269.034 214.377 C 270.615 210.782,270.687 209.661,269.744 203.345 C 268.755 196.718,269.323 196.182,273.398 199.900 C 278.576 204.626,283.605 206.292,293.000 206.393 C 299.475 206.463,308.921 207.351,309.800 207.973 C 310.020 208.129,311.010 208.505,312.000 208.809 C 312.990 209.114,314.430 209.714,315.200 210.144 C 315.970 210.574,316.982 211.129,317.449 211.379 C 320.159 212.826,326.000 219.526,326.000 221.187 C 326.000 221.420,326.159 221.923,326.353 222.305 C 327.318 224.203,328.400 228.047,328.400 229.580 C 328.400 230.002,329.355 231.305,330.522 232.474 C 335.795 237.756,334.584 248.628,328.351 251.970 C 327.219 252.577,326.845 253.166,325.992 255.680 C 325.434 257.324,324.668 259.142,324.289 259.720 C 323.910 260.299,323.600 260.878,323.600 261.008 C 323.600 263.188,315.989 270.749,312.100 272.433 C 310.496 273.127,310.070 274.815,310.718 277.905 C 311.306 280.706,310.902 280.410,321.522 285.812 C 335.874 293.112,337.699 295.323,338.269 306.100 L 338.475 310.000 351.837 310.000 L 365.200 310.000 365.200 241.400 L 365.200 172.800 296.600 172.800 L 228.000 172.800 228.000 241.400 " stroke="none" fill="#424b5c" fill-rule="evenodd"></path><path id="path1" d="M19.200 54.799 C 18.870 55.013,17.835 55.191,16.900 55.194 C 15.965 55.197,15.200 55.380,15.200 55.600 C 15.200 55.820,14.649 56.000,13.976 56.000 C 13.263 56.000,12.856 56.167,13.000 56.400 C 13.140 56.627,12.804 56.800,12.224 56.800 C 11.661 56.800,11.200 56.980,11.200 57.200 C 11.200 57.420,10.930 57.600,10.600 57.600 C 10.270 57.600,10.000 57.780,10.000 58.000 C 10.000 58.220,9.804 58.400,9.564 58.400 C 8.840 58.400,6.018 60.562,6.009 61.124 C 6.004 61.412,5.847 61.553,5.660 61.437 C 5.473 61.322,5.083 61.671,4.793 62.214 C 4.502 62.756,4.115 63.200,3.932 63.200 C 3.750 63.200,3.600 63.388,3.600 63.617 C 3.600 63.846,3.240 64.420,2.800 64.892 C 2.360 65.364,2.000 66.088,2.000 66.499 C 2.000 66.911,1.820 67.136,1.600 67.000 C 1.377 66.862,1.200 67.169,1.200 67.696 C 1.200 68.215,0.975 68.865,0.700 69.140 C 0.335 69.504,0.163 72.283,0.064 79.420 L -0.073 89.200 200.000 89.200 L 400.073 89.200 399.936 79.420 C 399.837 72.283,399.665 69.504,399.300 69.140 C 399.025 68.865,398.800 68.215,398.800 67.696 C 398.800 67.169,398.623 66.862,398.400 67.000 C 398.180 67.136,398.000 66.911,398.000 66.499 C 398.000 66.088,397.640 65.364,397.200 64.892 C 396.760 64.420,396.400 63.846,396.400 63.617 C 396.400 63.388,396.250 63.200,396.068 63.200 C 395.885 63.200,395.498 62.756,395.207 62.214 C 394.917 61.671,394.527 61.322,394.340 61.437 C 394.153 61.553,393.996 61.412,393.991 61.124 C 393.982 60.562,391.160 58.400,390.436 58.400 C 390.196 58.400,390.000 58.220,390.000 58.000 C 390.000 57.780,389.730 57.600,389.400 57.600 C 389.070 57.600,388.800 57.420,388.800 57.200 C 388.800 56.980,388.339 56.800,387.776 56.800 C 387.196 56.800,386.860 56.627,387.000 56.400 C 387.144 56.167,386.737 56.000,386.024 56.000 C 385.351 56.000,384.800 55.837,384.800 55.639 C 384.800 54.647,20.728 53.811,19.200 54.799 M0.095 237.980 C 0.178 311.238,0.303 330.464,0.700 330.860 C 0.975 331.135,1.200 331.785,1.200 332.304 C 1.200 332.831,1.377 333.138,1.600 333.000 C 1.820 332.864,2.000 333.089,2.000 333.501 C 2.000 333.912,2.360 334.636,2.800 335.108 C 3.240 335.580,3.600 336.154,3.600 336.383 C 3.600 336.612,3.750 336.800,3.932 336.800 C 4.115 336.800,4.502 337.244,4.793 337.786 C 5.083 338.329,5.473 338.678,5.660 338.563 C 5.847 338.447,6.004 338.588,6.009 338.876 C 6.018 339.438,8.840 341.600,9.564 341.600 C 9.804 341.600,10.000 341.780,10.000 342.000 C 10.000 342.220,10.270 342.400,10.600 342.400 C 10.930 342.400,11.200 342.580,11.200 342.800 C 11.200 343.020,11.661 343.200,12.224 343.200 C 12.804 343.200,13.140 343.373,13.000 343.600 C 12.856 343.833,13.263 344.000,13.976 344.000 C 14.649 344.000,15.200 344.163,15.200 344.361 C 15.200 345.234,28.737 345.303,200.000 345.303 C 371.263 345.303,384.800 345.234,384.800 344.361 C 384.800 344.163,385.351 344.000,386.024 344.000 C 386.737 344.000,387.144 343.833,387.000 343.600 C 386.860 343.373,387.196 343.200,387.776 343.200 C 388.339 343.200,388.800 343.020,388.800 342.800 C 388.800 342.580,389.070 342.400,389.400 342.400 C 389.730 342.400,390.000 342.220,390.000 342.000 C 390.000 341.780,390.196 341.600,390.436 341.600 C 391.160 341.600,393.982 339.438,393.991 338.876 C 393.996 338.588,394.153 338.447,394.340 338.563 C 394.527 338.678,394.917 338.329,395.207 337.786 C 395.498 337.244,395.885 336.800,396.068 336.800 C 396.250 336.800,396.400 336.612,396.400 336.383 C 396.400 336.154,396.760 335.580,397.200 335.108 C 397.640 334.636,398.000 333.912,398.000 333.501 C 398.000 333.089,398.180 332.864,398.400 333.000 C 398.623 333.138,398.800 332.831,398.800 332.304 C 398.800 331.785,399.025 331.135,399.300 330.860 C 399.697 330.464,399.822 311.238,399.905 237.980 L 400.010 145.600 200.000 145.600 L -0.010 145.600 0.095 237.980 M365.800 241.400 L 365.800 310.600 351.600 310.702 L 337.400 310.804 337.360 305.484 C 337.304 298.201,336.036 295.463,330.933 291.600 C 329.777 290.725,329.318 290.477,320.182 285.786 C 309.670 280.388,310.000 280.712,310.000 275.814 C 310.000 273.282,310.117 272.733,310.700 272.522 C 313.625 271.467,319.015 266.988,321.184 263.811 C 322.124 262.434,322.815 261.159,325.251 256.305 C 325.443 255.923,325.600 255.359,325.600 255.051 C 325.600 253.953,326.751 252.301,328.065 251.515 C 334.040 247.939,335.015 236.803,329.733 232.449 C 328.283 231.254,327.266 228.870,327.218 226.555 C 327.134 222.570,321.263 214.062,317.009 211.763 C 316.564 211.522,315.520 210.937,314.688 210.463 C 313.856 209.988,312.832 209.600,312.411 209.600 C 311.991 209.600,311.549 209.441,311.429 209.246 C 311.308 209.051,310.623 208.775,309.905 208.631 C 309.187 208.487,307.700 208.180,306.600 207.948 C 305.500 207.715,300.550 207.383,295.600 207.208 C 290.650 207.034,285.880 206.704,285.000 206.476 C 284.120 206.249,282.950 205.943,282.400 205.798 C 279.994 205.162,275.301 202.415,272.959 200.272 C 270.167 197.716,269.339 197.632,269.799 199.951 C 271.219 207.107,271.397 210.569,270.448 212.588 C 269.981 213.580,269.600 214.485,269.600 214.600 C 269.600 214.715,269.252 215.572,268.827 216.504 C 267.363 219.720,265.874 224.996,265.405 228.633 C 265.184 230.352,264.867 230.934,263.362 232.393 C 260.645 235.026,260.215 236.257,260.215 241.400 C 260.215 247.094,262.044 250.671,265.518 251.774 C 266.294 252.020,266.981 253.359,268.251 257.092 C 270.226 262.901,276.345 269.801,281.500 272.033 C 283.049 272.703,283.440 274.098,283.037 277.524 C 282.660 280.731,282.197 281.087,271.600 286.315 C 257.378 293.331,255.415 295.751,255.676 305.950 L 255.800 310.811 241.600 310.706 L 227.400 310.600 227.297 241.800 C 227.241 203.960,227.280 172.774,227.385 172.499 C 227.537 172.099,241.608 172.018,296.688 172.099 L 365.800 172.200 365.800 241.400 M99.958 180.200 C 104.710 182.999,104.514 189.689,99.606 192.284 L 97.874 193.200 65.637 193.191 C 29.580 193.181,31.333 193.318,29.097 190.344 C 26.208 186.499,28.445 180.047,32.861 179.487 C 38.275 178.800,98.671 179.442,99.958 180.200 M189.502 180.111 C 194.320 182.743,194.084 189.939,189.100 192.352 C 186.745 193.492,124.389 193.707,121.702 192.585 C 115.478 189.984,116.132 180.453,122.600 179.488 C 126.825 178.857,188.254 179.430,189.502 180.111 M44.995 214.919 C 49.229 217.796,49.369 223.200,45.290 226.311 C 43.783 227.461,36.620 228.106,32.965 227.420 C 27.279 226.353,25.847 217.482,30.916 214.731 C 33.740 213.199,42.639 213.318,44.995 214.919 M86.292 214.723 C 90.792 217.927,90.511 224.493,85.774 226.806 C 83.390 227.970,68.151 228.010,66.004 226.858 C 60.236 223.765,61.266 215.281,67.571 213.949 C 71.172 213.189,84.936 213.757,86.292 214.723 M121.121 215.091 C 123.976 217.402,124.841 220.707,123.391 223.763 C 120.854 229.109,106.740 229.096,104.201 223.745 C 102.272 219.681,104.750 214.709,109.093 213.929 C 112.995 213.229,119.609 213.867,121.121 215.091 M162.285 214.952 C 166.417 217.735,166.558 223.207,162.576 226.246 L 161.064 227.400 152.232 227.523 C 140.413 227.689,137.621 226.228,138.099 220.129 C 138.525 214.691,141.011 213.609,152.800 213.734 L 160.600 213.817 162.285 214.952 M189.764 214.832 C 195.690 218.328,193.139 227.401,186.231 227.399 C 181.093 227.398,177.961 222.522,179.975 217.661 C 181.323 214.405,186.504 212.908,189.764 214.832 M79.829 250.814 C 82.986 252.342,84.723 256.396,83.635 259.695 C 83.156 261.147,81.873 262.325,77.725 265.125 C 75.527 266.609,71.742 270.437,71.200 271.725 C 71.090 271.986,70.524 273.010,69.943 274.000 C 66.833 279.295,65.753 284.940,64.572 302.072 C 63.945 311.175,57.112 313.117,49.552 306.340 C 48.975 305.823,44.806 302.295,40.287 298.500 C 29.513 289.452,28.417 287.210,32.681 282.946 C 36.747 278.880,39.959 279.468,47.200 285.607 L 51.000 288.828 51.272 287.714 C 51.422 287.101,51.837 284.980,52.195 283.000 C 54.200 271.893,58.232 263.593,64.699 257.259 C 71.116 250.975,75.927 248.925,79.829 250.814 M129.680 269.847 C 130.274 270.151,131.444 271.234,132.280 272.253 C 136.107 276.920,136.927 277.316,142.262 277.082 C 146.196 276.910,147.893 276.650,149.400 275.989 C 150.081 275.690,152.199 274.987,161.428 271.998 C 167.635 269.987,175.453 273.732,178.637 280.241 C 181.833 286.772,173.311 292.514,167.338 287.854 C 165.160 286.155,164.066 286.114,159.600 287.565 C 156.465 288.584,152.496 289.802,150.400 290.389 C 149.410 290.666,148.150 291.031,147.600 291.200 C 142.112 292.886,139.043 293.356,136.956 292.831 C 135.155 292.377,130.035 290.131,129.600 289.604 C 129.490 289.471,128.770 288.924,128.000 288.389 C 127.230 287.855,126.187 287.008,125.682 286.509 C 124.531 285.370,124.814 285.336,121.230 287.042 C 118.002 288.579,117.329 288.870,113.400 290.423 C 112.960 290.597,112.150 290.825,111.600 290.930 C 111.050 291.035,109.520 291.421,108.200 291.789 C 105.440 292.559,95.367 292.727,94.655 292.015 C 94.427 291.787,93.808 291.600,93.281 291.600 C 90.399 291.600,80.930 285.213,79.378 282.223 C 78.396 280.331,77.892 277.948,78.371 277.469 C 78.607 277.233,78.800 276.648,78.800 276.168 C 78.800 274.969,81.589 272.198,83.396 271.601 C 86.241 270.662,88.432 271.540,92.567 275.274 C 93.221 275.865,94.216 276.561,94.778 276.821 C 95.340 277.081,96.075 277.429,96.411 277.594 C 97.985 278.370,102.719 278.906,104.012 278.456 C 104.731 278.205,105.822 278.000,106.436 278.000 C 107.050 278.000,107.664 277.820,107.800 277.600 C 107.936 277.380,108.352 277.196,108.724 277.192 C 109.577 277.181,116.120 273.882,119.763 271.626 C 124.410 268.748,126.721 268.333,129.680 269.847 " stroke="none" fill="#e5eded" fill-rule="evenodd"></path><path id="path2" d="M99.900 145.100 C 154.955 145.156,245.045 145.156,300.100 145.100 C 355.155 145.044,310.110 144.998,200.000 144.998 C 89.890 144.998,44.845 145.044,99.900 145.100 M227.467 172.667 C 227.096 173.037,227.129 309.909,227.500 310.138 C 227.665 310.240,227.800 279.291,227.800 241.362 C 227.800 203.433,227.785 172.400,227.767 172.400 C 227.748 172.400,227.613 172.520,227.467 172.667 M31.824 180.524 C 30.646 181.246,29.200 182.711,29.200 183.182 C 29.200 183.412,29.020 183.600,28.800 183.600 C 28.574 183.600,28.400 184.733,28.400 186.200 C 28.400 187.630,28.558 188.800,28.751 188.800 C 28.945 188.800,29.309 189.298,29.561 189.907 C 29.826 190.545,30.566 191.233,31.310 191.533 C 32.019 191.819,32.913 192.221,33.295 192.426 C 34.272 192.952,97.075 192.926,97.400 192.400 C 97.536 192.180,98.042 191.996,98.524 191.991 C 103.163 191.944,104.097 183.726,99.785 180.900 L 98.411 180.000 65.506 180.024 C 40.784 180.041,32.407 180.166,31.824 180.524 M121.409 180.524 C 116.453 183.510,117.248 190.661,122.719 192.300 C 124.853 192.939,186.607 193.035,187.000 192.400 C 187.136 192.180,187.669 192.000,188.184 192.000 C 189.319 192.000,192.000 189.439,192.000 188.355 C 192.000 187.934,192.220 187.236,192.490 186.805 C 192.877 186.185,192.877 185.917,192.490 185.530 C 192.220 185.260,191.996 184.671,191.991 184.220 C 191.980 183.226,191.030 182.024,189.338 180.864 L 188.077 180.000 155.138 180.024 C 130.400 180.041,122.003 180.166,121.409 180.524 M300.100 207.087 C 300.705 207.178,301.695 207.178,302.300 207.087 C 302.905 206.995,302.410 206.920,301.200 206.920 C 299.990 206.920,299.495 206.995,300.100 207.087 M319.600 213.325 C 319.600 213.394,320.185 213.979,320.900 214.625 L 322.200 215.800 321.025 214.500 C 319.930 213.288,319.600 213.016,319.600 213.325 M32.128 214.962 C 30.496 215.867,29.200 216.989,29.200 217.495 C 29.200 217.773,29.020 218.000,28.800 218.000 C 27.986 218.000,28.346 222.729,29.267 224.134 C 32.120 228.487,44.011 228.386,46.580 223.987 C 48.388 220.892,47.200 216.652,44.121 215.205 C 42.106 214.258,33.705 214.088,32.128 214.962 M66.000 215.254 C 63.541 216.630,61.186 223.200,63.151 223.200 C 63.345 223.200,63.708 223.696,63.959 224.302 C 65.309 227.561,81.883 228.661,86.420 225.792 C 88.334 224.582,90.007 218.000,88.400 218.000 C 88.180 218.000,88.000 217.807,88.000 217.571 C 88.000 216.967,87.137 216.176,85.437 215.221 C 83.275 214.007,68.184 214.032,66.000 215.254 M107.530 215.302 C 105.139 216.763,104.286 218.156,104.286 220.596 C 104.286 222.879,105.562 225.600,106.633 225.600 C 106.945 225.600,107.200 225.736,107.200 225.903 C 107.200 226.966,117.973 227.814,118.600 226.800 C 118.736 226.580,119.152 226.400,119.524 226.400 C 122.884 226.397,124.569 219.542,121.900 216.732 C 119.419 214.120,110.859 213.268,107.530 215.302 M142.000 215.239 C 139.193 216.915,138.010 219.604,138.848 222.401 C 139.111 223.281,139.466 224.000,139.636 224.000 C 139.807 224.000,140.060 224.360,140.200 224.800 C 140.340 225.240,140.712 225.600,141.027 225.600 C 141.342 225.600,141.600 225.736,141.600 225.903 C 141.600 227.503,158.172 227.806,161.194 226.260 C 165.664 223.975,165.842 217.558,161.500 215.241 C 159.104 213.962,144.141 213.960,142.000 215.239 M183.400 215.224 C 180.271 216.757,178.900 221.171,180.800 223.600 C 181.230 224.150,181.586 224.780,181.592 225.000 C 181.601 225.403,185.285 227.200,186.103 227.200 C 188.077 227.200,192.000 224.429,192.000 223.035 C 192.000 222.680,192.223 222.032,192.496 221.595 C 192.891 220.962,192.891 220.638,192.496 220.005 C 192.223 219.568,192.000 218.848,192.000 218.405 C 192.000 217.962,191.820 217.600,191.600 217.600 C 191.380 217.600,191.200 217.395,191.200 217.144 C 191.200 215.104,186.171 213.866,183.400 215.224 M259.731 241.400 C 259.733 242.940,259.805 243.521,259.892 242.691 C 259.979 241.861,259.977 240.601,259.889 239.891 C 259.800 239.181,259.729 239.860,259.731 241.400 M333.328 241.200 C 333.328 242.630,333.401 243.215,333.489 242.500 C 333.578 241.785,333.578 240.615,333.489 239.900 C 333.401 239.185,333.328 239.770,333.328 241.200 M274.200 267.200 C 275.059 268.080,275.852 268.800,275.962 268.800 C 276.072 268.800,275.459 268.080,274.600 267.200 C 273.741 266.320,272.948 265.600,272.838 265.600 C 272.728 265.600,273.341 266.320,274.200 267.200 M318.175 267.700 L 317.000 269.000 318.300 267.825 C 319.015 267.179,319.600 266.594,319.600 266.525 C 319.600 266.216,319.270 266.488,318.175 267.700 M310.124 275.800 C 310.126 277.120,310.201 277.612,310.290 276.893 C 310.379 276.174,310.377 275.094,310.286 274.493 C 310.195 273.892,310.122 274.480,310.124 275.800 M140.300 277.889 C 141.015 277.978,142.185 277.978,142.900 277.889 C 143.615 277.801,143.030 277.728,141.600 277.728 C 140.170 277.728,139.585 277.801,140.300 277.889 M101.300 279.076 C 101.685 279.176,102.315 279.176,102.700 279.076 C 103.085 278.975,102.770 278.893,102.000 278.893 C 101.230 278.893,100.915 278.975,101.300 279.076 M178.901 283.000 C 178.905 283.880,178.987 284.193,179.083 283.695 C 179.179 283.198,179.175 282.478,179.075 282.095 C 178.975 281.713,178.896 282.120,178.901 283.000 M99.500 292.289 C 100.215 292.378,101.385 292.378,102.100 292.289 C 102.815 292.201,102.230 292.128,100.800 292.128 C 99.370 292.128,98.785 292.201,99.500 292.289 M138.305 292.683 C 138.802 292.779,139.522 292.775,139.905 292.675 C 140.287 292.575,139.880 292.496,139.000 292.501 C 138.120 292.505,137.807 292.587,138.305 292.683 M64.501 296.200 C 64.505 297.080,64.587 297.393,64.683 296.895 C 64.779 296.398,64.775 295.678,64.675 295.295 C 64.575 294.913,64.496 295.320,64.501 296.200 M64.109 300.800 C 64.109 301.790,64.187 302.195,64.282 301.700 C 64.378 301.205,64.378 300.395,64.282 299.900 C 64.187 299.405,64.109 299.810,64.109 300.800 " stroke="none" fill="#aab2bb" fill-rule="evenodd"></path><path id="path3" d="M99.900 89.500 C 154.955 89.556,245.045 89.556,300.100 89.500 C 355.155 89.444,310.110 89.398,200.000 89.398 C 89.890 89.398,44.845 89.444,99.900 89.500 M99.900 145.500 C 154.955 145.556,245.045 145.556,300.100 145.500 C 355.155 145.444,310.110 145.398,200.000 145.398 C 89.890 145.398,44.845 145.444,99.900 145.500 M227.462 172.299 C 227.360 172.464,258.399 172.554,296.438 172.498 L 365.600 172.395 365.600 241.407 L 365.600 310.419 351.553 310.390 C 343.827 310.374,337.405 310.462,337.281 310.585 C 337.158 310.709,343.524 310.763,351.428 310.705 L 365.800 310.600 365.800 241.400 L 365.800 172.200 296.724 172.099 C 258.733 172.043,227.565 172.133,227.462 172.299 M32.861 179.487 C 28.445 180.047,26.208 186.499,29.097 190.344 C 31.333 193.318,29.580 193.181,65.637 193.191 L 97.874 193.200 99.606 192.284 C 104.514 189.689,104.710 182.999,99.958 180.200 C 98.671 179.442,38.275 178.800,32.861 179.487 M122.600 179.488 C 116.132 180.453,115.478 189.984,121.702 192.585 C 124.389 193.707,186.745 193.492,189.100 192.352 C 194.084 189.939,194.320 182.743,189.502 180.111 C 188.254 179.430,126.825 178.857,122.600 179.488 M99.785 180.900 C 104.097 183.726,103.163 191.944,98.524 191.991 C 98.042 191.996,97.536 192.180,97.400 192.400 C 97.075 192.926,34.272 192.952,33.295 192.426 C 32.913 192.221,32.019 191.819,31.310 191.533 C 30.566 191.233,29.826 190.545,29.561 189.907 C 29.309 189.298,28.945 188.800,28.751 188.800 C 28.558 188.800,28.400 187.630,28.400 186.200 C 28.400 184.733,28.574 183.600,28.800 183.600 C 29.020 183.600,29.200 183.412,29.200 183.182 C 29.200 182.711,30.646 181.246,31.824 180.524 C 32.407 180.166,40.784 180.041,65.506 180.024 L 98.411 180.000 99.785 180.900 M189.338 180.864 C 191.030 182.024,191.980 183.226,191.991 184.220 C 191.996 184.671,192.220 185.260,192.490 185.530 C 192.877 185.917,192.877 186.185,192.490 186.805 C 192.220 187.236,192.000 187.934,192.000 188.355 C 192.000 189.439,189.319 192.000,188.184 192.000 C 187.669 192.000,187.136 192.180,187.000 192.400 C 186.607 193.035,124.853 192.939,122.719 192.300 C 117.248 190.661,116.453 183.510,121.409 180.524 C 122.003 180.166,130.400 180.041,155.138 180.024 L 188.077 180.000 189.338 180.864 M292.500 207.096 C 293.765 207.175,295.835 207.175,297.100 207.096 C 298.365 207.016,297.330 206.951,294.800 206.951 C 292.270 206.951,291.235 207.016,292.500 207.096 M270.752 210.713 C 270.621 211.507,270.679 211.881,270.901 211.659 C 271.103 211.457,271.201 210.867,271.119 210.346 C 270.993 209.545,270.937 209.602,270.752 210.713 M33.200 213.946 C 26.087 215.500,25.902 226.095,32.965 227.420 C 39.864 228.714,45.820 227.077,47.602 223.396 C 50.752 216.889,43.003 211.804,33.200 213.946 M67.571 213.949 C 61.266 215.281,60.236 223.765,66.004 226.858 C 68.151 228.010,83.390 227.970,85.774 226.806 C 90.511 224.493,90.792 217.927,86.292 214.723 C 84.936 213.757,71.172 213.189,67.571 213.949 M109.093 213.929 C 104.750 214.709,102.272 219.681,104.201 223.745 C 106.740 229.096,120.854 229.109,123.391 223.763 C 126.615 216.968,119.485 212.063,109.093 213.929 M143.600 213.952 C 137.245 215.314,135.945 223.688,141.621 226.702 C 143.360 227.626,143.601 227.644,152.232 227.523 L 161.064 227.400 162.576 226.246 C 166.558 223.207,166.417 217.735,162.285 214.952 L 160.600 213.817 152.800 213.734 C 148.510 213.689,144.370 213.787,143.600 213.952 M182.155 215.201 C 180.169 216.610,179.423 218.252,179.489 221.072 C 179.658 228.287,189.534 229.971,192.490 223.290 C 195.247 217.058,187.780 211.214,182.155 215.201 M44.121 215.205 C 47.200 216.652,48.388 220.892,46.580 223.987 C 44.011 228.386,32.120 228.487,29.267 224.134 C 28.346 222.729,27.986 218.000,28.800 218.000 C 29.020 218.000,29.200 217.773,29.200 217.495 C 29.200 216.989,30.496 215.867,32.128 214.962 C 33.705 214.088,42.106 214.258,44.121 215.205 M85.437 215.221 C 87.137 216.176,88.000 216.967,88.000 217.571 C 88.000 217.807,88.180 218.000,88.400 218.000 C 90.007 218.000,88.334 224.582,86.420 225.792 C 81.883 228.661,65.309 227.561,63.959 224.302 C 63.708 223.696,63.345 223.200,63.151 223.200 C 61.186 223.200,63.541 216.630,66.000 215.254 C 68.184 214.032,83.275 214.007,85.437 215.221 M119.481 214.882 C 123.752 216.721,124.670 222.388,121.203 225.500 C 120.651 225.994,119.896 226.399,119.524 226.400 C 119.152 226.400,118.736 226.580,118.600 226.800 C 117.973 227.814,107.200 226.966,107.200 225.903 C 107.200 225.736,106.945 225.600,106.633 225.600 C 104.565 225.600,103.487 219.493,105.173 217.336 C 107.342 214.560,115.490 213.163,119.481 214.882 M161.500 215.241 C 165.842 217.558,165.664 223.975,161.194 226.260 C 158.172 227.806,141.600 227.503,141.600 225.903 C 141.600 225.736,141.342 225.600,141.027 225.600 C 140.712 225.600,140.340 225.240,140.200 224.800 C 140.060 224.360,139.807 224.000,139.636 224.000 C 139.466 224.000,139.111 223.281,138.848 222.401 C 138.010 219.604,139.193 216.915,142.000 215.239 C 144.141 213.960,159.104 213.962,161.500 215.241 M188.451 214.993 C 190.159 215.745,191.200 216.559,191.200 217.144 C 191.200 217.395,191.380 217.600,191.600 217.600 C 191.820 217.600,192.000 217.962,192.000 218.405 C 192.000 218.848,192.223 219.568,192.496 220.005 C 192.891 220.638,192.891 220.962,192.496 221.595 C 192.223 222.032,192.000 222.680,192.000 223.035 C 192.000 224.429,188.077 227.200,186.103 227.200 C 185.285 227.200,181.601 225.403,181.592 225.000 C 181.586 224.780,181.230 224.150,180.800 223.600 C 177.454 219.323,183.313 212.733,188.451 214.993 M332.940 241.200 C 332.940 243.070,333.009 243.835,333.093 242.900 C 333.177 241.965,333.177 240.435,333.093 239.500 C 333.009 238.565,332.940 239.330,332.940 241.200 M261.600 248.925 C 261.600 248.994,262.185 249.579,262.900 250.225 L 264.200 251.400 263.025 250.100 C 261.930 248.888,261.600 248.616,261.600 248.925 M74.600 250.396 C 74.089 250.613,74.525 250.659,75.806 250.523 C 77.148 250.381,78.307 250.518,79.306 250.935 C 80.128 251.278,80.800 251.469,80.800 251.359 C 80.800 250.423,76.213 249.711,74.600 250.396 M70.193 252.667 C 68.313 253.926,66.243 255.600,66.566 255.600 C 66.691 255.600,67.564 255.015,68.507 254.300 C 69.449 253.585,70.666 252.694,71.210 252.321 C 71.755 251.948,72.107 251.633,71.993 251.621 C 71.879 251.609,71.069 252.080,70.193 252.667 M82.655 253.800 C 83.580 255.379,83.600 255.403,83.600 254.911 C 83.600 254.679,83.229 254.064,82.776 253.544 L 81.953 252.600 82.655 253.800 M83.714 257.400 C 83.717 258.500,83.795 258.903,83.887 258.295 C 83.979 257.686,83.977 256.786,83.882 256.295 C 83.787 255.803,83.711 256.300,83.714 257.400 M64.000 257.800 C 63.028 258.790,62.323 259.600,62.433 259.600 C 62.543 259.600,63.428 258.790,64.400 257.800 C 65.372 256.810,66.077 256.000,65.967 256.000 C 65.857 256.000,64.972 256.810,64.000 257.800 M83.200 260.019 C 83.200 260.621,81.368 262.247,78.600 264.100 C 75.860 265.936,73.110 268.447,71.922 270.200 C 71.474 270.860,72.054 270.354,73.209 269.075 C 74.365 267.796,76.590 265.886,78.155 264.830 C 82.151 262.133,84.691 259.600,83.400 259.600 C 83.290 259.600,83.200 259.789,83.200 260.019 M58.214 265.435 C 57.841 266.004,57.605 266.538,57.689 266.622 C 57.773 266.707,58.158 266.241,58.544 265.588 C 59.406 264.128,59.148 264.009,58.214 265.435 M124.697 269.134 C 124.310 269.287,125.120 269.425,126.497 269.441 C 128.312 269.461,128.670 269.390,127.800 269.182 C 126.231 268.806,125.552 268.796,124.697 269.134 M120.000 271.436 C 118.350 272.437,116.820 273.449,116.600 273.686 C 116.146 274.176,115.970 274.271,120.600 271.510 C 122.360 270.460,123.620 269.604,123.400 269.609 C 123.180 269.614,121.650 270.436,120.000 271.436 M129.400 269.852 C 129.620 270.045,130.520 270.832,131.399 271.601 L 132.998 273.000 131.799 271.666 C 131.140 270.932,130.240 270.145,129.800 269.917 C 129.360 269.689,129.180 269.660,129.400 269.852 M55.071 272.100 C 54.460 273.571,53.834 275.901,54.131 275.599 C 54.423 275.302,55.966 270.800,55.775 270.800 C 55.685 270.800,55.368 271.385,55.071 272.100 M83.400 271.603 C 82.885 271.826,83.313 271.867,84.600 271.718 C 85.700 271.591,86.675 271.423,86.767 271.344 C 87.114 271.045,84.164 271.272,83.400 271.603 M70.186 272.900 L 69.552 274.200 70.367 273.200 C 71.152 272.237,71.408 271.600,71.010 271.600 C 70.906 271.600,70.535 272.185,70.186 272.900 M87.600 271.884 C 87.930 272.005,88.560 272.396,89.000 272.752 C 89.793 273.394,89.794 273.392,89.038 272.500 C 88.619 272.005,87.989 271.614,87.638 271.632 C 87.096 271.658,87.091 271.697,87.600 271.884 M161.738 271.906 C 161.484 272.068,163.222 272.200,165.600 272.200 C 167.978 272.200,169.716 272.068,169.462 271.906 C 169.208 271.744,167.470 271.612,165.600 271.612 C 163.730 271.612,161.992 271.744,161.738 271.906 M158.800 272.818 C 158.362 273.115,158.524 273.152,159.400 272.956 C 160.871 272.627,161.190 272.398,160.167 272.406 C 159.745 272.409,159.130 272.595,158.800 272.818 M133.588 274.323 C 134.082 275.051,134.576 275.557,134.684 275.449 C 134.792 275.341,134.388 274.746,133.784 274.126 L 132.688 273.000 133.588 274.323 M174.476 275.500 C 175.805 276.765,177.409 278.700,178.042 279.800 C 178.675 280.900,179.194 281.610,179.196 281.378 C 179.207 280.126,173.393 273.202,172.330 273.200 C 172.181 273.200,173.147 274.235,174.476 275.500 M282.924 275.800 C 282.926 277.120,283.001 277.612,283.090 276.893 C 283.179 276.174,283.177 275.094,283.086 274.493 C 282.995 273.892,282.922 274.480,282.924 275.800 M79.200 274.999 C 78.437 276.426,78.880 276.584,79.689 275.174 C 80.060 274.528,80.222 274.000,80.049 274.000 C 79.876 274.000,79.494 274.450,79.200 274.999 M114.270 274.679 C 113.648 275.005,113.235 275.369,113.353 275.486 C 113.470 275.604,114.159 275.320,114.883 274.857 C 116.378 273.899,115.975 273.783,114.270 274.679 M92.598 275.537 C 93.034 276.052,93.753 276.659,94.196 276.886 C 95.045 277.321,94.921 277.187,93.003 275.594 C 91.848 274.635,91.834 274.633,92.598 275.537 M53.646 276.467 C 53.621 276.834,53.496 277.464,53.370 277.867 C 53.152 278.562,53.163 278.563,53.597 277.887 C 53.848 277.496,53.973 276.866,53.873 276.487 C 53.711 275.868,53.688 275.866,53.646 276.467 M146.400 276.818 C 145.962 277.115,146.124 277.152,147.000 276.956 C 148.471 276.627,148.790 276.398,147.767 276.406 C 147.345 276.409,146.730 276.595,146.400 276.818 M78.189 277.700 C 78.087 277.975,78.168 278.740,78.368 279.400 C 78.720 280.564,78.732 280.549,78.766 278.900 C 78.799 277.228,78.554 276.717,78.189 277.700 M139.900 277.493 C 140.835 277.577,142.365 277.577,143.300 277.493 C 144.235 277.409,143.470 277.340,141.600 277.340 C 139.730 277.340,138.965 277.409,139.900 277.493 M67.400 278.800 C 67.250 279.273,67.217 279.750,67.327 279.860 C 67.437 279.970,67.650 279.673,67.800 279.200 C 67.950 278.727,67.983 278.250,67.873 278.140 C 67.763 278.030,67.550 278.327,67.400 278.800 M97.800 278.400 C 98.240 278.589,99.140 278.735,99.800 278.725 L 101.000 278.705 99.800 278.400 C 99.140 278.232,98.240 278.086,97.800 278.075 L 97.000 278.056 97.800 278.400 M104.200 278.419 C 103.642 278.671,103.885 278.707,105.000 278.538 C 105.880 278.404,106.675 278.228,106.767 278.147 C 107.110 277.844,104.968 278.071,104.200 278.419 M52.849 279.400 C 52.816 279.840,52.696 280.650,52.583 281.200 L 52.377 282.200 52.806 281.219 C 53.042 280.679,53.161 279.869,53.072 279.419 C 52.913 278.621,52.907 278.621,52.849 279.400 M36.126 280.713 C 35.866 280.879,36.793 281.011,38.188 281.007 C 39.582 281.003,40.639 280.865,40.538 280.700 C 40.298 280.311,36.743 280.321,36.126 280.713 M66.600 281.600 C 66.448 282.291,66.407 282.941,66.509 283.042 C 66.611 283.144,66.809 282.653,66.950 281.950 C 67.283 280.283,66.960 279.960,66.600 281.600 M32.848 282.800 C 31.942 283.679,31.200 284.622,31.200 284.894 C 31.200 285.166,31.591 284.838,32.070 284.164 C 32.548 283.491,33.491 282.548,34.164 282.070 C 34.838 281.591,35.188 281.200,34.943 281.200 C 34.697 281.200,33.755 281.920,32.848 282.800 M42.800 282.131 C 42.800 282.589,50.947 289.156,51.269 288.957 C 51.451 288.845,51.587 288.448,51.572 288.076 C 51.547 287.481,51.509 287.487,51.258 288.126 C 51.003 288.772,50.775 288.683,49.186 287.311 C 45.019 283.717,42.800 281.917,42.800 282.131 M51.833 284.433 C 51.683 285.566,51.641 286.574,51.739 286.672 C 51.837 286.771,52.045 285.928,52.200 284.800 C 52.355 283.672,52.398 282.664,52.294 282.561 C 52.191 282.458,51.984 283.300,51.833 284.433 M79.600 282.663 C 79.600 282.890,79.960 283.402,80.400 283.800 C 80.840 284.198,81.200 284.399,81.200 284.245 C 81.200 284.092,80.840 283.580,80.400 283.108 C 79.960 282.636,79.600 282.435,79.600 282.663 M65.778 284.978 C 65.627 285.781,65.594 286.527,65.704 286.637 C 65.814 286.747,66.027 286.181,66.178 285.378 C 66.328 284.575,66.362 283.828,66.252 283.718 C 66.142 283.608,65.928 284.175,65.778 284.978 M82.600 285.552 C 83.984 287.083,87.157 289.377,87.465 289.068 C 87.580 288.953,87.097 288.560,86.391 288.196 C 85.686 287.831,84.274 286.788,83.254 285.878 C 81.797 284.578,81.657 284.508,82.600 285.552 M178.800 284.838 C 178.800 285.079,178.425 285.844,177.967 286.538 L 177.134 287.800 178.165 286.600 C 179.095 285.517,179.519 284.400,179.000 284.400 C 178.890 284.400,178.800 284.597,178.800 284.838 M123.426 285.558 C 123.305 285.754,123.637 285.889,124.164 285.858 C 124.692 285.826,125.040 285.665,124.938 285.500 C 124.682 285.085,123.695 285.123,123.426 285.558 M30.617 286.724 C 30.481 287.343,30.534 288.288,30.736 288.824 C 31.031 289.612,31.096 289.396,31.074 287.700 C 31.043 285.307,30.965 285.139,30.617 286.724 M162.800 286.420 C 162.092 286.660,162.333 286.697,163.628 286.545 C 165.192 286.362,165.655 286.487,166.828 287.411 L 168.200 288.491 166.894 287.245 C 165.574 285.987,164.632 285.797,162.800 286.420 M157.200 288.000 C 156.667 288.345,156.667 288.388,157.200 288.388 C 157.530 288.388,158.070 288.213,158.400 288.000 C 158.933 287.655,158.933 287.612,158.400 287.612 C 158.070 287.612,157.530 287.787,157.200 288.000 M65.056 289.845 C 64.915 290.872,64.824 292.542,64.854 293.556 C 64.889 294.751,65.029 294.143,65.251 291.830 C 65.616 288.040,65.485 286.713,65.056 289.845 M112.200 290.400 C 111.429 290.731,111.431 290.745,112.276 290.772 C 112.758 290.787,113.264 290.620,113.400 290.400 C 113.692 289.927,113.301 289.927,112.200 290.400 M149.200 290.400 C 148.376 290.664,148.341 290.726,149.000 290.754 C 149.440 290.773,150.070 290.613,150.400 290.400 C 151.101 289.947,150.614 289.947,149.200 290.400 M91.600 291.182 C 91.930 291.405,92.545 291.591,92.967 291.594 C 93.990 291.602,93.671 291.373,92.200 291.044 C 91.324 290.848,91.162 290.885,91.600 291.182 M109.200 291.200 C 108.376 291.464,108.341 291.526,109.000 291.554 C 109.440 291.573,110.070 291.413,110.400 291.200 C 111.101 290.747,110.614 290.747,109.200 291.200 M146.400 291.200 C 145.576 291.464,145.541 291.526,146.200 291.554 C 146.640 291.573,147.270 291.413,147.600 291.200 C 148.301 290.747,147.814 290.747,146.400 291.200 M32.000 291.312 C 32.000 291.415,33.620 292.885,35.600 294.578 C 37.580 296.272,39.193 297.509,39.185 297.329 C 39.177 297.148,38.476 296.460,37.627 295.800 C 36.779 295.140,35.166 293.818,34.042 292.863 C 32.919 291.907,32.000 291.210,32.000 291.312 M94.631 292.050 C 94.750 292.242,95.677 292.400,96.690 292.400 C 97.704 292.400,98.458 292.334,98.367 292.253 C 97.990 291.921,94.432 291.728,94.631 292.050 M105.000 292.000 L 103.000 292.274 104.800 292.309 C 105.790 292.328,106.960 292.189,107.400 292.000 C 108.313 291.608,107.862 291.608,105.000 292.000 M143.400 292.000 C 142.293 292.282,142.277 292.309,143.200 292.347 C 143.750 292.369,144.470 292.213,144.800 292.000 C 145.481 291.560,145.129 291.560,143.400 292.000 M137.502 292.944 C 138.515 293.165,139.708 293.170,140.448 292.957 C 141.464 292.666,141.151 292.598,138.746 292.587 C 135.995 292.575,135.913 292.599,137.502 292.944 M39.600 297.714 C 39.600 297.818,40.628 298.780,41.884 299.851 C 43.140 300.923,44.039 301.591,43.883 301.336 C 43.539 300.777,39.600 297.446,39.600 297.714 M64.245 301.492 C 64.050 304.261,63.744 305.767,63.185 306.716 C 62.752 307.448,62.580 307.936,62.802 307.799 C 63.941 307.095,65.725 297.600,64.718 297.600 C 64.608 297.600,64.395 299.351,64.245 301.492 M337.293 301.600 C 337.293 302.370,337.375 302.685,337.476 302.300 C 337.576 301.915,337.576 301.285,337.476 300.900 C 337.375 300.515,337.293 300.830,337.293 301.600 M44.520 301.864 C 44.675 302.119,45.739 303.109,46.883 304.064 C 48.027 305.019,48.836 305.591,48.680 305.336 C 48.525 305.081,47.461 304.091,46.317 303.136 C 45.173 302.181,44.364 301.609,44.520 301.864 M255.340 306.400 C 255.340 308.270,255.409 309.035,255.493 308.100 C 255.577 307.165,255.577 305.635,255.493 304.700 C 255.409 303.765,255.340 304.530,255.340 306.400 M337.731 306.600 C 337.733 308.140,337.805 308.721,337.892 307.891 C 337.979 307.061,337.977 305.801,337.889 305.091 C 337.800 304.381,337.729 305.060,337.731 306.600 M49.200 305.829 C 49.200 306.111,49.617 306.479,51.700 308.033 C 53.463 309.349,52.968 308.634,51.000 307.021 C 50.010 306.210,49.200 305.674,49.200 305.829 M53.200 308.979 C 53.200 309.946,59.196 310.974,59.739 310.100 C 59.842 309.935,58.973 309.860,57.809 309.934 C 56.415 310.023,55.268 309.849,54.447 309.424 C 53.761 309.070,53.200 308.869,53.200 308.979 M227.462 310.500 C 227.564 310.665,234.057 310.800,241.890 310.800 C 249.724 310.800,256.039 310.705,255.923 310.590 C 255.589 310.256,227.256 310.167,227.462 310.500 " stroke="none" fill="#b9c1c3" fill-rule="evenodd"></path><path id="path4" d="M99.900 89.900 C 154.955 89.956,245.045 89.956,300.100 89.900 C 355.155 89.844,310.110 89.798,200.000 89.798 C 89.890 89.798,44.845 89.844,99.900 89.900 M99.900 144.700 C 154.955 144.756,245.045 144.756,300.100 144.700 C 355.155 144.644,310.110 144.598,200.000 144.598 C 89.890 144.598,44.845 144.644,99.900 144.700 M227.785 172.899 C 227.680 173.174,227.641 204.180,227.697 241.800 L 227.800 310.200 241.400 310.200 L 255.000 310.200 255.025 306.400 L 255.050 302.600 254.910 306.300 L 254.770 310.000 241.385 310.000 L 228.000 310.000 228.000 241.400 L 228.000 172.800 296.600 172.800 L 365.200 172.800 365.200 241.400 L 365.200 310.000 351.800 310.000 L 338.400 310.000 338.372 306.500 C 338.356 304.575,338.212 302.666,338.052 302.257 C 337.755 301.502,337.915 308.978,338.215 309.905 C 338.344 310.302,341.284 310.388,351.889 310.305 L 365.400 310.200 365.400 241.400 L 365.400 172.600 296.688 172.499 C 241.928 172.418,227.937 172.499,227.785 172.899 M272.200 199.200 C 273.059 200.080,273.852 200.800,273.962 200.800 C 274.072 200.800,273.459 200.080,272.600 199.200 C 271.741 198.320,270.948 197.600,270.838 197.600 C 270.728 197.600,271.341 198.320,272.200 199.200 M269.309 199.600 C 269.309 200.590,269.387 200.995,269.482 200.500 C 269.578 200.005,269.578 199.195,269.482 198.700 C 269.387 198.205,269.309 198.610,269.309 199.600 M270.093 205.200 C 270.093 205.970,270.175 206.285,270.276 205.900 C 270.376 205.515,270.376 204.885,270.276 204.500 C 270.175 204.115,270.093 204.430,270.093 205.200 M285.700 206.276 C 286.085 206.376,286.715 206.376,287.100 206.276 C 287.485 206.175,287.170 206.093,286.400 206.093 C 285.630 206.093,285.315 206.175,285.700 206.276 M290.700 206.697 C 292.295 206.773,294.905 206.773,296.500 206.697 C 298.095 206.621,296.790 206.559,293.600 206.559 C 290.410 206.559,289.105 206.621,290.700 206.697 M270.520 209.200 C 270.520 210.410,270.595 210.905,270.687 210.300 C 270.778 209.695,270.778 208.705,270.687 208.100 C 270.595 207.495,270.520 207.990,270.520 209.200 M269.200 213.684 C 269.200 213.804,268.928 214.554,268.595 215.351 C 268.262 216.148,268.079 216.800,268.189 216.800 C 268.506 216.800,269.633 213.900,269.405 213.672 C 269.292 213.559,269.200 213.565,269.200 213.684 M259.456 238.484 C 259.321 238.988,259.235 240.390,259.264 241.600 C 259.315 243.685,259.332 243.643,259.603 240.800 C 259.904 237.637,259.862 236.971,259.456 238.484 M330.378 250.300 L 329.000 251.800 330.500 250.422 C 331.325 249.663,332.000 248.988,332.000 248.922 C 332.000 248.616,331.662 248.904,330.378 250.300 M74.900 250.782 C 67.019 252.704,57.631 264.532,54.089 277.000 C 53.332 279.662,53.061 280.901,51.964 286.700 C 51.434 289.501,51.119 289.672,49.400 288.096 C 48.740 287.491,47.210 286.188,46.000 285.200 C 44.790 284.212,43.558 283.174,43.262 282.892 C 36.743 276.698,27.103 285.624,33.500 291.932 C 37.067 295.450,52.824 308.480,54.481 309.283 C 58.875 311.411,63.976 308.149,63.993 303.200 C 64.061 282.841,68.528 270.974,78.844 263.745 C 82.468 261.205,83.596 259.720,83.599 257.484 C 83.603 253.082,79.243 249.722,74.900 250.782 M273.200 266.525 C 273.200 266.594,273.785 267.179,274.500 267.825 L 275.800 269.000 274.625 267.700 C 273.530 266.488,273.200 266.216,273.200 266.525 M122.600 270.527 C 121.720 271.017,119.830 272.116,118.400 272.969 C 105.611 280.601,96.365 280.939,90.400 273.994 C 85.468 268.253,76.127 274.793,79.583 281.568 C 81.099 284.538,87.845 289.533,92.000 290.761 C 92.990 291.054,94.322 291.452,94.960 291.647 C 100.275 293.266,111.349 291.228,120.354 286.973 C 124.918 284.817,124.433 284.813,126.935 287.024 C 132.568 292.001,138.417 293.312,145.700 291.229 C 149.390 290.174,150.076 289.979,151.300 289.638 C 152.015 289.438,155.015 288.538,157.968 287.638 C 164.419 285.669,165.522 285.610,167.286 287.137 C 172.743 291.858,181.665 286.315,178.300 280.295 C 174.806 274.044,167.131 270.326,161.919 272.358 C 161.413 272.555,160.190 272.936,159.200 273.204 C 158.210 273.472,157.040 273.844,156.600 274.030 C 145.090 278.909,137.314 279.028,133.528 274.383 C 129.386 269.303,126.577 268.311,122.600 270.527 M282.396 275.918 L 282.592 279.000 282.716 276.240 C 282.784 274.721,282.695 273.335,282.520 273.158 C 282.344 272.981,282.288 274.223,282.396 275.918 M330.086 290.600 C 330.895 291.150,331.699 291.600,331.872 291.600 C 332.044 291.600,331.523 291.150,330.714 290.600 C 329.905 290.050,329.101 289.600,328.928 289.600 C 328.756 289.600,329.277 290.050,330.086 290.600 M255.449 299.015 C 255.312 299.373,255.221 300.146,255.246 300.733 C 255.280 301.532,255.370 301.398,255.604 300.200 C 255.935 298.500,255.862 297.940,255.449 299.015 " stroke="none" fill="#8494c4" fill-rule="evenodd"> </path>
    </g>
</svg>