<svg width="64" height="64" viewBox="0 0 64 64" fill="none" xmlns="http://www.w3.org/2000/svg">
<path d="M28.8 48H35.2V28.8H28.8V48ZM32 22.4C32.9067 22.4 33.6672 22.0928 34.2816 21.4784C34.896 20.864 35.2021 20.1045 35.2 19.2C35.2 18.2933 34.8928 17.5328 34.2784 16.9184C33.664 16.304 32.9045 15.9979 32 16C31.0933 16 30.3328 16.3072 29.7184 16.9216C29.104 17.536 28.7979 18.2955 28.8 19.2C28.8 20.1067 29.1072 20.8672 29.7216 21.4816C30.336 22.096 31.0955 22.4021 32 22.4ZM32 64C27.5733 64 23.4133 63.1595 19.52 61.4784C15.6267 59.7973 12.24 57.5179 9.36 54.64C6.48 51.76 4.20053 48.3733 2.5216 44.48C0.842667 40.5867 0.00213333 36.4267 0 32C0 27.5733 0.840534 23.4133 2.5216 19.52C4.20267 15.6267 6.48213 12.24 9.36 9.36C12.24 6.48 15.6267 4.20053 19.52 2.5216C23.4133 0.842667 27.5733 0.00213333 32 0C36.4267 0 40.5867 0.840534 44.48 2.5216C48.3733 4.20267 51.76 6.48213 54.64 9.36C57.52 12.24 59.8005 15.6267 61.4816 19.52C63.1627 23.4133 64.0021 27.5733 64 32C64 36.4267 63.1595 40.5867 61.4784 44.48C59.7973 48.3733 57.5179 51.76 54.64 54.64C51.76 57.52 48.3733 59.8005 44.48 61.4816C40.5867 63.1627 36.4267 64.0021 32 64ZM32 57.6C39.1467 57.6 45.2 55.12 50.16 50.16C55.12 45.2 57.6 39.1467 57.6 32C57.6 24.8533 55.12 18.8 50.16 13.84C45.2 8.88 39.1467 6.4 32 6.4C24.8533 6.4 18.8 8.88 13.84 13.84C8.88 18.8 6.4 24.8533 6.4 32C6.4 39.1467 8.88 45.2 13.84 50.16C18.8 55.12 24.8533 57.6 32 57.6Z" fill="#3AA5F3"/>
</svg>
