<svg width="60" height="60" viewBox="0 0 60 60" fill="none" xmlns="http://www.w3.org/2000/svg">
<circle cx="30" cy="30" r="30" fill="#1C3D94"/>
<path d="M32.1042 47.5C32.1042 46.7266 31.8492 46.0645 31.3392 45.5137C30.8292 44.9629 30.2161 44.6875 29.5 44.6875C28.7839 44.6875 28.1708 44.9629 27.6608 45.5137C27.1508 46.0645 26.8958 46.7266 26.8958 47.5C26.8958 48.2734 27.1508 48.9355 27.6608 49.4863C28.1708 50.0371 28.7839 50.3125 29.5 50.3125C30.2161 50.3125 30.8292 50.0371 31.3392 49.4863C31.8492 48.9355 32.1042 48.2734 32.1042 47.5ZM38.875 41.875V17.125C38.875 16.8203 38.7719 16.5566 38.5658 16.334C38.3596 16.1113 38.1155 16 37.8333 16H21.1667C20.8845 16 20.6404 16.1113 20.4342 16.334C20.2281 16.5566 20.125 16.8203 20.125 17.125V41.875C20.125 42.1797 20.2281 42.4434 20.4342 42.666C20.6404 42.8887 20.8845 43 21.1667 43H37.8333C38.1155 43 38.3596 42.8887 38.5658 42.666C38.7719 42.4434 38.875 42.1797 38.875 41.875ZM32.625 12.0625C32.625 11.6875 32.4514 11.5 32.1042 11.5H26.8958C26.5486 11.5 26.375 11.6875 26.375 12.0625C26.375 12.4375 26.5486 12.625 26.8958 12.625H32.1042C32.4514 12.625 32.625 12.4375 32.625 12.0625ZM42 11.5V47.5C42 48.7188 41.5877 49.7734 40.763 50.6641C39.9384 51.5547 38.9618 52 37.8333 52H21.1667C20.0382 52 19.0616 51.5547 18.237 50.6641C17.4123 49.7734 17 48.7188 17 47.5V11.5C17 10.2812 17.4123 9.22656 18.237 8.33594C19.0616 7.44531 20.0382 7 21.1667 7H37.8333C38.9618 7 39.9384 7.44531 40.763 8.33594C41.5877 9.22656 42 10.2812 42 11.5Z" fill="white"/>
</svg>
