<svg id="svg" version="1.1" xmlns="http://www.w3.org/2000/svg" xmlns:xlink="http://www.w3.org/1999/xlink" width="400" height="406.44007155635063" viewBox="0, 0, 400,406.44007155635063"><g id="svgg">
<path id="path0" d="M91.873 105.060 C 91.723 105.210,91.600 149.313,91.600 203.067 L 91.600 300.800 127.198 300.800 L 162.797 300.800 162.898 252.105 C 162.988 209.186,163.071 203.399,163.600 203.309 C 164.179 203.211,167.600 207.566,167.600 208.401 C 167.600 208.621,167.735 208.808,167.900 208.819 C 168.065 208.829,168.786 209.684,169.502 210.719 C 171.693 213.887,176.655 220.882,178.271 223.083 C 179.112 224.228,180.209 225.758,180.709 226.483 C 182.275 228.751,189.342 238.753,190.600 240.481 C 191.260 241.388,191.980 242.400,192.200 242.731 C 192.758 243.571,201.119 255.310,201.507 255.800 C 201.681 256.020,202.400 257.059,203.104 258.109 C 203.809 259.158,204.569 260.238,204.794 260.509 C 205.620 261.500,212.807 271.627,213.796 273.194 C 214.357 274.083,215.074 275.123,215.389 275.505 C 216.467 276.813,225.600 289.626,225.600 289.830 C 225.600 289.942,225.779 290.251,225.997 290.517 C 227.419 292.247,229.296 294.793,231.200 297.577 L 233.400 300.792 269.200 300.696 L 305.000 300.600 305.101 202.947 L 305.202 105.294 304.301 105.052 C 302.653 104.611,235.610 104.767,234.774 105.214 C 234.015 105.620,234.000 106.611,234.000 156.214 C 234.000 189.976,233.866 206.800,233.596 206.800 C 232.895 206.800,231.047 204.704,229.013 201.600 C 227.931 199.950,226.944 198.510,226.818 198.400 C 226.693 198.290,225.202 196.130,223.506 193.600 C 221.809 191.070,220.060 188.550,219.620 188.000 C 219.179 187.450,218.814 186.855,218.809 186.679 C 218.804 186.502,217.855 185.052,216.700 183.457 C 215.545 181.862,214.420 180.262,214.200 179.901 C 213.404 178.595,206.594 168.595,206.368 168.400 C 206.240 168.290,205.116 166.670,203.870 164.800 C 201.629 161.436,200.609 159.938,194.016 150.331 C 187.796 141.270,185.003 137.161,184.600 136.479 C 184.380 136.107,183.733 135.172,183.162 134.402 C 182.591 133.631,180.172 130.120,177.786 126.600 C 175.401 123.080,172.718 119.172,171.825 117.915 C 170.931 116.658,169.596 114.639,168.857 113.429 C 168.119 112.218,167.261 111.016,166.950 110.759 C 166.639 110.501,166.114 109.730,165.782 109.045 C 165.450 108.360,164.656 107.170,164.018 106.400 L 162.858 105.000 127.502 104.894 C 108.056 104.835,92.023 104.910,91.873 105.060 " stroke="none" fill="#fafbfb" fill-rule="evenodd"></path><path id="path1" d="M0.000 203.200 L 0.000 406.400 200.000 406.400 L 400.000 406.400 400.000 203.200 L 400.000 0.000 200.000 0.000 L 0.000 0.000 0.000 203.200 M163.211 104.006 C 163.922 104.386,165.824 106.882,167.197 109.234 C 167.528 109.803,168.492 111.243,169.338 112.434 C 170.183 113.625,172.837 117.480,175.234 121.000 C 177.631 124.520,179.735 127.580,179.909 127.800 C 180.649 128.737,184.800 134.879,184.800 135.038 C 184.800 135.134,185.565 136.273,186.500 137.569 C 187.435 138.866,188.425 140.258,188.700 140.663 C 188.975 141.068,190.495 143.290,192.078 145.600 C 193.661 147.910,196.550 152.140,198.498 155.000 C 200.446 157.860,202.963 161.550,204.093 163.200 C 205.222 164.850,207.190 167.730,208.466 169.600 C 209.742 171.470,211.470 173.990,212.307 175.200 C 213.144 176.410,216.071 180.730,218.812 184.800 C 221.552 188.870,223.886 192.290,223.997 192.400 C 224.109 192.510,225.100 193.947,226.200 195.593 C 230.042 201.342,232.296 204.370,232.547 204.119 C 232.686 203.980,232.800 181.590,232.800 154.362 C 232.800 109.891,232.864 104.793,233.429 104.229 C 234.167 103.490,304.442 103.260,305.600 103.992 C 306.350 104.465,306.734 299.828,305.988 301.222 C 305.580 301.984,304.825 302.000,269.456 302.000 L 233.339 302.000 232.519 301.100 C 231.862 300.379,227.560 294.475,225.597 291.600 C 225.167 290.970,217.870 280.666,216.391 278.600 C 214.156 275.479,201.876 258.198,197.122 251.485 C 194.195 247.352,191.350 243.367,190.800 242.630 C 190.250 241.893,189.573 240.955,189.296 240.545 C 189.020 240.135,187.571 238.090,186.077 236.000 C 184.583 233.910,182.483 230.940,181.411 229.400 C 178.615 225.384,177.448 223.738,172.560 216.916 C 170.162 213.569,167.317 209.564,166.239 208.016 C 165.160 206.467,164.125 205.200,163.939 205.200 C 163.752 205.200,163.600 226.695,163.600 252.967 C 163.600 279.239,163.491 301.019,163.357 301.367 C 163.037 302.201,91.711 302.351,90.880 301.520 C 90.241 300.881,90.175 105.567,90.814 104.374 C 91.291 103.482,161.565 103.125,163.211 104.006 " stroke="none" fill="#04bc1c" fill-rule="evenodd"></path><path id="path2" d="M91.467 104.667 C 90.808 105.326,91.172 301.104,91.833 301.357 C 92.656 301.673,161.120 301.664,162.300 301.348 L 163.200 301.107 163.200 252.520 C 163.200 213.830,163.302 203.967,163.700 204.096 C 163.975 204.186,165.592 206.226,167.293 208.630 C 168.994 211.033,172.827 216.420,175.810 220.600 C 178.794 224.780,183.732 231.710,186.784 236.000 C 189.837 240.290,192.723 244.340,193.197 245.000 C 196.748 249.937,204.178 260.389,204.726 261.219 C 205.097 261.779,208.010 265.893,211.200 270.360 C 214.390 274.828,217.720 279.516,218.600 280.779 C 223.709 288.111,231.443 298.921,232.399 300.067 L 233.512 301.400 267.856 301.519 C 286.745 301.585,302.965 301.529,303.901 301.395 L 305.602 301.151 305.501 202.875 L 305.400 104.600 269.600 104.600 L 233.800 104.600 233.600 154.995 C 233.381 210.213,233.506 207.723,231.140 203.909 C 230.557 202.969,228.776 200.310,227.184 198.000 C 224.179 193.643,219.577 186.896,212.586 176.600 C 210.346 173.300,207.150 168.620,205.486 166.200 C 201.426 160.298,196.267 152.757,190.983 145.000 C 188.586 141.480,185.940 137.610,185.105 136.400 C 184.269 135.190,182.605 132.760,181.406 131.000 C 175.042 121.657,173.385 119.220,169.028 112.800 C 166.415 108.950,164.007 105.485,163.676 105.100 C 163.059 104.380,92.179 103.955,91.467 104.667 M164.018 106.400 C 164.656 107.170,165.450 108.360,165.782 109.045 C 166.114 109.730,166.639 110.501,166.950 110.759 C 167.261 111.016,168.119 112.218,168.857 113.429 C 169.596 114.639,170.931 116.658,171.825 117.915 C 172.718 119.172,175.401 123.080,177.786 126.600 C 180.172 130.120,182.591 133.631,183.162 134.402 C 183.733 135.172,184.380 136.107,184.600 136.479 C 185.003 137.161,187.796 141.270,194.016 150.331 C 200.609 159.938,201.629 161.436,203.870 164.800 C 205.116 166.670,206.240 168.290,206.368 168.400 C 206.594 168.595,213.404 178.595,214.200 179.901 C 214.420 180.262,215.545 181.862,216.700 183.457 C 217.855 185.052,218.804 186.502,218.809 186.679 C 218.814 186.855,219.179 187.450,219.620 188.000 C 220.060 188.550,221.809 191.070,223.506 193.600 C 225.202 196.130,226.693 198.290,226.818 198.400 C 226.944 198.510,227.931 199.950,229.013 201.600 C 231.047 204.704,232.895 206.800,233.596 206.800 C 233.866 206.800,234.000 189.976,234.000 156.214 C 234.000 106.611,234.015 105.620,234.774 105.214 C 235.610 104.767,302.653 104.611,304.301 105.052 L 305.202 105.294 305.101 202.947 L 305.000 300.600 269.200 300.696 L 233.400 300.792 231.200 297.577 C 229.296 294.793,227.419 292.247,225.997 290.517 C 225.779 290.251,225.600 289.942,225.600 289.830 C 225.600 289.626,216.467 276.813,215.389 275.505 C 215.074 275.123,214.357 274.083,213.796 273.194 C 212.807 271.627,205.620 261.500,204.794 260.509 C 204.569 260.238,203.809 259.158,203.104 258.109 C 202.400 257.059,201.681 256.020,201.507 255.800 C 201.119 255.310,192.758 243.571,192.200 242.731 C 191.980 242.400,191.260 241.388,190.600 240.481 C 189.342 238.753,182.275 228.751,180.709 226.483 C 180.209 225.758,179.112 224.228,178.271 223.083 C 176.655 220.882,171.693 213.887,169.502 210.719 C 168.786 209.684,168.065 208.829,167.900 208.819 C 167.735 208.808,167.600 208.621,167.600 208.401 C 167.600 207.566,164.179 203.211,163.600 203.309 C 163.071 203.399,162.988 209.186,162.898 252.105 L 162.797 300.800 127.198 300.800 L 91.600 300.800 91.600 203.067 C 91.600 149.313,91.723 105.210,91.873 105.060 C 92.023 104.910,108.056 104.835,127.502 104.894 L 162.858 105.000 164.018 106.400 " stroke="none" fill="#6ee4aa" fill-rule="evenodd"></path><path id="path3" d="M305.797 203.000 C 305.797 257.120,305.843 279.201,305.900 252.068 C 305.957 224.935,305.957 180.655,305.900 153.668 C 305.843 126.681,305.797 148.880,305.797 203.000 M90.997 203.200 C 90.997 257.210,91.043 279.305,91.100 252.300 C 91.157 225.295,91.157 181.105,91.100 154.100 C 91.043 127.095,90.997 149.190,90.997 203.200 M233.298 155.271 C 233.205 202.383,233.161 205.151,232.500 205.324 C 231.844 205.496,231.845 205.510,232.513 205.554 C 233.638 205.627,233.611 207.023,233.501 155.000 L 233.397 105.400 233.298 155.271 M170.255 114.600 C 171.180 116.179,171.200 116.203,171.200 115.711 C 171.200 115.479,170.829 114.864,170.376 114.344 L 169.553 113.400 170.255 114.600 M172.837 118.400 C 173.996 120.196,174.000 120.201,173.998 119.767 C 173.997 119.565,173.532 118.860,172.965 118.200 L 171.934 117.000 172.837 118.400 M175.482 122.300 C 176.743 124.279,178.400 126.526,178.400 126.255 C 178.400 125.916,175.187 121.200,174.956 121.200 C 174.860 121.200,175.097 121.695,175.482 122.300 M179.234 127.847 C 179.765 128.533,180.280 129.023,180.379 128.935 C 180.477 128.847,180.043 128.286,179.413 127.688 L 178.269 126.600 179.234 127.847 M185.600 137.200 C 186.070 137.860,186.544 138.400,186.654 138.400 C 186.764 138.400,186.470 137.860,186.000 137.200 C 185.530 136.540,185.056 136.000,184.946 136.000 C 184.836 136.000,185.130 136.540,185.600 137.200 M193.200 148.400 C 193.670 149.060,194.144 149.600,194.254 149.600 C 194.364 149.600,194.070 149.060,193.600 148.400 C 193.130 147.740,192.656 147.200,192.546 147.200 C 192.436 147.200,192.730 147.740,193.200 148.400 M207.200 168.800 C 207.670 169.460,208.144 170.000,208.254 170.000 C 208.364 170.000,208.070 169.460,207.600 168.800 C 207.130 168.140,206.656 167.600,206.546 167.600 C 206.436 167.600,206.730 168.140,207.200 168.800 M216.985 183.100 C 217.602 184.035,218.183 184.800,218.276 184.800 C 218.564 184.800,217.033 182.366,216.432 181.869 C 216.120 181.611,216.368 182.165,216.985 183.100 M220.000 187.600 C 220.470 188.260,220.944 188.800,221.054 188.800 C 221.164 188.800,220.870 188.260,220.400 187.600 C 219.930 186.940,219.456 186.400,219.346 186.400 C 219.236 186.400,219.530 186.940,220.000 187.600 M223.219 192.295 C 223.727 193.007,224.236 193.497,224.350 193.383 C 224.464 193.269,224.049 192.686,223.426 192.088 L 222.295 191.000 223.219 192.295 M228.009 199.100 C 228.014 199.265,228.385 199.850,228.833 200.400 L 229.648 201.400 229.014 200.100 C 228.411 198.865,227.989 198.445,228.009 199.100 M163.298 252.500 L 163.397 301.000 163.500 252.677 C 163.578 216.373,163.718 204.426,164.063 204.639 C 164.348 204.815,164.415 204.747,164.238 204.462 C 164.081 204.208,163.783 204.000,163.576 204.000 C 163.343 204.000,163.237 222.392,163.298 252.500 M173.600 218.000 C 174.070 218.660,174.544 219.200,174.654 219.200 C 174.764 219.200,174.470 218.660,174.000 218.000 C 173.530 217.340,173.056 216.800,172.946 216.800 C 172.836 216.800,173.130 217.340,173.600 218.000 M184.400 233.200 C 184.870 233.860,185.344 234.400,185.454 234.400 C 185.564 234.400,185.270 233.860,184.800 233.200 C 184.330 232.540,183.856 232.000,183.746 232.000 C 183.636 232.000,183.930 232.540,184.400 233.200 M188.800 239.530 C 188.800 239.712,189.279 240.297,189.863 240.830 L 190.927 241.800 189.988 240.500 C 189.012 239.148,188.800 238.975,188.800 239.530 M191.597 243.244 C 192.046 244.038,192.807 245.028,193.289 245.444 C 194.163 246.198,194.163 246.197,193.265 245.000 C 190.993 241.969,190.707 241.668,191.597 243.244 M194.000 246.583 C 194.000 246.743,194.360 247.331,194.800 247.891 C 195.240 248.450,195.600 248.777,195.600 248.617 C 195.600 248.457,195.240 247.869,194.800 247.309 C 194.360 246.750,194.000 246.423,194.000 246.583 M197.200 251.200 C 197.670 251.860,198.144 252.400,198.254 252.400 C 198.364 252.400,198.070 251.860,197.600 251.200 C 197.130 250.540,196.656 250.000,196.546 250.000 C 196.436 250.000,196.730 250.540,197.200 251.200 M199.964 255.133 C 200.180 255.536,200.671 256.121,201.055 256.433 C 201.487 256.784,201.390 256.504,200.801 255.700 C 199.751 254.265,199.357 253.998,199.964 255.133 M208.000 266.400 C 208.470 267.060,208.944 267.600,209.054 267.600 C 209.164 267.600,208.870 267.060,208.400 266.400 C 207.930 265.740,207.456 265.200,207.346 265.200 C 207.236 265.200,207.530 265.740,208.000 266.400 M215.514 277.004 C 215.741 277.447,216.348 278.166,216.863 278.602 C 217.767 279.366,217.765 279.352,216.806 278.197 C 215.213 276.279,215.079 276.155,215.514 277.004 M231.223 299.000 C 232.405 300.754,233.379 301.598,234.170 301.554 C 234.972 301.509,234.973 301.501,234.200 301.328 C 233.760 301.230,232.789 300.486,232.042 299.675 C 231.295 298.864,230.926 298.560,231.223 299.000 " stroke="none" fill="#54d475" fill-rule="evenodd"></path><path id="path4" d="M90.814 104.374 C 90.175 105.567,90.241 300.881,90.880 301.520 C 91.769 302.409,163.041 302.193,163.381 301.300 C 163.595 300.739,163.548 300.699,163.144 301.100 C 162.613 301.627,92.788 301.877,91.433 301.357 C 90.738 301.091,90.438 105.989,91.131 104.898 C 91.761 103.905,163.601 104.398,164.156 105.399 C 164.682 106.345,166.800 108.922,166.800 108.615 C 166.800 108.119,163.849 104.348,163.182 103.990 C 161.563 103.124,91.284 103.496,90.814 104.374 M233.429 104.229 C 232.864 104.793,232.800 109.895,232.800 154.405 C 232.800 199.858,232.681 205.950,231.832 203.740 C 231.694 203.380,231.483 203.184,231.363 203.304 C 231.028 203.639,232.126 205.200,232.696 205.200 C 233.099 205.200,233.200 195.188,233.200 155.476 C 233.200 116.329,233.306 105.608,233.700 105.070 C 234.166 104.433,236.637 104.394,270.100 104.493 C 289.845 104.552,306.000 104.484,306.000 104.343 C 306.000 103.672,302.445 103.600,269.396 103.600 C 237.803 103.600,233.991 103.667,233.429 104.229 M306.197 203.000 C 306.197 256.900,306.243 278.891,306.300 251.868 C 306.357 224.845,306.357 180.745,306.300 153.868 C 306.243 126.991,306.197 149.100,306.197 203.000 M169.164 112.733 C 169.380 113.136,169.874 113.721,170.263 114.033 C 170.764 114.435,170.704 114.222,170.057 113.300 C 169.069 111.891,168.531 111.549,169.164 112.733 M174.000 119.930 C 174.000 120.112,174.479 120.697,175.063 121.230 L 176.127 122.200 175.188 120.900 C 174.212 119.548,174.000 119.375,174.000 119.930 M180.400 129.222 C 180.400 129.454,180.957 130.219,181.638 130.922 L 182.877 132.200 181.785 130.500 C 180.655 128.739,180.400 128.504,180.400 129.222 M182.815 132.600 C 182.829 133.094,184.362 134.973,184.574 134.757 C 184.659 134.670,184.295 134.060,183.766 133.400 C 183.237 132.740,182.809 132.380,182.815 132.600 M187.775 139.800 C 188.334 140.680,189.199 142.074,189.696 142.897 C 190.193 143.720,190.738 144.395,190.906 144.397 C 191.307 144.401,189.388 141.404,187.579 139.200 C 187.071 138.582,187.146 138.811,187.775 139.800 M192.400 146.488 C 192.400 146.900,195.598 151.500,196.268 152.052 C 196.634 152.353,195.979 151.250,194.813 149.600 C 192.402 146.190,192.400 146.188,192.400 146.488 M196.800 152.951 C 196.800 153.348,200.009 157.958,200.495 158.258 C 200.730 158.404,200.324 157.641,199.592 156.562 C 197.829 153.964,196.800 152.633,196.800 152.951 M202.393 161.300 C 203.132 162.345,203.805 163.200,203.890 163.200 C 204.208 163.200,202.571 160.721,201.826 160.073 C 201.400 159.703,201.655 160.255,202.393 161.300 M206.362 167.129 C 206.605 167.584,207.001 168.077,207.242 168.226 C 207.556 168.420,207.554 168.262,207.238 167.671 C 206.995 167.216,206.599 166.723,206.358 166.574 C 206.044 166.380,206.046 166.538,206.362 167.129 M208.400 170.314 C 208.400 170.513,208.786 171.019,209.258 171.438 C 210.110 172.195,210.113 172.194,209.656 171.322 C 209.146 170.350,208.400 169.751,208.400 170.314 M210.400 173.122 C 210.400 173.325,210.948 174.101,211.618 174.846 L 212.836 176.200 211.978 174.699 C 211.099 173.162,210.400 172.463,210.400 173.122 M212.828 176.600 C 212.826 177.108,214.362 178.971,214.592 178.741 C 214.687 178.646,214.329 178.036,213.797 177.384 C 213.264 176.733,212.828 176.380,212.828 176.600 M214.811 179.500 C 214.817 179.665,215.368 180.430,216.036 181.200 L 217.251 182.600 216.172 180.900 C 215.115 179.234,214.789 178.899,214.811 179.500 M218.436 184.796 C 219.111 185.894,219.857 186.912,220.094 187.058 C 220.578 187.358,220.425 187.079,218.688 184.500 C 217.110 182.157,216.936 182.360,218.436 184.796 M226.813 197.129 C 226.806 197.419,227.070 197.927,227.400 198.257 C 228.171 199.028,228.180 198.391,227.413 197.376 C 227.044 196.889,226.821 196.797,226.813 197.129 M229.564 201.133 C 229.780 201.536,230.271 202.121,230.655 202.433 C 231.087 202.784,230.990 202.504,230.401 201.700 C 229.351 200.265,228.957 199.998,229.564 201.133 M163.600 204.588 C 163.600 204.677,164.152 205.347,164.827 206.075 L 166.053 207.400 165.327 206.106 C 164.715 205.018,163.600 204.037,163.600 204.588 M166.800 208.800 C 167.270 209.460,167.744 210.000,167.854 210.000 C 167.964 210.000,167.670 209.460,167.200 208.800 C 166.730 208.140,166.256 207.600,166.146 207.600 C 166.036 207.600,166.330 208.140,166.800 208.800 M169.260 212.395 C 169.746 213.052,170.219 213.515,170.311 213.422 C 170.534 213.199,169.087 211.229,168.688 211.213 C 168.516 211.206,168.774 211.738,169.260 212.395 M172.400 216.800 C 173.498 218.342,173.758 218.343,172.881 216.803 C 172.507 216.144,172.053 215.604,171.873 215.603 C 171.693 215.601,171.930 216.140,172.400 216.800 M174.817 220.133 C 175.568 221.196,176.322 222.152,176.492 222.257 C 177.103 222.634,175.168 219.696,174.319 218.956 C 173.763 218.471,173.941 218.894,174.817 220.133 M178.000 224.448 C 178.000 224.562,178.720 225.621,179.600 226.800 C 180.480 227.979,181.200 228.803,181.200 228.630 C 181.200 228.457,180.628 227.569,179.929 226.658 C 178.310 224.547,178.000 224.192,178.000 224.448 M182.578 231.100 C 183.401 232.255,184.142 233.200,184.224 233.200 C 184.552 233.200,182.733 230.464,181.934 229.756 C 181.465 229.340,181.755 229.945,182.578 231.100 M185.143 234.700 C 185.644 235.415,186.139 236.000,186.241 236.000 C 186.587 236.000,185.650 234.540,184.937 233.967 C 184.436 233.565,184.496 233.778,185.143 234.700 M187.442 237.874 C 188.079 238.795,188.653 239.400,188.718 239.219 C 188.784 239.038,188.262 238.284,187.560 237.545 L 186.284 236.200 187.442 237.874 M189.964 241.533 C 190.180 241.936,190.674 242.521,191.063 242.833 C 191.564 243.235,191.504 243.022,190.857 242.100 C 189.869 240.691,189.331 240.349,189.964 241.533 M192.819 245.495 C 193.327 246.207,193.836 246.697,193.950 246.583 C 194.064 246.469,193.649 245.886,193.026 245.288 L 191.895 244.200 192.819 245.495 M196.000 250.000 C 197.098 251.542,197.358 251.543,196.481 250.003 C 196.107 249.344,195.653 248.804,195.473 248.803 C 195.293 248.801,195.530 249.340,196.000 250.000 M198.401 253.300 C 199.135 254.345,199.778 255.200,199.830 255.200 C 200.287 255.200,199.277 253.448,198.297 252.540 L 197.066 251.400 198.401 253.300 M201.200 257.200 C 201.670 257.860,202.144 258.400,202.254 258.400 C 202.364 258.400,202.070 257.860,201.600 257.200 C 201.130 256.540,200.656 256.000,200.546 256.000 C 200.436 256.000,200.730 256.540,201.200 257.200 M202.763 259.400 C 203.379 260.591,204.782 262.260,204.780 261.800 C 204.779 261.580,204.232 260.770,203.564 260.000 C 202.895 259.230,202.535 258.960,202.763 259.400 M206.178 264.300 C 207.001 265.455,207.742 266.400,207.824 266.400 C 208.152 266.400,206.333 263.664,205.534 262.956 C 205.065 262.540,205.355 263.145,206.178 264.300 M208.784 267.923 C 209.281 268.651,209.793 269.140,209.922 269.011 C 210.052 268.882,209.645 268.286,209.019 267.688 L 207.880 266.600 208.784 267.923 M211.605 271.832 C 212.516 273.170,213.710 274.790,214.257 275.432 C 214.804 276.075,214.506 275.505,213.595 274.168 C 212.684 272.830,211.490 271.210,210.943 270.568 C 210.396 269.925,210.694 270.495,211.605 271.832 M216.434 278.647 C 216.965 279.333,217.480 279.823,217.579 279.735 C 217.677 279.647,217.243 279.086,216.613 278.488 L 215.469 277.400 216.434 278.647 M219.616 283.223 C 220.095 283.896,220.575 284.358,220.683 284.250 C 220.931 284.002,219.511 282.029,219.073 282.013 C 218.893 282.006,219.137 282.550,219.616 283.223 M222.371 287.000 C 223.324 288.320,224.396 289.894,224.752 290.497 C 225.108 291.101,225.531 291.596,225.692 291.597 C 226.078 291.601,222.141 285.811,221.295 285.129 C 220.933 284.838,221.417 285.680,222.371 287.000 M227.260 293.995 C 227.746 294.652,228.219 295.115,228.311 295.022 C 228.534 294.799,227.087 292.829,226.688 292.813 C 226.516 292.806,226.774 293.338,227.260 293.995 M230.400 298.400 C 231.498 299.942,231.758 299.943,230.881 298.403 C 230.507 297.744,230.053 297.204,229.873 297.203 C 229.693 297.201,229.930 297.740,230.400 298.400 M232.370 300.900 L 233.339 302.000 269.446 302.000 C 289.305 302.000,305.636 301.865,305.738 301.700 C 305.840 301.535,289.621 301.448,269.694 301.506 L 233.465 301.613 232.432 300.706 L 231.400 299.800 232.370 300.900 " stroke="none" fill="#23d575" fill-rule="evenodd"></path>
</g>
</svg>