<svg xmlns="http://www.w3.org/2000/svg" xmlns:xlink="http://www.w3.org/1999/xlink" version="1.1" x="0px" y="0px" viewBox="0 0 100 100" enable-background="new 0 0 100 100" xml:space="preserve">
    <path d="M84.5,24.9l-9.7-9.7c-1.2-1.2-2.7-1.8-4.3-1.8c-1.6,0-3.2,0.6-4.3,1.8l-6.5,6.5c-1.3-0.4-2.8-0.1-3.8,0.8l-2.8,2.8  c-1.1,1.1-1.3,2.8-0.7,4.2L21,60.9c-0.1,0.1-0.2,0.2-0.2,0.3c0,0,0,0,0,0.1c-0.1,0.1-0.1,0.2-0.2,0.3c0,0,0,0,0,0L15,78.6  c0,0,0,0,0,0l-0.6,1.8l-0.6,1.8c0,0.1,0,0.2-0.1,0.2c-0.2,1,0,1.8,0.3,2.3c0.1,0.2,0.2,0.4,0.3,0.5c0.6,0.7,1.5,1.1,2.5,1.1h0  c0.1,0,0.2,0,0.3,0c0.2,0,0.3,0,0.4,0c0,0,0,0,0,0c0,0,0,0,0,0c0.1,0,0.2,0,0.2-0.1l2.5-0.8l18-5.9c0,0,0,0,0,0  c0.3-0.1,0.5-0.2,0.7-0.4l31.5-31.5c0.4,0.2,0.8,0.2,1.3,0.2c1,0,1.9-0.4,2.6-1.1l2.8-2.8c1.1-1.1,1.3-2.6,0.8-3.9l6.5-6.5  C86.9,31.2,86.9,27.3,84.5,24.9z M37.8,75.1L32.7,70L62.6,40l5.1,5.1L37.8,75.1z M60,37.4L30.1,67.4L25,62.2l29.9-29.9L60,37.4z   M21.4,81.1l-2.5-2.5l4.3-13l5.6,5.6c0,0,0,0,0,0c0,0,0,0,0,0l5.6,5.6L21.4,81.1z M72.4,43.6c-0.1-0.1-0.1-0.2-0.2-0.2L56.7,27.8  c-0.2-0.2-0.3-0.3-0.5-0.4l2.2-2.3l0.2,0.2c0,0,0,0,0,0l15.7,15.7c0.1,0.1,0.2,0.2,0.3,0.2L72.4,43.6z M81.9,31l-6.3,6.3L62.5,24.1  l6.3-6.3c0.9-0.9,2.5-0.9,3.4,0l9.7,9.7C82.8,28.5,82.8,30,81.9,31z">
</path></svg>