<?xml version="1.0" standalone="no"?>
<!DOCTYPE svg PUBLIC "-//W3C//DTD SVG 20010904//EN"
 "http://www.w3.org/TR/2001/REC-SVG-20010904/DTD/svg10.dtd">
<svg version="1.0" xmlns="http://www.w3.org/2000/svg"
 width="512.000000pt" height="512.000000pt" viewBox="0 0 512.000000 512.000000"
 preserveAspectRatio="xMidYMid meet">

<g transform="translate(0.000000,512.000000) scale(0.100000,-0.100000)"
fill="#000000" stroke="none">
<path d="M4305 4954 c-16 -8 -120 -104 -230 -214 l-200 -199 -53 11 c-67 14
-160 -1 -240 -37 -51 -23 -216 -184 -1588 -1558 l-1531 -1532 -157 -550 c-86
-303 -156 -563 -156 -579 0 -67 80 -146 148 -146 21 0 1042 288 1107 312 18 7
565 545 1421 1400 l1390 1389 65 -69 c92 -97 109 -172 62 -267 -8 -16 -241
-257 -518 -535 -448 -449 -504 -509 -511 -543 -19 -108 76 -201 182 -177 32 7
114 85 551 522 283 282 527 534 543 559 65 99 94 249 70 364 -20 99 -72 194
-153 282 l-74 78 39 50 c68 89 99 210 79 310 l-10 50 209 210 c174 176 209
216 215 247 15 79 9 87 -259 357 -138 139 -265 259 -283 267 -42 18 -81 18
-118 -2z m185 -469 l115 -115 -120 -120 -120 -120 -117 117 -118 118 117 117
c65 65 120 118 123 118 3 0 57 -52 120 -115z m-455 -455 l220 -220 0 -45 0
-45 -285 -285 -285 -285 -268 269 -269 268 273 276 c151 152 285 281 299 286
14 6 41 9 60 6 29 -4 67 -37 255 -225z m-825 -825 l265 -265 -58 -57 c-31 -32
-507 -510 -1057 -1063 l-999 -1005 -273 273 -273 272 1055 1055 c580 580 1060
1055 1065 1055 6 0 129 -119 275 -265z m-2335 -2335 c104 -104 187 -191 185
-194 -6 -5 -534 -155 -537 -152 -4 3 152 536 157 536 3 0 90 -85 195 -190z"/>
</g>
</svg>
