<?xml version="1.0" standalone="no"?>
<!DOCTYPE svg PUBLIC "-//W3C//DTD SVG 20010904//EN"
 "http://www.w3.org/TR/2001/REC-SVG-20010904/DTD/svg10.dtd">
<svg version="1.0" xmlns="http://www.w3.org/2000/svg"
 width="1024.000000pt" height="1024.000000pt" viewBox="0 0 1024.000000 1024.000000"
 preserveAspectRatio="xMidYMid meet">

<g transform="translate(0.000000,1024.000000) scale(0.100000,-0.100000)"
fill="#000000" stroke="none">
<path d="M4785 10209 c-1562 -103 -3011 -938 -3894 -2244 -275 -408 -467 -796
-620 -1255 -420 -1261 -327 -2649 259 -3845 257 -523 561 -947 984 -1371 417
-417 836 -720 1351 -973 520 -257 1023 -409 1625 -492 130 -18 220 -22 555
-26 263 -3 444 -1 530 7 737 66 1448 290 2086 656 781 447 1453 1120 1903
1903 550 956 774 2076 635 3171 -167 1326 -842 2525 -1895 3366 -990 791
-2250 1186 -3519 1103z m540 -2723 c19 -8 60 -32 92 -54 82 -56 138 -82 172
-82 37 0 92 45 127 106 14 24 28 44 30 44 2 0 4 -103 4 -228 l0 -228 -32 -54
c-69 -114 -133 -125 -250 -43 -156 109 -183 115 -248 57 l-40 -36 0 -177 1
-176 444 -320 445 -320 0 -387 0 -388 338 -2 337 -3 3 -902 2 -903 -705 0
-705 0 0 345 0 345 -215 0 -215 0 0 -345 0 -345 -705 0 -705 0 2 903 3 902
347 3 348 2 2 387 3 387 452 326 452 325 0 363 c1 341 2 365 21 400 28 53 51
79 85 96 37 20 66 20 110 2z m1885 -4321 l0 -115 -2085 0 -2085 0 0 115 0 115
2085 0 2085 0 0 -115z m670 -340 l0 -115 -2755 0 -2755 0 0 108 c0 60 3 112 7
115 3 4 1243 7 2755 7 l2748 0 0 -115z"/>
<path d="M5016 6034 c-64 -20 -112 -51 -163 -107 -52 -56 -77 -106 -93 -180
-32 -159 58 -335 208 -405 80 -38 203 -43 285 -12 202 76 300 305 212 498 -79
173 -270 260 -449 206z m214 -115 c55 -25 105 -71 133 -124 16 -30 22 -58 22
-115 0 -66 -4 -82 -31 -130 -97 -170 -337 -181 -445 -20 -50 74 -60 140 -34
226 43 146 217 226 355 163z"/>
<path d="M5090 5860 c-15 -15 -20 -33 -20 -75 l0 -55 -33 0 c-40 0 -57 -15
-57 -52 0 -43 37 -61 111 -56 82 6 89 16 89 134 0 85 -2 94 -22 108 -30 21
-44 20 -68 -4z"/>
<path d="M3742 4884 c-21 -14 -22 -22 -22 -164 0 -142 1 -150 22 -164 30 -21
44 -20 68 4 17 17 20 33 20 125 l0 105 110 0 c105 0 110 1 126 25 20 30 10 63
-23 76 -13 5 -82 9 -151 9 -99 0 -132 -3 -150 -16z"/>
<path d="M4370 4893 c-35 -12 -40 -35 -40 -175 0 -125 2 -140 20 -158 24 -24
38 -25 68 -4 20 14 22 23 22 125 l0 109 109 0 c119 0 141 9 141 55 0 45 -32
55 -175 54 -71 0 -137 -3 -145 -6z"/>
<path d="M4972 4884 c-21 -14 -22 -22 -22 -163 0 -131 2 -150 18 -164 21 -19
40 -21 62 -7 11 7 16 37 20 122 l5 113 109 3 c61 1 116 8 123 14 21 17 16 65
-9 82 -18 13 -51 16 -153 16 -102 0 -135 -3 -153 -16z"/>
<path d="M5582 4884 c-21 -14 -22 -22 -22 -164 0 -142 1 -150 22 -164 30 -21
44 -20 68 4 17 17 20 33 20 125 l0 105 108 0 c93 0 111 3 125 18 22 25 21 48
-3 72 -18 18 -33 20 -158 20 -108 0 -142 -3 -160 -16z"/>
<path d="M6207 4893 c-29 -8 -37 -46 -37 -184 0 -116 2 -131 20 -149 25 -25
52 -26 73 -2 14 15 17 40 17 125 l0 107 109 0 c119 0 141 9 141 55 0 45 -32
55 -175 54 -71 -1 -138 -3 -148 -6z"/>
<path d="M3737 4242 c-14 -16 -17 -43 -17 -163 0 -156 4 -169 51 -169 50 0 59
21 59 136 l0 104 105 0 c92 0 108 3 125 20 11 11 20 27 20 35 0 8 -9 24 -20
35 -18 18 -33 20 -163 20 -127 0 -146 -2 -160 -18z"/>
<path d="M4350 4240 c-18 -18 -20 -33 -20 -158 0 -122 2 -141 18 -155 22 -20
63 -22 80 -5 8 8 12 49 12 120 l0 108 108 0 c93 0 111 3 125 18 22 24 21 55
-1 75 -15 14 -42 17 -160 17 -129 0 -144 -2 -162 -20z"/>
<path d="M5577 4242 c-14 -15 -17 -42 -17 -156 0 -76 5 -146 10 -157 7 -13 21
-19 45 -19 47 0 55 20 55 139 l0 100 112 3 c110 3 113 4 127 29 13 24 13 29
-2 53 l-17 26 -149 0 c-131 0 -150 -2 -164 -18z"/>
<path d="M6190 4240 c-18 -18 -20 -33 -20 -153 0 -149 9 -177 59 -177 45 0 51
15 51 132 l0 108 108 0 c93 0 111 3 125 18 22 24 21 55 -1 75 -15 14 -42 17
-160 17 -129 0 -144 -2 -162 -20z"/>
</g>
</svg>
