<svg width="33" height="38" viewBox="0 0 33 38" fill="none" xmlns="http://www.w3.org/2000/svg">
<path id="Vector" d="M18.7223 38C17.5998 38 16.8024 37.5141 16.3301 36.5424C15.8577 35.5707 15.9368 34.6316 16.5671 33.725L27.006 19L16.5671 4.275C15.9385 3.37024 15.8595 2.4311 16.3301 1.45758C16.8006 0.484053 17.598 -0.00180449 18.7223 5.03577e-06C19.2161 5.03577e-06 19.6651 0.124862 20.0692 0.374576C20.4733 0.62429 20.81 0.929195 21.0794 1.28929L32.4612 17.4393C32.6408 17.6655 32.7755 17.9143 32.8653 18.1857C32.9551 18.4571 33 18.7286 33 19C33 19.2714 32.9551 19.532 32.8653 19.7817C32.7755 20.0314 32.6408 20.2911 32.4612 20.5607L21.0794 36.7107C20.81 37.0726 20.4733 37.3784 20.0692 37.6281C19.6651 37.8778 19.2161 38.0018 18.7223 38ZM2.69347 38C1.57101 38 0.774509 37.5141 0.303972 36.5424C-0.166565 35.5707 -0.0884401 34.6316 0.538344 33.725L10.9773 19L0.538344 4.275C-0.090236 3.37024 -0.16836 2.4311 0.303972 1.45758C0.776305 0.484053 1.57281 -0.00180449 2.69347 5.03577e-06C3.18736 5.03577e-06 3.63634 0.124862 4.04043 0.374576C4.44452 0.62429 4.78126 0.929195 5.05065 1.28929L16.4324 17.4393C16.612 17.6655 16.7467 17.9143 16.8365 18.1857C16.9263 18.4571 16.9712 18.7286 16.9712 19C16.9712 19.2714 16.9263 19.5429 16.8365 19.8143C16.7467 20.0857 16.612 20.3345 16.4324 20.5607L5.05065 36.7107C4.78126 37.0726 4.44452 37.3784 4.04043 37.6281C3.63634 37.8778 3.18736 38.0018 2.69347 38Z" fill="black"/>
</svg>
