<svg width="64" height="60" viewBox="0 0 64 60" fill="none" xmlns="http://www.w3.org/2000/svg">
<path d="M32 7.04689L57.2807 52.9443H6.71927L32 7.04689ZM0.911084 49.4164C-1.67406 54.1085 1.54898 60 6.71927 60H57.2807C62.451 60 65.6741 54.1085 63.0889 49.4164L37.8082 3.51904C35.223 -1.17301 28.777 -1.17301 26.1918 3.51904L0.911084 49.4164ZM28.6427 24.7214V31.7772C28.6427 33.7175 30.1535 35.305 32 35.305C33.8465 35.305 35.3573 33.7175 35.3573 31.7772V24.7214C35.3573 22.7811 33.8465 21.1936 32 21.1936C30.1535 21.1936 28.6427 22.7811 28.6427 24.7214ZM28.6427 42.3607H35.3573V49.4164H28.6427V42.3607Z" fill="#FF8A00"/>
</svg>
