<svg width="60" height="60" viewBox="0 0 60 60" fill="none" xmlns="http://www.w3.org/2000/svg">
<g id="Group 37">
<circle id="Ellipse 4" cx="30" cy="30" r="30" fill="#A4BDFF"/>
<path id="Vector" d="M16.8673 31.4551V36.1257C16.8673 37.339 17.5369 38.4693 18.6083 39.051L26.9785 43.5886C27.9829 44.1371 29.1882 44.1371 30.1926 43.5886L38.5628 39.051C39.6342 38.4693 40.3038 37.339 40.3038 36.1257V31.4551L30.1926 36.9401C29.1882 37.4886 27.9829 37.4886 26.9785 36.9401L16.8673 31.4551ZM26.9785 15.3989L12.8663 23.0447C11.7112 23.6763 11.7112 25.3384 12.8663 25.9701L26.9785 33.6158C27.9829 34.1644 29.1882 34.1644 30.1926 33.6158L43.6519 26.3191V36.1423C43.6519 37.0565 44.4052 37.8044 45.326 37.8044C46.2467 37.8044 47 37.0565 47 36.1423V25.488C47 24.873 46.6652 24.3245 46.1295 24.0254L30.1926 15.3989C29.698 15.137 29.1461 15 28.5856 15C28.025 15 27.4731 15.137 26.9785 15.3989Z" fill="black"/>
</g>
</svg>
