<?xml version="1.0" standalone="no"?>
<!DOCTYPE svg PUBLIC "-//W3C//DTD SVG 20010904//EN"
 "http://www.w3.org/TR/2001/REC-SVG-20010904/DTD/svg10.dtd">
<svg version="1.0" xmlns="http://www.w3.org/2000/svg"
 width="463.000000pt" height="300.000000pt" viewBox="0 0 463.000000 300.000000"
 preserveAspectRatio="xMidYMid meet">

<g transform="translate(0.000000,300.000000) scale(0.100000,-0.100000)"
fill="#000000" stroke="none">
<path d="M0 1500 l0 -1500 2315 0 2315 0 0 1500 0 1500 -2315 0 -2315 0 0
-1500z m600 1189 c60 -13 107 -49 127 -98 20 -47 28 -212 14 -285 -23 -122
-86 -160 -266 -161 l-110 0 -3 278 -2 277 94 0 c52 0 118 -5 146 -11z m474
-21 c52 -126 186 -510 181 -518 -9 -14 -62 -12 -72 2 -4 7 -15 33 -24 58 l-16
45 -102 5 c-57 3 -108 2 -113 -1 -6 -4 -20 -31 -32 -60 -19 -48 -25 -54 -54
-57 -45 -4 -47 11 -16 94 14 38 53 143 86 234 88 241 82 230 118 230 26 0 33
-6 44 -32z m583 6 c70 -52 92 -135 57 -210 -16 -32 -51 -68 -76 -76 -7 -3 14
-51 50 -120 34 -63 59 -118 55 -121 -9 -9 -65 -8 -79 1 -6 4 -37 58 -68 120
l-56 112 -55 0 -55 0 0 -115 c0 -114 0 -115 -25 -121 -56 -14 -55 -18 -55 274
0 148 3 272 8 276 4 4 66 6 139 4 115 -3 135 -6 160 -24z m283 -114 l5 -135
90 115 c125 158 127 160 175 160 22 0 40 -3 40 -7 0 -5 -36 -51 -80 -103 -44
-52 -80 -102 -80 -110 0 -8 41 -82 90 -165 49 -82 90 -156 90 -163 0 -9 -13
-12 -42 -10 l-43 3 -75 124 c-42 69 -81 126 -86 128 -6 2 -27 -16 -48 -41 -35
-43 -36 -47 -36 -125 0 -72 -2 -80 -21 -86 -11 -4 -31 -4 -45 -1 l-24 6 0 269
c1 148 4 272 8 275 3 4 22 6 42 4 l35 -3 5 -135z m501 123 c5 -10 41 -88 78
-173 38 -85 73 -156 78 -157 5 -2 43 74 85 169 l75 173 37 3 36 3 -2 -278 -3
-278 -30 0 -30 0 -3 173 c-1 94 -6 172 -11 172 -4 0 -32 -55 -61 -122 -63
-145 -66 -150 -98 -146 -20 3 -32 22 -79 128 -30 69 -59 129 -64 135 -5 5 -9
-60 -9 -163 0 -187 -1 -191 -55 -178 l-25 6 0 269 c0 147 3 271 7 274 13 14
63 7 74 -10z m806 -4 c30 -15 52 -35 71 -67 25 -43 27 -58 30 -167 4 -140 -6
-191 -50 -241 -54 -62 -146 -82 -225 -49 -93 39 -112 86 -113 268 0 116 3 144
19 175 22 43 56 77 91 91 44 17 130 13 177 -10z m498 -2 c41 -21 80 -65 94
-106 6 -19 11 -88 11 -155 0 -96 -4 -129 -19 -161 -22 -47 -54 -79 -96 -95
-36 -14 -212 -25 -249 -16 l-26 6 0 269 c0 147 3 271 8 275 13 15 244 1 277
-17z m573 -19 l3 -37 -138 -3 -138 -3 -3 -77 -3 -77 118 -3 118 -3 3 -37 3
-37 -118 -3 -118 -3 0 -75 0 -75 138 -3 138 -3 -3 -37 -3 -37 -164 -3 c-91 -1
-169 2 -173 6 -7 7 -14 503 -8 550 0 1 78 1 173 0 l172 -3 3 -37z m-1043
-1113 c301 -63 521 -350 502 -655 -13 -209 -133 -403 -313 -507 -144 -84 -60
-78 -1124 -78 l-945 0 -62 22 c-247 90 -414 308 -430 563 -19 306 197 589 501
655 94 21 1773 21 1871 0z"/>
<path d="M440 2419 l0 -201 81 4 c77 3 82 5 110 36 29 32 29 34 29 157 0 68
-5 135 -11 148 -18 40 -59 57 -138 57 l-71 0 0 -201z"/>
<path d="M987 2463 c-20 -60 -37 -111 -37 -115 0 -5 36 -8 80 -8 44 0 80 3 80
8 0 15 -73 222 -79 222 -3 0 -23 -48 -44 -107z"/>
<path d="M1432 2538 l3 -83 74 -3 c82 -3 115 10 132 55 12 32 -5 89 -31 103
-10 6 -55 10 -100 10 l-81 0 3 -82z"/>
<path d="M3087 2609 c-37 -21 -47 -63 -47 -189 0 -163 22 -200 119 -200 81 0
111 55 111 200 0 151 -30 200 -119 200 -25 0 -54 -5 -64 -11z"/>
<path d="M3540 2420 l0 -200 65 0 c136 0 165 35 165 200 0 165 -28 200 -160
200 l-70 0 0 -200z"/>
<path d="M2993 1475 c-173 -47 -316 -177 -385 -350 -29 -74 -32 -89 -32 -195
0 -121 8 -157 62 -268 51 -106 184 -222 302 -265 193 -70 397 -34 562 98 66
53 139 158 169 242 27 74 37 233 20 311 -44 203 -210 373 -416 427 -73 19
-212 19 -282 0z"/>
<path d="M1521 1062 c-94 -47 -95 -207 -2 -269 42 -28 117 -31 168 -6 51 24
73 66 73 138 0 72 -14 102 -59 132 -43 29 -130 31 -180 5z m133 -74 c9 -12 16
-41 16 -63 0 -53 -23 -85 -60 -85 -50 0 -79 49 -66 112 9 44 24 58 62 58 23 0
38 -7 48 -22z"/>
<path d="M1820 925 l0 -155 40 0 40 0 1 43 c1 23 0 56 -1 73 -1 18 2 34 7 37
5 3 31 -28 58 -69 50 -74 71 -89 116 -82 24 3 24 4 27 156 l3 153 -43 -3 -43
-3 -3 -72 c-2 -40 -6 -73 -10 -73 -4 0 -20 21 -36 46 -55 87 -74 104 -117 104
l-39 0 0 -155z"/>
</g>
</svg>
